<svg id="svg" version="1.1" xmlns="http://www.w3.org/2000/svg" style="display: block;" viewBox="0 0 1084 1084"><path d="M0 0 C357.72 0 715.44 0 1084 0 C1084 357.72 1084 715.44 1084 1084 C726.28 1084 368.56 1084 0 1084 C0 726.28 0 368.56 0 0 Z " transform="translate(0,0)" style="fill: #020202;"/><path d="M0 0 C357.72 0 715.44 0 1084 0 C1084 357.72 1084 715.44 1084 1084 C726.28 1084 368.56 1084 0 1084 C0 726.28 0 368.56 0 0 Z M521.6875 13.4375 C520.46305176 13.48261719 519.23860352 13.52773437 517.97705078 13.57421875 C510.4419657 13.85763321 502.90742834 14.15260859 495.375 14.5 C494.54701904 14.53536865 493.71903809 14.5707373 492.8659668 14.60717773 C488.80065741 14.72509403 488.80065741 14.72509403 485 16 C483.05486887 16.29234362 481.10265303 16.53801899 479.1484375 16.76171875 C477.91963867 16.90810791 476.69083984 17.05449707 475.42480469 17.20532227 C474.76557007 17.28340118 474.10633545 17.3614801 473.42712402 17.44192505 C461.1220091 18.91446178 448.92815501 20.76502378 436.75 23.0625 C436.08635437 23.18619965 435.42270874 23.30989929 434.73895264 23.43734741 C427.51283639 24.79155649 420.40560237 26.33362151 413.33251953 28.34155273 C410.42979822 29.16096234 407.50592144 29.84330039 404.5625 30.5 C398.35078211 31.90769147 392.17293654 33.43174045 386 35 C386 35.66 386 36.32 386 37 C383.69 37 381.38 37 379 37 C379 37.66 379 38.32 379 39 C377.02 39 375.04 39 373 39 C373 39.66 373 40.32 373 41 C372.154375 41.103125 371.30875 41.20625 370.4375 41.3125 C367.34089959 41.93182008 364.81216272 42.89610999 361.93774414 44.15991211 C358.66281966 45.57971999 355.33478523 46.85369299 352 48.125 C351.32710938 48.38925781 350.65421875 48.65351562 349.9609375 48.92578125 C345.63065224 50.57262719 341.61071131 51.37398843 337 52 C334.37648324 52.91524842 334.37648324 52.91524842 332.0625 54.0625 C331.29035156 54.42472656 330.51820313 54.78695312 329.72265625 55.16015625 C329.15417969 55.43730469 328.58570313 55.71445312 328 56 C328 56.66 328 57.32 328 58 C326.9996875 58.08507813 325.999375 58.17015625 324.96875 58.2578125 C320.67375915 58.87968242 317.23027409 60.74665627 313.5 62.875 C305.40047014 67.33946673 297.12626525 71.35082067 288.75585938 75.28076172 C287.82064453 75.72178223 286.88542969 76.16280273 285.921875 76.6171875 C285.09268555 77.00503418 284.26349609 77.39288086 283.40917969 77.79248047 C280.85347929 79.07343853 278.43813503 80.50892781 276 82 C274.06762947 83.07180066 272.13007055 84.1342991 270.1875 85.1875 C269.21167969 85.71730469 268.23585938 86.24710937 267.23046875 86.79296875 C266.49441406 87.19128906 265.75835937 87.58960937 265 88 C265 88.66 265 89.32 265 90 C263.35 90.33 261.7 90.66 260 91 C260 91.66 260 92.32 260 93 C259.26966553 93.10707275 258.53933105 93.21414551 257.78686523 93.32446289 C254.78658793 94.05173116 252.95655137 95.08443012 250.41015625 96.80859375 C249.55067383 97.38552979 248.69119141 97.96246582 247.80566406 98.55688477 C246.44779785 99.48778931 246.44779785 99.48778931 245.0625 100.4375 C244.12245117 101.07421631 243.18240234 101.71093262 242.21386719 102.36694336 C239.46804869 104.23346969 236.73179889 106.11302848 234 108 C233.31599121 108.47211914 232.63198242 108.94423828 231.92724609 109.43066406 C222.66001436 115.86382681 213.68744296 122.69894454 204.78076172 129.62011719 C203.19871915 130.84601582 201.60228807 132.0532953 200.00390625 133.2578125 C199.01197266 134.12019531 199.01197266 134.12019531 198 135 C198 135.66 198 136.32 198 137 C197.195625 137.268125 196.39125 137.53625 195.5625 137.8125 C194.716875 138.204375 193.87125 138.59625 193 139 C192.67 139.99 192.34 140.98 192 142 C191.195625 142.309375 190.39125 142.61875 189.5625 142.9375 C186.86250657 143.72921141 186.86250657 143.72921141 186 146 C184.60148274 148.79703452 182.86309036 148.86808055 180 150 C177.18668622 152.39583651 177.18668622 152.39583651 175 155 C175 155.66 175 156.32 175 157 C174.14728516 157.37705078 174.14728516 157.37705078 173.27734375 157.76171875 C165.99838976 161.71957195 159.97907347 168.93069829 154.125 174.75 C153.3043103 175.56368042 153.3043103 175.56368042 152.46704102 176.39379883 C146.68047492 181.46955226 146.68047492 181.46955226 144 188 C143.443125 188.20625 142.88625 188.4125 142.3125 188.625 C139.02987629 190.57683032 137.29326754 192.94230994 135 196 C135 196.66 135 197.32 135 198 C134.38125 198.226875 133.7625 198.45375 133.125 198.6875 C130.77279369 199.84931972 130.77279369 199.84931972 130 202.5 C128.77857206 205.55356985 127.83868307 205.62644367 125 207 C124.835 207.66 124.67 208.32 124.5 209 C124.335 209.66 124.17 210.32 124 211 C123.40106934 211.28278809 122.80213867 211.56557617 122.18505859 211.85693359 C119.48875413 213.26744728 118.33361425 214.84130001 116.5390625 217.2890625 C115.90226562 218.14886719 115.26546875 219.00867188 114.609375 219.89453125 C113.62710938 221.24611328 113.62710938 221.24611328 112.625 222.625 C111.97789063 223.50285156 111.33078125 224.38070312 110.6640625 225.28515625 C109.38344632 227.02276651 108.10763452 228.76392898 106.83691406 230.50878906 C104.63462136 233.49552414 102.35331859 236.41680517 100.04443359 239.32177734 C98.73581146 241.09505786 98.73581146 241.09505786 99 244 C98.34 244 97.68 244 97 244 C95.57968356 245.66037288 95.57968356 245.66037288 94.1796875 247.83203125 C93.64472656 248.63060547 93.10976562 249.42917969 92.55859375 250.25195312 C92.00300781 251.09693359 91.44742188 251.94191406 90.875 252.8125 C90.31167969 253.64587891 89.74835938 254.47925781 89.16796875 255.33789062 C88.63558594 256.14033203 88.10320312 256.94277344 87.5546875 257.76953125 C87.06468262 258.50792236 86.57467773 259.24631348 86.06982422 260.00708008 C84.76351348 262.06355283 84.76351348 262.06355283 85 265 C84.34 265 83.68 265 83 265 C80.96890134 268.48033592 78.94281866 271.9635422 76.92089844 275.44921875 C75.90289233 277.20197622 74.88118496 278.95258235 73.859375 280.703125 C66.020856 292.24255493 66.020856 292.24255493 62 305 C61.34 305 60.68 305 60 305 C59.78085937 305.58265625 59.56171875 306.1653125 59.3359375 306.765625 C56.30187191 314.60979458 52.61512707 322.06375422 48.6796875 329.4921875 C45.63540751 335.33184409 43.39193564 341.27748209 41.25390625 347.50390625 C40.11212822 350.68736836 38.82082303 353.72857802 37.4375 356.8125 C35.2042219 362.067272 33.87303306 367.36130198 32.66870117 372.91772461 C30.97460533 380.55088236 28.64433194 387.97067603 26.28564453 395.42114258 C25.99028809 396.3623999 25.69493164 397.30365723 25.390625 398.2734375 C25.12282227 399.11310059 24.85501953 399.95276367 24.57910156 400.81787109 C23.8717476 403.1069942 23.8717476 403.1069942 24 406 C23.34 406 22.68 406 22 406 C22 407.32 22 408.64 22 410 C21.34 410 20.68 410 20 410 C20.495 411.98 20.495 411.98 21 414 C20.34 414 19.68 414 19 414 C19.33 415.32 19.66 416.64 20 418 C19.34 418 18.68 418 18 418 C17.88970459 418.6820752 17.77940918 419.36415039 17.66577148 420.06689453 C16.59434609 426.6017757 15.43555021 433.11609267 14.22364807 439.62632751 C11.55173697 453.98588403 9.04802466 468.31589404 7.29370117 482.82299805 C7.0741765 484.45018131 6.80045967 486.07021751 6.49951172 487.68432617 C5.86680737 491.88411001 5.65802214 496.04932236 5.46484375 500.2890625 C5.40037804 501.63682266 5.40037804 501.63682266 5.33460999 503.0118103 C5.24462329 504.9163177 5.15648347 506.82091314 5.07006836 508.72558594 C4.94013448 511.5673811 4.80155113 514.4086576 4.66210938 517.25 C3.80159501 535.38562678 3.75184563 553.37819929 4.875 571.5 C4.94219238 572.62672623 4.94219238 572.62672623 5.01074219 573.7762146 C5.99593991 590.27936816 7.438893 606.65769819 10 623 C10.14179688 623.95390625 10.28359375 624.9078125 10.4296875 625.890625 C11.85147554 635.02000082 13.88768769 644.01050499 16 653 C16.24331055 654.03592285 16.48662109 655.0718457 16.73730469 656.13916016 C17.52172862 659.44981894 18.32085724 662.75657977 19.125 666.0625 C19.37862305 667.12823242 19.63224609 668.19396484 19.89355469 669.29199219 C20.13750977 670.27973633 20.38146484 671.26748047 20.6328125 672.28515625 C20.84824707 673.17082275 21.06368164 674.05648926 21.28564453 674.96899414 C21.80270833 677.19109268 21.80270833 677.19109268 24 678 C25.83962056 683.29174803 26 688.44508562 26 694 C26.99 695.485 26.99 695.485 28 697 C30.00255582 701.15915439 31.42297099 704.34731916 31 709 C31.66 709 32.32 709 33 709 C32.67 709.99 32.34 710.98 32 712 C32.75576381 714.77619955 32.75576381 714.77619955 33.9375 717.6875 C34.31777344 718.68136719 34.69804688 719.67523437 35.08984375 720.69921875 C35.39019531 721.45847656 35.69054687 722.21773437 36 723 C36.66 723 37.32 723 38 723 C38.061875 724.0725 38.12375 725.145 38.1875 726.25 C39.43074713 735.8599643 44.75548186 744.59187835 49.10961914 753.11132812 C51.87666313 758.58841831 54.11759436 764.15463511 56 770 C56.66 770 57.32 770 58 770 C58.10957031 770.71937744 58.21914063 771.43875488 58.33203125 772.17993164 C59.05140539 775.2170262 60.14650473 777.41297657 61.6875 780.12109375 C62.22761719 781.08257324 62.76773438 782.04405273 63.32421875 783.03466797 C63.87722656 784.01322754 64.43023437 784.99178711 65 786 C66.00389011 787.84293837 67.00396608 789.6879601 68 791.53515625 C68.7425 792.90317383 68.7425 792.90317383 69.5 794.29882812 C70.50163809 796.14429415 71.50163353 797.99065266 72.5 799.83789062 C75.02627007 804.48583283 77.59517225 809.10772104 80.25 813.68359375 C80.72953125 814.5130249 81.2090625 815.34245605 81.703125 816.19702148 C82.13109375 816.79200439 82.5590625 817.3869873 83 818 C83.66 818 84.32 818 85 818 C85.1023999 818.55888916 85.2047998 819.11777832 85.31030273 819.69360352 C86.14355822 822.48006885 87.4291525 824.47622364 89.03515625 826.90234375 C89.67227539 827.86551514 90.30939453 828.82868652 90.96582031 829.82104492 C91.65772461 830.8494751 92.34962891 831.87790527 93.0625 832.9375 C93.77116211 833.99622314 94.47982422 835.05494629 95.20996094 836.14575195 C101.90955905 846.05120668 109.0458879 855.60462829 116.43554688 865.00537109 C117.75156365 866.68325141 119.04281931 868.3805108 120.328125 870.08203125 C120.87984375 870.71496094 121.4315625 871.34789062 122 872 C122.66 872 123.32 872 124 872 C124.268125 872.804375 124.53625 873.60875 124.8125 874.4375 C125.204375 875.283125 125.59625 876.12875 126 877 C126.99 877.33 127.98 877.66 129 878 C129.309375 878.804375 129.61875 879.60875 129.9375 880.4375 C130.72921141 883.13749343 130.72921141 883.13749343 133 884 C135.79703452 885.39851726 135.86808055 887.13690964 137 890 C139.39583651 892.81331378 139.39583651 892.81331378 142 895 C142.66 895 143.32 895 144 895 C144.25007812 895.5671875 144.50015625 896.134375 144.7578125 896.71875 C148.63276395 903.83501303 155.49965251 909.5872676 161.1875 915.3125 C161.67395996 915.80363281 162.16041992 916.29476562 162.66162109 916.80078125 C168.13702641 922.96281439 168.13702641 922.96281439 175 926 C175.20625 926.556875 175.4125 927.11375 175.625 927.6875 C177.57683032 930.97012371 179.94230994 932.70673246 183 935 C183.66 935 184.32 935 185 935 C185.226875 935.61875 185.45375 936.2375 185.6875 936.875 C186.84931972 939.22720631 186.84931972 939.22720631 189.5 940 C192.55356985 941.22142794 192.62644367 942.16131693 194 945 C194.66 945.165 195.32 945.33 196 945.5 C196.66 945.665 197.32 945.83 198 946 C198.68486725 947.32407669 199.34870203 948.65909241 200 950 C203.44985828 953.32623172 203.44985828 953.32623172 208 954 C208.33 954.99 208.66 955.98 209 957 C210.59806564 958.51115461 210.59806564 958.51115461 212.62109375 959.93359375 C213.38292969 960.49425537 214.14476562 961.05491699 214.9296875 961.63256836 C215.75726563 962.2281958 216.58484375 962.82382324 217.4375 963.4375 C218.28699219 964.05568604 219.13648438 964.67387207 220.01171875 965.31079102 C227.87676504 970.99360691 235.90064296 976.42283449 244.03173828 981.71630859 C245.84924884 982.90168077 247.65800898 984.09922818 249.46484375 985.30078125 C250.44582031 985.94402344 251.42679688 986.58726562 252.4375 987.25 C253.67306641 988.06210938 253.67306641 988.06210938 254.93359375 988.890625 C257.0496348 990.23650347 257.0496348 990.23650347 260 990 C260 990.66 260 991.32 260 992 C261.65 992.33 263.3 992.66 265 993 C265 993.66 265 994.32 265 995 C266.7664657 996.0076952 268.53833823 997.00591714 270.3125 998 C271.29863281 998.556875 272.28476562 999.11375 273.30078125 999.6875 C275.94942471 1001.21864753 275.94942471 1001.21864753 279 1001 C279 1001.66 279 1002.32 279 1003 C279.969375 1003.4846875 280.93875 1003.969375 281.9375 1004.46875 C282.89692505 1004.94852295 282.89692505 1004.94852295 283.87573242 1005.43798828 C285.31066127 1006.15537025 286.74572326 1006.87248597 288.1809082 1007.58935547 C291.84635464 1009.42068347 295.50990174 1011.25553297 299.16796875 1013.1015625 C309.76831346 1018.44399281 320.39467995 1023.70577918 331.46777344 1028.01171875 C333.82745493 1028.93265885 336.17805678 1029.87323208 338.52734375 1030.8203125 C358.38265803 1038.76097517 378.35647412 1045.42309976 399 1051 C400.40529567 1051.38937208 401.8103056 1051.77977919 403.21484375 1052.171875 C406.8001272 1053.1559123 410.39506201 1054.09150585 414 1055 C414.90250488 1055.22929199 415.80500977 1055.45858398 416.73486328 1055.69482422 C430.42641795 1059.15113632 444.01796503 1062.03488083 458 1064 C461.02099872 1064.49091229 464.03619823 1065.00634975 467.05078125 1065.53515625 C476.43727343 1067.05273283 485.51417228 1067.20671295 495 1067 C495 1067.33 495 1067.66 495 1068 C505.26840657 1068.81757737 515.51760446 1069.32980087 525.8125 1069.625 C526.96480103 1069.65868683 526.96480103 1069.65868683 528.14038086 1069.6930542 C539.77365936 1070.01766348 551.36843173 1069.99924284 563 1069.625 C563.6755191 1069.60367004 564.35103821 1069.58234009 565.04702759 1069.56036377 C571.6203636 1069.34337145 578.18815461 1069.03244197 584.75 1068.5859375 C585.69359375 1068.52196777 586.6371875 1068.45799805 587.609375 1068.39208984 C590.25705298 1068.12670707 590.25705298 1068.12670707 593 1066 C595.40307617 1065.68457031 595.40307617 1065.68457031 598.29296875 1065.578125 C599.38254883 1065.52527344 600.47212891 1065.47242188 601.59472656 1065.41796875 C602.7803418 1065.36253906 603.96595703 1065.30710937 605.1875 1065.25 C617.58713426 1064.53569795 629.47607316 1062.68734637 641.63354492 1060.20800781 C649.5451005 1058.59887786 657.37757253 1057.36874916 665.39526367 1056.47851562 C670.72418463 1055.77112077 675.83695218 1054.4688614 681 1053 C682.13566406 1052.68675781 683.27132812 1052.37351562 684.44140625 1052.05078125 C687.81507229 1051.05460544 691.07858713 1049.91268008 694.375 1048.6875 C701.82233476 1045.99664578 709.36971047 1043.77622357 716.9765625 1041.58642578 C720.01258766 1040.70653529 723.03855955 1039.79548187 726.0625 1038.875 C727.02285156 1038.58367187 727.98320313 1038.29234375 728.97265625 1037.9921875 C741.53578533 1033.87472326 753.92694538 1028.73006577 765.67578125 1022.68359375 C770.10227264 1020.44173971 774.57915521 1018.31286911 779.0625 1016.1875 C779.89700684 1015.78998535 780.73151367 1015.3924707 781.59130859 1014.98291016 C782.37715332 1014.61085449 783.16299805 1014.23879883 783.97265625 1013.85546875 C784.67656494 1013.52184326 785.38047363 1013.18821777 786.10571289 1012.84448242 C788 1012 788 1012 791 1011 C791 1010.34 791 1009.68 791 1009 C791.87011719 1008.72736328 791.87011719 1008.72736328 792.7578125 1008.44921875 C797.39147293 1006.9581894 801.69762355 1005.31666424 806 1003 C806 1002.34 806 1001.68 806 1001 C806.72574219 1000.88785156 807.45148437 1000.77570312 808.19921875 1000.66015625 C811.12563993 999.97038613 813.22287809 998.94489186 815.8125 997.4375 C816.60269531 996.98246094 817.39289062 996.52742187 818.20703125 996.05859375 C819.09455078 995.53458984 819.09455078 995.53458984 820 995 C820 994.34 820 993.68 820 993 C821.65 992.67 823.3 992.34 825 992 C825 991.34 825 990.68 825 990 C825.58378418 989.8772168 826.16756836 989.75443359 826.76904297 989.62792969 C830.59448605 988.55121272 833.7627357 986.32477185 837.125 984.25 C837.91471191 983.7648291 838.70442383 983.2796582 839.51806641 982.77978516 C847.60732942 977.73660772 855.30876696 972.20169681 862.95507812 966.51611328 C864.89296472 965.07935638 866.84243795 963.66021685 868.796875 962.24609375 C869.90663281 961.43541961 871.01603501 960.62425833 872.125 959.8125 C873.07632813 959.11769531 874.02765625 958.42289063 875.0078125 957.70703125 C875.99394531 956.86205078 875.99394531 956.86205078 877 956 C877 955.34 877 954.68 877 954 C877.804375 953.9071875 877.804375 953.9071875 878.625 953.8125 C882.17026157 952.59964736 884.2592392 950.55389074 887 948 C887 947.34 887 946.68 887 946 C887.804375 945.731875 888.60875 945.46375 889.4375 945.1875 C890.7059375 944.5996875 890.7059375 944.5996875 892 944 C892.33 943.01 892.66 942.02 893 941 C893.804375 940.690625 894.60875 940.38125 895.4375 940.0625 C898.13749343 939.27078859 898.13749343 939.27078859 899 937 C900.39851726 934.20296548 902.13690964 934.13191945 905 933 C907.81331378 930.60416349 907.81331378 930.60416349 910 928 C910 927.34 910 926.68 910 926 C910.54398438 925.773125 911.08796875 925.54625 911.6484375 925.3125 C914.69534616 923.61189982 917.09739753 921.37189466 919.625 919 C920.41015991 918.27067261 920.41015991 918.27067261 921.21118164 917.52661133 C931.71674541 907.82893707 931.71674541 907.82893707 941 897 C941 896.34 941 895.68 941 895 C941.556875 894.79375 942.11375 894.5875 942.6875 894.375 C945.97012371 892.42316968 947.70673246 890.05769006 950 887 C950 886.34 950 885.68 950 885 C950.61875 884.773125 951.2375 884.54625 951.875 884.3125 C954.22720631 883.15068028 954.22720631 883.15068028 955 880.5 C956.22142794 877.44643015 957.16131693 877.37355633 960 876 C960.165 875.34 960.33 874.68 960.5 874 C960.665 873.34 960.83 872.68 961 872 C961.61464111 871.69626465 962.22928223 871.3925293 962.86254883 871.07958984 C965.22254419 869.88759675 966.15773356 868.84526353 967.69921875 866.7265625 C968.18229492 866.07196045 968.66537109 865.4173584 969.16308594 864.74291992 C969.9176709 863.69454956 969.9176709 863.69454956 970.6875 862.625 C971.74837321 861.17554353 972.80957454 859.72632718 973.87109375 858.27734375 C974.39558105 857.55659668 974.92006836 856.83584961 975.46044922 856.09326172 C976.87689319 854.16738309 978.32042004 852.26818833 979.78515625 850.37890625 C980.20385986 849.8360498 980.62256348 849.29319336 981.05395508 848.73388672 C982.18436378 847.27236219 983.3186272 845.81382142 984.453125 844.35546875 C986.27446446 842.05173012 986.27446446 842.05173012 986 839 C986.66 839 987.32 839 988 839 C989.42031644 837.33962712 989.42031644 837.33962712 990.8203125 835.16796875 C991.35527344 834.36939453 991.89023437 833.57082031 992.44140625 832.74804688 C992.99699219 831.90306641 993.55257812 831.05808594 994.125 830.1875 C994.68832031 829.35412109 995.25164063 828.52074219 995.83203125 827.66210938 C996.36441406 826.85966797 996.89679687 826.05722656 997.4453125 825.23046875 C997.93531738 824.49207764 998.42532227 823.75368652 998.93017578 822.99291992 C1000.23648652 820.93644717 1000.23648652 820.93644717 1000 818 C1000.66 818 1001.32 818 1002 818 C1002.28875 817.030625 1002.5775 816.06125 1002.875 815.0625 C1004 812 1004 812 1006 811 C1007.17696804 809.13598411 1008.29298675 807.23319164 1009.375 805.3125 C1011.23007865 802.05555032 1013.0658059 798.90411141 1015.1875 795.8125 C1016.67340676 793.50678262 1017.69376233 791.50113422 1018.75 789 C1020.81114101 784.15508687 1023.41118009 779.65584147 1026.09472656 775.13671875 C1028.4059893 771.20284605 1030.26516504 767.21668101 1032 763 C1032.66304592 761.49839601 1033.32918652 759.9981501 1034 758.5 C1034.50466797 757.36304688 1034.50466797 757.36304688 1035.01953125 756.203125 C1035.63705943 754.81553181 1036.25885973 753.42982437 1036.88671875 752.046875 C1037.98816008 749.57534811 1038.94973712 747.26196332 1039.4609375 744.59765625 C1040.01388395 741.93309547 1040.86802968 739.68562123 1041.9375 737.1875 C1043.73356284 732.83123122 1044.97866564 728.59600462 1046 724 C1046.66 724 1047.32 724 1048 724 C1048 723.01 1048 722.02 1048 721 C1048.66 721 1049.32 721 1050 721 C1050.32613281 719.85402344 1050.65226562 718.70804688 1050.98828125 717.52734375 C1051.4294515 715.99732777 1051.87087106 714.46738365 1052.3125 712.9375 C1052.52583984 712.18533203 1052.73917969 711.43316406 1052.95898438 710.65820312 C1054.00550673 707.05004395 1055.12006197 703.58802408 1056.65625 700.15625 C1058.0731112 696.82827369 1058.2615878 694.57503324 1058 691 C1058.66 691 1059.32 691 1060 691 C1064.85650952 671.812301 1069.13379372 652.41136814 1073 633 C1073.165 632.22140625 1073.33 631.4428125 1073.5 630.640625 C1074.49790537 625.86938993 1075.29213667 621.15407374 1075.75390625 616.30078125 C1075.94048094 614.55645599 1076.17574945 612.81725373 1076.43359375 611.08203125 C1081.24438142 577.76057738 1081.6510768 544.02185375 1080.15283203 510.44775391 C1080.01203568 507.27151423 1079.89129181 504.09526458 1079.77734375 500.91796875 C1079.70690044 499.15359868 1079.63538275 497.38927098 1079.5625 495.625 C1079.53559082 494.87726318 1079.50868164 494.12952637 1079.48095703 493.35913086 C1079.25968065 488.73508968 1078.53005568 484.38210692 1077.56860352 479.85742188 C1076.52282083 474.60201587 1075.79290903 469.2939655 1074.99771118 463.99591064 C1072.90779463 450.12824005 1070.43596393 436.38089909 1067.55322266 422.65332031 C1066.6749444 418.44099547 1065.83691398 414.22070804 1065 410 C1064.34 410 1063.68 410 1063 410 C1062.95101563 409.26394531 1062.90203125 408.52789062 1062.8515625 407.76953125 C1062.77679687 406.79371094 1062.70203125 405.81789063 1062.625 404.8125 C1062.55539062 403.84957031 1062.48578125 402.88664062 1062.4140625 401.89453125 C1061.99715733 398.98012813 1061.14567268 396.69652228 1060 394 C1060 393.34 1060 392.68 1060 392 C1059.34 392 1058.68 392 1058 392 C1058.0825 391.21625 1058.165 390.4325 1058.25 389.625 C1057.96644964 385.51351978 1056.76251946 382.69709903 1055.15625 378.9453125 C1052.99561964 373.44154461 1051.54451575 367.70156345 1050 362 C1049.34 362 1048.68 362 1048 362 C1047.92523437 361.44054687 1047.85046875 360.88109375 1047.7734375 360.3046875 C1045.99183786 349.44042302 1040.95320698 339.72951372 1036 330 C1035.33333333 328.33333333 1034.66666667 326.66666667 1034 325 C1033.34 324.01 1032.68 323.02 1032 322 C1031.33333333 320 1030.66666667 318 1030 316 C1028.31001897 311.79013654 1026.58486528 307.87202358 1024.05078125 304.09375 C1022.08537776 301.12879845 1020.57702268 298.21384124 1019.0625 295 C1015.75597061 288.19193341 1012.01047621 281.65436396 1008.1875 275.125 C1007.61201416 274.13113281 1007.03652832 273.13726562 1006.44360352 272.11328125 C1005.62653931 270.73076172 1005.62653931 270.73076172 1004.79296875 269.3203125 C1004.3033667 268.48773926 1003.81376465 267.65516602 1003.30932617 266.79736328 C1002.87724854 266.2042334 1002.4451709 265.61110352 1002 265 C1001.34 265 1000.68 265 1000 265 C999.89002686 264.42902588 999.78005371 263.85805176 999.66674805 263.26977539 C998.91085922 260.69654272 997.81946627 258.91365062 996.33203125 256.68359375 C995.77531738 255.84610596 995.21860352 255.00861816 994.64501953 254.14575195 C994.04028809 253.25202881 993.43555664 252.35830566 992.8125 251.4375 C991.87833252 250.04760864 991.87833252 250.04760864 990.92529297 248.62963867 C984.55265607 239.21947952 977.87184587 230.05050826 971 221 C970.55301758 220.40960938 970.10603516 219.81921875 969.64550781 219.2109375 C966.47373879 214.9778182 966.47373879 214.9778182 963 211 C962.34 211 961.68 211 961 211 C960.731875 210.195625 960.46375 209.39125 960.1875 208.5625 C959.5996875 207.2940625 959.5996875 207.2940625 959 206 C958.01 205.67 957.02 205.34 956 205 C955.690625 204.195625 955.38125 203.39125 955.0625 202.5625 C954.27078859 199.86250657 954.27078859 199.86250657 952 199 C949.20296548 197.60148274 949.13191945 195.86309036 948 193 C945.60416349 190.18668622 945.60416349 190.18668622 943 188 C942.34 188 941.68 188 941 188 C940.773125 187.45601562 940.54625 186.91203125 940.3125 186.3515625 C938.61189982 183.30465384 936.37189466 180.90260247 934 178.375 C933.51378174 177.85156006 933.02756348 177.32812012 932.52661133 176.78881836 C922.82893707 166.28325459 922.82893707 166.28325459 912 157 C911.34 157 910.68 157 910 157 C909.79375 156.443125 909.5875 155.88625 909.375 155.3125 C907.42316968 152.02987629 905.05769006 150.29326754 902 148 C901.34 148 900.68 148 900 148 C899.773125 147.38125 899.54625 146.7625 899.3125 146.125 C898.15068028 143.77279369 898.15068028 143.77279369 895.5 143 C892.44643015 141.77857206 892.37355633 140.83868307 891 138 C890.34 137.835 889.68 137.67 889 137.5 C888.34 137.335 887.68 137.17 887 137 C886.71125 136.401875 886.4225 135.80375 886.125 135.1875 C884.48233306 131.9934254 882.04916382 130.7786789 879 129 C878.34 129 877.68 129 877 129 C876.67 128.01 876.34 127.02 876 126 C874.3524762 124.45579956 874.3524762 124.45579956 872.2734375 122.99609375 C871.49572998 122.42487793 870.71802246 121.85366211 869.91674805 121.26513672 C868.65858276 120.36045654 868.65858276 120.36045654 867.375 119.4375 C866.52139893 118.81633301 865.66779785 118.19516602 864.78833008 117.55517578 C857.32757084 112.15962811 849.71131423 107.02788986 842 102 C840.40091797 100.87464844 840.40091797 100.87464844 838.76953125 99.7265625 C836.11963791 97.73548484 836.11963791 97.73548484 833 98 C833 97.34 833 96.68 833 96 C830.09451118 93.95830515 828.59857954 93 825 93 C825 92.34 825 91.68 825 91 C822.525 90.505 822.525 90.505 820 90 C820 89.34 820 88.68 820 88 C818.56720703 87.23816406 818.56720703 87.23816406 817.10546875 86.4609375 C815.79944843 85.76568273 814.49346125 85.07036571 813.1875 84.375 C812.50187988 84.01035645 811.81625977 83.64571289 811.10986328 83.27001953 C807.17712046 81.17457772 803.26805493 79.04357578 799.375 76.875 C789.63470274 70.86089979 789.63470274 70.86089979 779 68 C779 67.34 779 66.68 779 66 C777.41800369 65.35089846 775.83434276 64.70585306 774.25 64.0625 C773.36828125 63.70285156 772.4865625 63.34320313 771.578125 62.97265625 C769.10895955 61.9641631 769.10895955 61.9641631 766.859375 61.55859375 C765 61 765 61 763.61914062 59.57470703 C761.87508024 57.87850837 760.47618236 57.1567241 758.234375 56.24609375 C757.50863281 55.94896484 756.78289063 55.65183594 756.03515625 55.34570312 C755.28105469 55.04599609 754.52695312 54.74628906 753.75 54.4375 C752.64205078 53.98213867 752.64205078 53.98213867 751.51171875 53.51757812 C747.0594092 51.71545283 742.62857104 50.27461918 738 49 C737.34 48.67 736.68 48.34 736 48 C734.96875 47.87625 733.9375 47.7525 732.875 47.625 C727.34339088 46.73280498 722.66586237 44.84864687 717.6875 42.3125 C715.04919483 40.78058235 715.04919483 40.78058235 712 41 C712 40.34 712 39.68 712 39 C710.02 39 708.04 39 706 39 C706 38.34 706 37.68 706 37 C705.1646875 36.83564453 705.1646875 36.83564453 704.3125 36.66796875 C700.4478079 35.86500063 696.78382804 34.99541312 693.125 33.5 C690.117265 32.30859643 687.25627056 31.62093067 684.06640625 31.09375 C677.59145186 29.96111747 671.21121016 28.49859647 664.8125 27 C663.68908203 26.73960938 662.56566406 26.47921875 661.40820312 26.2109375 C652.45269617 24.12850605 652.45269617 24.12850605 648.046875 22.94140625 C642.26661511 21.4802871 636.33246173 20.77781162 630.4375 19.9375 C629.24447266 19.76412109 628.05144531 19.59074219 626.82226562 19.41210938 C623.54876295 18.93718764 620.27459949 18.46729173 617 18 C615.85917969 17.83121338 614.71835937 17.66242676 613.54296875 17.48852539 C607.23815675 16.61918079 600.89989066 16.07248929 594.5625 15.5 C593.82355499 15.43307953 593.08460999 15.36615906 592.32327271 15.29721069 C568.82872 13.20284382 545.25928857 12.5624452 521.6875 13.4375 Z " transform="translate(0,0)" style="fill: #FEFEFE;"/><path d="M0 0 C-1.45287661 1.33927721 -2.91247259 2.67126847 -4.375 4 C-5.18710937 4.7425 -5.99921875 5.485 -6.8359375 6.25 C-9 8 -9 8 -11 8 C-11 8.66 -11 9.32 -11 10 C-12.57633385 11.39053024 -14.21404915 12.71172788 -15.875 14 C-20.83429044 17.95850818 -25.28777236 22.17567419 -29.72265625 26.72265625 C-31.64530354 28.64530354 -33.58958435 30.40087778 -35.6875 32.125 C-38.85835795 34.76368599 -41.45061007 37.72437284 -44.1171875 40.86328125 C-46.15639232 43.17748257 -48.30243458 45.33595677 -50.5 47.5 C-54.54777525 51.50688864 -58.31800737 55.65732724 -62 60 C-62.845625 60.99128906 -63.69125 61.98257813 -64.5625 63.00390625 C-69.62526487 68.95176364 -74.63729899 74.93812434 -79.55859375 81.00390625 C-81.39155261 83.25331336 -83.23813588 85.48760563 -85.09765625 87.71484375 C-92.357832 96.45939825 -98.86326707 105.43890228 -105 115 C-107.36028352 118.58495894 -109.78519264 122.09423811 -112.3125 125.5625 C-115.71655392 130.40365983 -118.49340206 135.45454685 -121.23828125 140.69140625 C-122.97446091 143.95203634 -124.80717302 147.13318381 -126.6875 150.3125 C-130.64228451 157.03651841 -133.97298865 163.81084805 -137 171 C-137.62264311 172.39688627 -138.24781744 173.79264598 -138.875 175.1875 C-145.9119925 191.02073311 -151.86275853 206.89851961 -156.55224609 223.57519531 C-157.75937382 227.8513517 -158.96819654 232.05820577 -160.60546875 236.19140625 C-162.16545963 240.19605148 -162.93121472 244.20777498 -163.625 248.4375 C-164.87985437 255.87985437 -164.87985437 255.87985437 -166 257 C-167.71745321 265.1109975 -168.66636575 273.42386452 -169.68066406 281.6472168 C-169.92079554 283.41644234 -170.20030896 285.18039208 -170.49902344 286.94067383 C-172.44714621 299.2918069 -172.3063038 311.5879201 -172.25 324.0625 C-172.2478952 325.20886932 -172.24579041 326.35523865 -172.24362183 327.53634644 C-173.3881116 356.12039725 -173.3881116 356.12039725 -169 384 C-168.93259135 385.56118428 -168.91485544 387.1250252 -168.9375 388.6875 C-168.94652344 389.49574219 -168.95554688 390.30398438 -168.96484375 391.13671875 C-168.98224609 392.05904297 -168.98224609 392.05904297 -169 393 C-168.34 393 -167.68 393 -167 393 C-166.96132813 393.804375 -166.96132813 393.804375 -166.921875 394.625 C-165.99495298 407.43337706 -161.85660675 419.82488274 -158 432 C-157.03271161 435.24326106 -156.12258865 438.4732403 -155.35546875 441.76953125 C-154.0237237 447.43122812 -152.46969213 452.54087334 -149.96875 457.7890625 C-148.93001536 460.15972302 -148.20470229 462.51056256 -147.5 465 C-145.61884606 471.55369761 -142.77387453 477.50106281 -139.6875 483.5625 C-137.82741598 487.22028718 -136.16000003 490.92142032 -134.55932617 494.69677734 C-131.4695255 501.97351318 -128.01647152 508.81654712 -123.9921875 515.62109375 C-122.49388061 518.16233976 -121.07472833 520.71004461 -119.67578125 523.3046875 C-116.88793048 528.34308067 -113.65069186 533.00165074 -110.3125 537.6875 C-109.69890625 538.55528076 -109.0853125 539.42306152 -108.453125 540.31713867 C-107.21767589 542.06279087 -105.98024615 543.8070432 -104.74072266 545.54980469 C-103.17793104 547.74954896 -101.6240924 549.95520873 -100.07421875 552.1640625 C-95.96242159 558.00558202 -91.80732732 563.70401578 -87 569 C-85.85250122 570.31104417 -84.70675907 571.62362731 -83.5625 572.9375 C-82.97855469 573.60265625 -82.39460937 574.2678125 -81.79296875 574.953125 C-80.58280151 576.33466668 -79.37716806 577.72019111 -78.17578125 579.109375 C-77.58152344 579.79515625 -76.98726562 580.4809375 -76.375 581.1875 C-75.84648437 581.79980469 -75.31796875 582.41210938 -74.7734375 583.04296875 C-70.19173828 588.09898485 -65.16290949 592.71318641 -60.1875 597.375 C-59.51396484 598.00921875 -58.84042969 598.6434375 -58.14648438 599.296875 C-50.38829202 606.57250037 -42.38857762 613.46069713 -34 620 C-33.42749512 620.45036621 -32.85499023 620.90073242 -32.26513672 621.36474609 C-23.4626533 628.26137072 -14.47678732 634.3373335 -4.7421875 639.84375 C-2.42430629 641.15523642 -0.24760439 642.50588705 1.96875 643.99609375 C5.65486396 646.43291909 9.46964667 648.50211341 13.375 650.5625 C14.09171875 650.94857422 14.8084375 651.33464844 15.546875 651.73242188 C19.65636256 653.90956014 23.73958447 655.71035008 28.11523438 657.27807617 C31.05653276 658.40468489 33.78447606 659.89739882 36.5625 661.375 C42.67883266 664.53509134 48.78577955 666.75459945 55.36328125 668.81640625 C58.74442503 669.91682147 61.97007481 671.19482524 65.25 672.5625 C73.54719133 675.84399244 82.26362615 677.34866851 91 679 C91 679.66 91 680.32 91 681 C92.2684375 681.05607422 92.2684375 681.05607422 93.5625 681.11328125 C100.36048945 681.50725564 105.77229094 682.26854866 112 685 C116.24619062 686.49062076 120.53108262 687.70436748 124.875 688.875 C129.64744739 690.21709433 133.80880043 691.75545494 138.140625 694.125 C140.87616006 695.41231062 143.66823424 695.95933262 146.62890625 696.5078125 C149.80573431 697.16725292 152.88309932 698.09892069 156 699 C159.05827739 699.82860931 162.12262374 700.63368409 165.1875 701.4375 C166.43237183 701.76463989 166.43237183 701.76463989 167.70239258 702.09838867 C174.12310978 703.78096917 180.55383237 705.41740795 187 707 C187 707.66 187 708.32 187 709 C187.63055298 708.97158524 188.26110596 708.94317047 188.9107666 708.91389465 C195.56916614 708.74925029 201.69553389 709.52279678 208.23303223 710.73725891 C228.41371093 714.45880335 248.34804076 714.78804084 268.81866455 714.80688477 C273.37271876 714.81642183 277.92654925 714.8539546 282.48046875 714.88867188 C291.32031795 714.95216759 300.15993351 714.98628733 309 715 C309 715.66 309 716.32 309 717 C310.6396875 716.938125 310.6396875 716.938125 312.3125 716.875 C318.40531265 716.875 324.77853169 717.67837198 330.4375 720 C333.38777601 721.15132722 336.18527882 721.64388905 339.3125 722.125 C340.38113281 722.29257812 341.44976563 722.46015625 342.55078125 722.6328125 C343.35902344 722.75398437 344.16726563 722.87515625 345 723 C345 723.66 345 724.32 345 725 C345.85271484 725.05607422 345.85271484 725.05607422 346.72265625 725.11328125 C352.06774959 725.56837267 356.06174654 726.80522069 361 729 C363.32189536 729.4054103 365.65515344 729.76072994 368 730 C368 730.66 368 731.32 368 732 C372.72817512 732.05017655 377.45618863 732.08607867 382.18457031 732.10986328 C383.78648586 732.11979913 385.38838389 732.13335247 386.99023438 732.15087891 C404.42789988 732.33661845 419.09776394 729.86740314 435.4375 723.5 C453.00880733 716.67844679 453.00880733 716.67844679 461 717 C459.66356953 720.06786501 458.31089429 721.81583908 455.6875 723.875 C453.28713475 725.84073121 451.547997 727.55631138 449.5625 730 C447.50061846 732.41391009 446.00730024 733.83481903 443.5 735.625 C439.56665957 738.43770947 436.12840028 741.62090023 432.625 744.9375 C427.39978825 749.85623226 421.98096956 754.02296354 416 758 C412.12570935 760.78244511 408.37233988 763.63656442 404.8125 766.8125 C397.61993046 773.06690829 389.50902719 778.31340561 381.1015625 782.76171875 C378.75954702 784.14167955 376.73568325 785.72583284 374.625 787.4375 C367.61949776 793.05408527 359.52913013 796.77020934 351.515625 800.7265625 C348.89353083 802.05389588 346.32218894 803.45352716 343.75 804.875 C331.85141171 811.36813544 319.88965544 816.77821176 307.26708984 821.71191406 C306.21344238 822.1240918 305.15979492 822.53626953 304.07421875 822.9609375 C303.12119873 823.33009277 302.16817871 823.69924805 301.1862793 824.07958984 C299.06232138 824.81189758 299.06232138 824.81189758 298 826 C296.33382885 826.04063832 294.66611905 826.042721 293 826 C293 826.66 293 827.32 293 828 C291.87464844 828.30292969 290.74929688 828.60585938 289.58984375 828.91796875 C278.06267533 832.05164148 266.67087308 835.42887214 255.5 839.6875 C248.89931442 842.16275709 242.42742318 843.49166476 235.4765625 844.53515625 C233.06530552 844.74651891 233.06530552 844.74651891 232 846 C230.19863726 846.29875803 228.38750711 846.53908209 226.57421875 846.75390625 C225.46755859 846.88603516 224.36089844 847.01816406 223.22070312 847.15429688 C222.05474609 847.28900391 220.88878906 847.42371094 219.6875 847.5625 C217.9559668 847.77036133 217.9559668 847.77036133 216.18945312 847.98242188 C211.75473124 848.50491087 207.47013593 849 203 849 C203 849.66 203 850.32 203 851 C192.25704615 852.6000144 181.85859801 853.25991325 171 853 C171 853.66 171 854.32 171 855 C162.52856584 855.74853853 154.1322505 856.15894198 145.62890625 856.16796875 C144.50411362 856.17129715 143.37932098 856.17462555 142.22044373 856.17805481 C139.86172896 856.1830762 137.50300721 856.18546463 135.14428711 856.18530273 C131.57458627 856.18749259 128.00519344 856.20570937 124.43554688 856.22460938 C113.06764518 856.25218355 102.20624532 856.02370818 91 854 C88.53958446 853.72032915 86.09696261 853.53979751 83.625 853.375 C82.54476563 853.30023437 81.46453125 853.22546875 80.3515625 853.1484375 C79.57554687 853.09945312 78.79953125 853.05046875 78 853 C78 852.34 78 851.68 78 851 C77.175 851.03480469 76.35 851.06960938 75.5 851.10546875 C68.91274137 851.25985762 62.94418777 850.96725713 56.46875 849.6875 C55.43760071 849.48558296 55.43760071 849.48558296 54.38562012 849.27958679 C52.25562314 848.86003135 50.12778056 848.43063843 48 848 C46.71222656 847.74452393 45.42445313 847.48904785 44.09765625 847.22583008 C40.22633133 846.44596812 36.36101092 845.64165869 32.5 844.8125 C31.81533661 844.66548645 31.13067322 844.5184729 30.42526245 844.36700439 C18.17168715 841.70673415 6.43460779 838.08708013 -5.38574219 833.89599609 C-10.05820145 832.29458355 -14.80445813 830.94975428 -19.56420898 829.63427734 C-23.90976597 828.41012902 -27.87830991 826.81178557 -32 825 C-33.38807189 824.51867209 -34.78319012 824.05666411 -36.1875 823.625 C-44.70211595 820.84471724 -52.81765884 817.19643983 -60.77734375 813.109375 C-62.60387017 812.19771682 -64.48447382 811.39521437 -66.375 810.625 C-70.72733127 808.67395495 -74.70729052 806.26972969 -78.8046875 803.8359375 C-82.8969261 801.48465126 -87.10023227 799.41000842 -91.33203125 797.32421875 C-98.98584325 793.52532817 -105.94287411 788.7988456 -113 784 C-114.20462891 783.18208984 -114.20462891 783.18208984 -115.43359375 782.34765625 C-126.26836055 774.87477325 -136.85672722 766.95407375 -146.95385742 758.51049805 C-149.10762525 756.73545641 -151.27043561 754.99249272 -153.46582031 753.27099609 C-162.98019623 745.76520207 -171.71929097 737.72384386 -180.23193359 729.10424805 C-182.28172969 727.03039797 -184.34502982 724.9706837 -186.41015625 722.91210938 C-187.73777919 721.5789212 -189.06463214 720.24496571 -190.390625 718.91015625 C-190.99787415 718.30381851 -191.60512329 717.69748077 -192.23077393 717.07276917 C-195.63916878 713.60724582 -198.37088305 710.11477202 -201 706 C-202.72972174 704.20935391 -204.50284761 702.45982716 -206.3125 700.75 C-210.47005319 696.71654264 -213.92041768 692.57790908 -217.11328125 687.74609375 C-219.91057214 683.6746745 -223.00405968 679.84874739 -226.09375 675.99682617 C-229.7065741 671.46582938 -232.99566872 666.86518666 -235.75 661.75 C-237.45085128 658.69378285 -239.48999158 656.16610368 -241.75 653.5 C-246.44593048 647.76052941 -249.61915433 641.50535105 -252.98242188 634.94335938 C-254.65546869 631.7481932 -256.44841431 628.62399022 -258.25 625.5 C-258.87390625 624.4171875 -259.4978125 623.334375 -260.140625 622.21875 C-260.75421875 621.1565625 -261.3678125 620.094375 -262 619 C-262.70325772 617.76049196 -263.40638219 616.5209083 -264.109375 615.28125 C-265.33894775 613.14728077 -266.6338517 611.04922245 -268 609 C-268 607.68 -268 606.36 -268 605 C-268.66 605 -269.32 605 -270 605 C-272.38449069 600.39546626 -274.46520658 595.88385052 -276.21484375 591.0078125 C-277.04447295 588.88627315 -278.01944837 586.89952088 -279.0625 584.875 C-281.44635849 580.2168857 -283 576.3014144 -283 571 C-283.66 571 -284.32 571 -285 571 C-285.48919922 569.49759766 -285.48919922 569.49759766 -285.98828125 567.96484375 C-286.42952315 566.6223418 -286.87093871 565.27989693 -287.3125 563.9375 C-287.52583984 563.28072266 -287.73917969 562.62394531 -287.95898438 561.94726562 C-289.04192371 558.66612106 -290.20498525 555.52559107 -291.578125 552.34765625 C-292.84085207 549.37469718 -293.71191783 546.63667819 -294.4375 543.5 C-295.50579342 539.01648875 -296.65355674 534.56928754 -297.875 530.125 C-299.89557722 522.63332138 -301.60226905 515.08244104 -303.24951172 507.50048828 C-303.44818848 506.60056152 -303.64686523 505.70063477 -303.8515625 504.7734375 C-304.02510254 503.97341309 -304.19864258 503.17338867 -304.37744141 502.34912109 C-304.95245263 499.96044369 -304.95245263 499.96044369 -305.9934082 497.63720703 C-307.93607461 492.54754356 -308.42414416 487.04528447 -309.23217773 481.67724609 C-309.55338876 479.5600547 -309.89215166 477.44623027 -310.23242188 475.33203125 C-313.06929611 457.11318841 -313.20268884 438.71567708 -313.1875 420.3125 C-313.1882251 419.40164642 -313.1889502 418.49079285 -313.18969727 417.55233765 C-313.18814022 399.6472637 -312.34392665 381.85170653 -311 364 C-310.34 364 -309.68 364 -309 364 C-309.02707031 362.98550781 -309.05414063 361.97101563 -309.08203125 360.92578125 C-309.00288174 357.13791186 -308.49574221 353.88054517 -307.6875 350.1875 C-306.2526206 343.39392406 -305.0680569 336.58828646 -304.00268555 329.72729492 C-303.10538081 324.10538081 -303.10538081 324.10538081 -302 323 C-301.46349901 320.52488197 -301.03607886 318.03718816 -300.59765625 315.54296875 C-300 313 -300 313 -298.9921875 311.00390625 C-297.7949574 308.58587852 -297.46218328 306.41455522 -297.0625 303.75 C-296.22493596 298.84148516 -294.8687313 294.59076456 -293 290 C-292.30525394 288.12767279 -291.61815539 286.25249554 -290.9375 284.375 C-290.42703125 282.97507812 -290.42703125 282.97507812 -289.90625 281.546875 C-289.20889306 279.58706152 -288.5621506 277.60918426 -287.9375 275.625 C-287 273 -287 273 -285.5625 270.625 C-283.99599318 267.99326854 -283.03932566 265.37507419 -282.015625 262.5 C-280.43737055 258.61506597 -278.4618894 254.9300581 -276.54345703 251.20532227 C-274.92427447 248.01262203 -273.56702709 244.95194859 -272.625 241.5 C-271.149815 236.51424817 -268.21589667 232.3864808 -265.31103516 228.13476562 C-262.6736703 224.24060999 -260.82518867 220.35545023 -259 216 C-257.94068113 214.20197935 -256.83714763 212.42915009 -255.6875 210.6875 C-252.71615841 206.1423546 -249.94218353 201.52280551 -247.26171875 196.80078125 C-246.84535156 196.20652344 -246.42898437 195.61226562 -246 195 C-245.34 195 -244.68 195 -244 195 C-243.72671875 194.26007813 -243.4534375 193.52015625 -243.171875 192.7578125 C-241.16793338 188.04186988 -238.0060686 184.12100084 -235 180 C-234.48791992 179.29407715 -233.97583984 178.5881543 -233.44824219 177.86083984 C-224.15286506 165.06173872 -214.58006958 152.77005696 -204 141 C-200.73974128 137.31272194 -197.49353617 133.62080585 -194.375 129.8125 C-192.0380408 127.04504832 -189.57157981 124.5498299 -187 122 C-185.58338653 120.56721231 -184.16682344 119.13437401 -182.7515564 117.70025635 C-180.54445937 115.465922 -178.33161845 113.23730877 -176.11865234 111.00878906 C-174.96512128 109.84524414 -173.81339703 108.67990489 -172.66357422 107.51269531 C-166.16897361 100.92288785 -159.65331811 94.63780185 -152.3815918 88.8996582 C-149.32423407 86.46098055 -146.44012692 83.85674838 -143.55859375 81.21484375 C-142 80 -142 80 -140 80 C-139.62875 79.11054688 -139.62875 79.11054688 -139.25 78.203125 C-137.80238941 75.65171134 -136.3558145 74.48320638 -134 72.75 C-132.7934375 71.84507812 -132.7934375 71.84507812 -131.5625 70.921875 C-130.716875 70.28765625 -129.87125 69.6534375 -129 69 C-127.32824871 67.67304741 -125.66158882 66.33965598 -124 65 C-87.95468373 36.13037169 -87.95468373 36.13037169 -72.4453125 29.98828125 C-69.94452995 28.97758159 -68.05799308 27.76041707 -65.875 26.1875 C-61.69056799 23.32848509 -57.41681999 21.24372608 -52.77734375 19.2265625 C-49.21215084 17.65206099 -45.75537711 15.89281066 -42.2890625 14.11328125 C-38.66205289 12.34929194 -34.92433415 10.96501412 -31.125 9.625 C-28.39033429 8.61614392 -25.98207791 7.46188118 -23.5 5.9375 C-20.44060761 4.11017061 -17.59045411 3.25172993 -14.12109375 2.5078125 C-10.98398632 1.75675547 -7.99958422 0.61577393 -4.98046875 -0.51171875 C-3 -1 -3 -1 0 0 Z " transform="translate(401,81)" style="fill: #FCFCFC;"/><path d="M0 0 C0.0154612 1.03331703 0.0154612 1.03331703 0.03123474 2.08750916 C0.13024665 8.66039245 0.23288324 15.23320875 0.33933926 21.80597591 C0.39391493 25.18304307 0.44721072 28.56011916 0.49731445 31.93725586 C0.6948505 45.09413177 0.90483582 58.21742955 1.78393555 71.34790039 C2.14679483 77.48124733 2.18415076 83.60749398 2.1875 89.75 C2.19974609 90.94753906 2.21199219 92.14507812 2.22460938 93.37890625 C2.2376994 101.43363527 1.45361122 109.08177075 0 117 C-0.23360229 118.30771362 -0.23360229 118.30771362 -0.47192383 119.6418457 C-1.32559529 124.23905525 -2.85940474 127.91749995 -5.046875 132.03125 C-7.59559942 137.2958283 -8.78382012 143.21932661 -8 149 C-6.24196403 152.81005788 -4.110783 156.37723769 -2 160 C-0.68801362 162.53426429 0.57603493 165.08799033 1.8359375 167.6484375 C2.59545717 169.18276918 3.37086276 170.70936837 4.1640625 172.2265625 C6.0304461 175.81163028 7.49125283 178.93002265 8 183 C8.66 183 9.32 183 10 183 C10.7425 184.670625 10.7425 184.670625 11.5 186.375 C17.2597821 197.87413944 25.69868076 205.31004488 37.1875 210.5625 C38.02450439 210.95236084 38.86150879 211.34222168 39.72387695 211.74389648 C45.70174403 214.49451262 51.73024706 216.98522546 58 219 C58 219.66 58 220.32 58 221 C59.11375 221.1546875 59.11375 221.1546875 60.25 221.3125 C63 222 63 222 64.86328125 223.421875 C67.16569734 225.12237975 69.25101825 225.9730158 71.9375 226.9375 C75.93983972 228.47416474 78.70841861 230.22814199 82 233 C83.175625 233.556875 84.35125 234.11375 85.5625 234.6875 C90.97907097 237.28336609 95.5899346 240.99158811 100.30053711 244.68139648 C101.53285595 245.63754561 102.77757594 246.57778017 104.02954102 247.50805664 C110.19572696 252.15015396 115.63520121 257.33467554 121.0625 262.8125 C121.92810547 263.67037109 122.79371094 264.52824219 123.68554688 265.41210938 C124.50216797 266.23130859 125.31878906 267.05050781 126.16015625 267.89453125 C126.89886963 268.63550049 127.63758301 269.37646973 128.39868164 270.13989258 C130 272 130 272 130 274 C130.66 274 131.32 274 132 274 C132 274.99 132 275.98 132 277 C132.99 277.33 133.98 277.66 135 278 C136.65625 279.828125 136.65625 279.828125 138.5 282.25 C140.87670051 285.32210548 143.27356837 288.34828055 145.828125 291.2734375 C154.24692658 300.91543563 154.24692658 300.91543563 156.3125 305.375 C157.72348904 308.40601349 158.64785038 309.8936887 160.8125 312.25 C165.21971449 317.11935208 171 324.27614112 171 331 C171.99 331.33 172.98 331.66 174 332 C175.28125 334.0390625 175.28125 334.0390625 176.5 336.625 C176.9021875 337.46289062 177.304375 338.30078125 177.71875 339.1640625 C180.30395199 344.88618642 182.71534642 350.67713817 185.0625 356.5 C185.31837891 357.12519531 185.57425781 357.75039063 185.83789062 358.39453125 C187.50709368 362.53964732 188.81044378 366.69587956 190 371 C190.34804688 371.95390625 190.69609375 372.9078125 191.0546875 373.890625 C192.25298982 377.83214832 192.72541877 381.65891238 193.125 385.75 C193.20919189 386.6054541 193.29338379 387.4609082 193.38012695 388.34228516 C195.03857887 407.22544889 195.75318774 427.89754609 190.69921875 446.2890625 C189.77942825 449.85517764 189.35207763 453.33839262 189 457 C188.34 457 187.68 457 187 457 C187.0825 457.969375 187.165 458.93875 187.25 459.9375 C187.23425249 463.91374593 185.97555566 466.62259567 184.27734375 470.1640625 C179.93941653 479.79505688 176.87957204 489.84000717 174.7109375 500.16015625 C174.0480668 502.80799691 173.19307186 504.99304826 172 507.4375 C169.15351311 513.28374616 168.19204974 519.65143207 167 526 C166.34 526 165.68 526 165 526 C165.08743729 528.87638518 165.1943735 531.74984562 165.3125 534.625 C165.33505859 535.43324219 165.35761719 536.24148438 165.38085938 537.07421875 C165.60598457 542.10883683 166.37396754 545.57402713 169 550 C169.37125 550.845625 169.7425 551.69125 170.125 552.5625 C175.18967226 559.14657394 183.14355363 560.90247311 191 562 C220.95581057 564.4126989 254.41602214 555.17704477 278 536 C280.52636098 533.47363902 282.75933373 530.77907879 285 528 C286.16211086 526.6834645 287.3288371 525.37098952 288.5 524.0625 C294.90239507 516.70685945 300.40261987 508.98174251 305.60546875 500.74609375 C307.62221339 497.56382245 309.71930245 494.44357578 311.83984375 491.32983398 C319.22433393 480.45650888 325.20620043 469.26063944 330 457 C330.66 457 331.32 457 332 457 C332.66 453.7 333.32 450.4 334 447 C334.66 447 335.32 447 336 447 C335.9071875 445.700625 335.9071875 445.700625 335.8125 444.375 C336 441 336 441 337.41015625 438.3125 C339.27990442 434.41680848 339.96153975 430.86209844 340.625 426.625 C340.74617187 425.90828125 340.86734375 425.1915625 340.9921875 424.453125 C342.32323061 416.43793063 343.15361399 408.58923426 343.31640625 400.46875 C343.33718735 399.59222778 343.35796844 398.71570557 343.37937927 397.81262207 C343.44420883 395.04181958 343.50344658 392.27093099 343.5625 389.5 C343.60574873 387.60936648 343.64936493 385.71874132 343.69335938 383.828125 C343.79982085 379.21883584 343.90127119 374.60946101 344 370 C343.34 370 342.68 370 342 370 C341.54074888 367.87519816 341.08265412 365.75014638 340.625 363.625 C340.21121094 361.70494141 340.21121094 361.70494141 339.7890625 359.74609375 C339.1540526 356.73136854 338.56451698 353.71579873 338 350.6875 C336.58117462 343.57011367 334.11057044 337.07329865 331.08984375 330.49609375 C329.84210981 327.63838053 328.76874358 324.73717527 327.6875 321.8125 C323.61541535 309.41308339 323.61541535 309.41308339 316 300 C315.02566837 298.3157387 314.05542611 296.62884741 313.11523438 294.92529297 C311.39823315 291.96113543 309.34940983 289.26103773 307.25 286.5625 C306.81461914 286.00046875 306.37923828 285.4384375 305.93066406 284.859375 C299.16834633 276.26446423 291.57354195 268.4490943 281.625 263.6875 C280.39307061 263.09017065 279.16130646 262.49250041 277.9296875 261.89453125 C277.28999023 261.58725098 276.65029297 261.2799707 275.99121094 260.96337891 C272.55959329 259.30310877 269.15679581 257.58545757 265.75 255.875 C264.40244347 255.20162332 263.05478987 254.52844087 261.70703125 253.85546875 C259.47243048 252.73845259 257.24095864 251.61601437 255.01171875 250.48828125 C251.4185879 248.67263243 247.85012292 246.90426099 244.125 245.375 C241.31762583 244.13975536 239.42377958 242.81783468 237 241 C236.01 240.608125 235.02 240.21625 234 239.8125 C224.04333209 235.69764581 215.67145652 228.39350519 208 221 C207.28972656 220.32066406 206.57945312 219.64132812 205.84765625 218.94140625 C196.46923457 209.08712385 195.60841789 196.20254683 195.78125 183.375 C196.0225936 176.26743107 197.68636201 170.01000153 203 165 C208.91186798 161.97197006 216.23253018 161.91367435 222.546875 163.734375 C234.37463411 168.93256213 242.38922929 179.65162706 247.9296875 190.91015625 C248.28071533 191.62147705 248.63174316 192.33279785 248.9934082 193.06567383 C249.69250223 194.49403515 250.3815958 195.92734591 251.05932617 197.3659668 C252.94489516 201.27815684 254.78927412 203.99664839 258 207 C258 207.66 258 208.32 258 209 C258.72574219 209.28101563 259.45148438 209.56203125 260.19921875 209.8515625 C262.80878959 210.92159573 265.29819007 212.09956653 267.8125 213.375 C268.68777344 213.81714844 269.56304688 214.25929688 270.46484375 214.71484375 C271.71974609 215.35099609 271.71974609 215.35099609 273 216 C274.2911629 216.64683989 275.58279424 217.29274598 276.875 217.9375 C277.5246875 218.26492188 278.174375 218.59234375 278.84375 218.9296875 C280.39821946 219.7012901 281.96198232 220.45426943 283.53125 221.1953125 C290.00265307 224.30656397 296.17046116 227.78528989 302.3125 231.5 C303.06515137 231.95060791 303.81780273 232.40121582 304.59326172 232.86547852 C308.85618857 235.47877243 312.68413644 238.28047682 316.4206543 241.60253906 C318.61709558 243.546028 320.94042014 245.3184268 323.25 247.125 C337.43407003 258.69467473 347.08816713 272.7952945 355.07421875 289.12890625 C355.68112089 290.35551437 356.30820738 291.57238513 356.95703125 292.77734375 C359.87554221 298.27716719 361.8551169 304.04453227 363.8515625 309.92578125 C364.90689754 313.10783432 364.90689754 313.10783432 367 316 C367.4140625 318.26171875 367.4140625 318.26171875 367.625 320.6875 C367.69976563 321.49574219 367.77453125 322.30398438 367.8515625 323.13671875 C367.90054688 323.75160156 367.94953125 324.36648438 368 325 C368.66 325 369.32 325 370 325 C370.14622803 325.80219971 370.29245605 326.60439941 370.44311523 327.4309082 C371.1056674 331.05851928 371.77154326 334.68551246 372.4375 338.3125 C372.78264648 340.20645508 372.78264648 340.20645508 373.13476562 342.13867188 C373.35712891 343.34716797 373.57949219 344.55566406 373.80859375 345.80078125 C374.01282959 346.91622314 374.21706543 348.03166504 374.42749023 349.1809082 C374.95328085 352.0616665 374.95328085 352.0616665 376 355 C376.068991 357.06145107 376.08467727 359.12501401 376.0625 361.1875 C376.05347656 362.27417969 376.04445313 363.36085938 376.03515625 364.48046875 C376.01775391 365.72763672 376.01775391 365.72763672 376 367 C376.66 367 377.32 367 378 367 C378.05122586 373.72197163 378.08595134 380.44389187 378.10986328 387.16601562 C378.11984482 389.44695924 378.1334348 391.72789031 378.15087891 394.00878906 C378.33361736 418.53873883 378.33361736 418.53873883 376 430 C375.72639648 431.3617334 375.72639648 431.3617334 375.44726562 432.75097656 C374.9036998 435.28414485 374.309779 437.79760032 373.6875 440.3125 C373.36483154 441.63701172 373.36483154 441.63701172 373.03564453 442.98828125 C371.58494081 448.85430763 370.04056205 454.6913124 368.375 460.5 C368.08435669 461.53120972 368.08435669 461.53120972 367.7878418 462.58325195 C366.64190472 466.45266876 365.14313966 469.59819101 363 473 C362.29788106 474.65204456 361.63028587 476.31923769 361 478 C359.606838 481.58620027 358.03375337 484.72830979 356 488 C355.27997365 489.67867815 354.5609852 491.35781774 353.84985352 493.0402832 C349.44307382 503.2020817 344.12991137 512.78409207 338 522 C336.87237067 523.790013 335.74741656 525.58171377 334.625 527.375 C330.58837289 533.70414362 326.37211573 539.89895974 322 546 C321.5987793 546.56041992 321.19755859 547.12083984 320.78417969 547.69824219 C311.53038633 560.49479042 302.72748819 568.34271549 288 574 C287.28585937 574.38285156 286.57171875 574.76570312 285.8359375 575.16015625 C284 576 284 576 280 576 C279.67 576.99 279.34 577.98 279 579 C277.26928711 579.78369141 277.26928711 579.78369141 275.02734375 580.3515625 C273.80047852 580.66867187 273.80047852 580.66867187 272.54882812 580.9921875 C271.68708984 581.20101562 270.82535156 581.40984375 269.9375 581.625 C269.10283203 581.8415625 268.26816406 582.058125 267.40820312 582.28125 C263.4416959 583.28292447 259.57547287 584.10201885 255.50390625 584.5234375 C251.9496372 584.64678913 251.9496372 584.64678913 250 587 C247.9765625 587.5625 247.9765625 587.5625 245.625 588 C243.2269567 588.44913185 241.28435169 588.84865929 239.12524414 589.99780273 C236.87539478 591.05875984 235.1727424 591.37051891 232.70703125 591.59765625 C231.91232422 591.67693359 231.11761719 591.75621094 230.29882812 591.83789062 C229.47833984 591.91201172 228.65785156 591.98613281 227.8125 592.0625 C222.48037113 592.09392758 222.48037113 592.09392758 218 594 C208.46962686 594.54786904 199.37964397 593.77153478 190 592 C190 591.34 190 590.68 190 590 C188.80375 590.103125 187.6075 590.20625 186.375 590.3125 C180.71212399 590.32133444 176.09548851 588.38601526 170.86328125 586.37890625 C164.42450876 583.98133055 157.68151723 582.55323582 151 581 C151 580.34 151 579.68 151 579 C149.2675 579.061875 149.2675 579.061875 147.5 579.125 C144.55825717 579.23006224 142.46170328 578.8460853 139.59057617 578.02514648 C134.11338582 576.63232411 128.64579316 576.56006147 123.01953125 576.40234375 C121.32300667 576.34355797 121.32300667 576.34355797 119.59220886 576.28358459 C115.99918837 576.16013543 112.40593798 576.04807103 108.8125 575.9375 C105.20843185 575.82179842 101.60448619 575.70360279 98.00065613 575.58070374 C95.76375538 575.50489334 93.52670096 575.43345954 91.289505 575.3669281 C90.27462509 575.33341751 89.25974518 575.29990692 88.21411133 575.26538086 C86.88129875 575.22446571 86.88129875 575.22446571 85.52156067 575.182724 C82.94234998 574.99582241 80.52853756 574.52924983 78 574 C75.5479945 573.81055299 73.092868 573.65986409 70.63671875 573.53515625 C69.17642694 573.45647948 67.71614067 573.37769988 66.25585938 573.29882812 C63.99024783 573.18070878 61.72456664 573.06436369 59.45874023 572.95043945 C32.41828539 571.57378018 32.41828539 571.57378018 22 568 C20.05229367 567.60989553 18.09540859 567.26355697 16.1328125 566.95703125 C15.01092529 566.77374268 13.88903809 566.5904541 12.7331543 566.40161133 C11.54246338 566.20720459 10.35177246 566.01279785 9.125 565.8125 C-3.4406314 563.6772553 -15.47622311 560.56543146 -27.62353516 556.74072266 C-30.73434478 555.77111135 -33.86238959 554.87853091 -37 554 C-37 553.34 -37 552.68 -37 552 C-37.71027344 551.86722656 -38.42054688 551.73445312 -39.15234375 551.59765625 C-40.07144531 551.42105469 -40.99054688 551.24445312 -41.9375 551.0625 C-42.85402344 550.88847656 -43.77054688 550.71445312 -44.71484375 550.53515625 C-47 550 -47 550 -48 549 C-49.155 548.87625 -50.31 548.7525 -51.5 548.625 C-55.38605768 548.1848094 -58.74315289 547.13939029 -62.4140625 545.83203125 C-67.51187776 544.19179764 -72.77155014 543.13943034 -78 542 C-77.35773912 538.29398116 -75.67116589 535.8085505 -73.625 532.6875 C-65.37039546 518.80014277 -65.84027957 501.12941192 -65.8671875 485.421875 C-65.86575241 483.54474823 -65.86575241 483.54474823 -65.86428833 481.62969971 C-65.8634408 478.33836056 -65.86741688 475.04707003 -65.87304688 471.7557373 C-65.87500453 469.74534607 -65.87304441 467.73499825 -65.86962891 465.72460938 C-65.86343657 461.83201092 -65.86420242 457.93947617 -65.8671875 454.046875 C-65.86415115 452.26225861 -65.86415115 452.26225861 -65.86105347 450.44158936 C-65.87768191 444.52345691 -66.14561798 438.8545491 -67 433 C-67.0628389 430.66741994 -67.08680521 428.33329975 -67.0625 426 C-67.05347656 424.865625 -67.04445313 423.73125 -67.03515625 422.5625 C-67.02355469 421.716875 -67.01195312 420.87125 -67 420 C-67.66 420 -68.32 420 -69 420 C-69.10957031 419.16597656 -69.21914063 418.33195312 -69.33203125 417.47265625 C-71.03976647 405.35190137 -73.40466678 398.26072634 -81.12109375 388.65234375 C-84.24986818 384.73895739 -87.13056544 380.66815492 -90 376.5625 C-90.75313477 375.48766357 -90.75313477 375.48766357 -91.52148438 374.39111328 C-92.52535822 372.95816432 -93.52878108 371.52489929 -94.53173828 370.09130859 C-96.81498965 366.83917504 -99.1246934 363.60615276 -101.4375 360.375 C-102.19933594 359.31023437 -102.96117187 358.24546875 -103.74609375 357.1484375 C-104.95188061 355.46409745 -106.16142365 353.78224475 -107.39501953 352.11816406 C-111 347.21275685 -111 347.21275685 -111 345 C-111.66 345 -112.32 345 -113 345 C-113.20625 344.34 -113.4125 343.68 -113.625 343 C-114.82048239 340.39167479 -115.94425598 338.66420369 -117.6875 336.4375 C-118.79560142 334.96127871 -119.89914734 333.48163473 -121 332 C-121.60553711 331.22640137 -122.21107422 330.45280273 -122.83496094 329.65576172 C-129.46098867 320.04784538 -128.88699745 310.96998862 -128.5625 299.6875 C-128.53358696 297.78160791 -128.5069102 295.87568064 -128.48242188 293.96972656 C-128.31860506 283.8427208 -127.82791317 273.80379187 -126.72412109 263.73291016 C-125.85642999 255.19717735 -125.74201837 246.67077966 -125.70043945 238.09777832 C-125.69198326 236.44092383 -125.67852535 234.78408529 -125.65942383 233.12731934 C-125.51989459 219.64755137 -126.62601643 206.71372848 -131.3203125 193.9375 C-132.0099482 191.97164192 -132.48498216 190.03236082 -132.9375 188 C-134.04845125 183.39228415 -135.95099959 179.25939468 -138 175 C-138.41765625 174.12472656 -138.8353125 173.24945313 -139.265625 172.34765625 C-141.62319506 167.41762187 -141.62319506 167.41762187 -144.65234375 162.89453125 C-146 161 -146 161 -146 158 C-146.66 158 -147.32 158 -148 158 C-149.02846655 156.35074734 -150.02093066 154.67904765 -151 153 C-152.70603349 150.76754906 -154.4297259 148.56548025 -156.1875 146.375 C-157.16759487 145.13093903 -158.14675204 143.88613878 -159.125 142.640625 C-160.89961276 140.38568373 -162.69071382 138.14955861 -164.5 135.921875 C-170.47388087 128.28384161 -170.47388087 128.28384161 -170.5 123.3125 C-170.335 122.219375 -170.17 121.12625 -170 120 C-170.66 120 -171.32 120 -172 120 C-173.29328137 116.12015589 -174.04657272 112.97297671 -173 109 C-169.24567103 103.58864311 -164.87762118 99.05241167 -159 96 C-158.34 96 -157.68 96 -157 96 C-157.0928125 95.36835938 -157.185625 94.73671875 -157.28125 94.0859375 C-157.95840202 85.69408931 -155.10579857 80.79166977 -150.75 73.96875 C-148.74609375 71.14362517 -148.74609375 71.14362517 -149 68 C-150.94009522 66.29467677 -150.94009522 66.29467677 -153 65 C-152.87790159 59.13927618 -151.16297664 56.28399175 -147.1640625 52.0546875 C-141.66837081 46.8367564 -136.00515287 42.02495238 -129 39 C-128.05125 38.46375 -127.1025 37.9275 -126.125 37.375 C-122.30619174 35.69472437 -119.14442267 35.35727782 -115 35 C-115 34.34 -115 33.68 -115 33 C-113.48129302 32.514136 -111.95989301 32.03668799 -110.4375 31.5625 C-109.59058594 31.29566406 -108.74367188 31.02882812 -107.87109375 30.75390625 C-95.4851335 27.50153846 -81.03173096 27.54772951 -69 32 C-69 32.66 -69 33.32 -69 34 C-68.195625 34.144375 -67.39125 34.28875 -66.5625 34.4375 C-64 35 -64 35 -63 36 C-55.51951745 36.38404263 -50.76663847 33.39413596 -45 29 C-43.83664269 28.14133151 -42.67019091 27.28683211 -41.5 26.4375 C-40.94441406 26.03402344 -40.38882813 25.63054687 -39.81640625 25.21484375 C-37.75363937 23.83522977 -35.62451824 22.67200811 -33.4375 21.5 C-30.60885541 19.97762252 -28.16542085 18.42987406 -25.75 16.3125 C-23 14 -23 14 -20.671875 13.09765625 C-17.56189817 11.82001957 -15.19486659 10.13101025 -12.5 8.125 C-11.12328125 7.10792969 -11.12328125 7.10792969 -9.71875 6.0703125 C-7.87570057 4.66684095 -6.06341552 3.22220427 -4.28125 1.7421875 C-2 0 -2 0 0 0 Z " transform="translate(581,214)" style="fill: #FCFCFC;"/><path d="M0 0 C2.45585145 5.32457068 4.04091921 10.56453158 5.4375 16.25 C7.03855605 22.5943145 8.80265822 28.710799 11.30078125 34.7734375 C12 37 12 37 12 42 C1.77 42 -8.46 42 -19 42 C-18.18479045 37.92395224 -17.74631223 36.19797542 -15.75 32.875 C-10.86306357 24.32286125 -7.40158472 15.63988831 -4.61132812 6.21850586 C-2.76611904 0 -2.76611904 0 0 0 Z " transform="translate(497,196)" style="fill: #F3F3F3;"/><path d="M0 0 C0.95962646 -0.00209473 1.91925293 -0.00418945 2.90795898 -0.00634766 C7.90797997 0.11063762 11.49663026 0.32534256 15.5625 3.5625 C15.00945658 7.43380392 13.5958676 9.13580592 10.5625 11.5625 C7.61990837 13.04426767 4.60817766 14.31012675 1.5625 15.5625 C0.9025 15.8925 0.2425 16.2225 -0.4375 16.5625 C-7.21101596 17.52050724 -13.85389653 17.71527888 -20.6875 17.6875 C-22.13769531 17.69330078 -22.13769531 17.69330078 -23.6171875 17.69921875 C-24.55304688 17.69792969 -25.48890625 17.69664062 -26.453125 17.6953125 C-27.29133789 17.69418457 -28.12955078 17.69305664 -28.99316406 17.69189453 C-31.4375 17.5625 -31.4375 17.5625 -36.4375 16.5625 C-35.7775 13.2625 -35.1175 9.9625 -34.4375 6.5625 C-34.1075 6.5625 -33.7775 6.5625 -33.4375 6.5625 C-33.4375 8.2125 -33.4375 9.8625 -33.4375 11.5625 C-32.715625 11.10875 -31.99375 10.655 -31.25 10.1875 C-28.4375 8.5625 -28.4375 8.5625 -26.0703125 7.65625 C-23.40848064 6.64190088 -23.40848064 6.64190088 -21.09765625 5.0546875 C-14.05830312 0.67229322 -8.18718699 -0.00402418 0 0 Z " transform="translate(476.4375,284.4375)" style="fill: #0C0C0C;"/><path d="M0 0 C1.67542976 0.28604898 3.34385343 0.61781233 5 1 C5 1.66 5 2.32 5 3 C3.68 3 2.36 3 1 3 C1.33 4.65 1.66 6.3 2 8 C0.40084119 8.69906942 -1.20455045 9.38389468 -2.8125 10.0625 C-3.70582031 10.44535156 -4.59914063 10.82820312 -5.51953125 11.22265625 C-8 12 -8 12 -11 11 C-10.34 9.68 -9.68 8.36 -9 7 C-8.34 7 -7.68 7 -7 7 C-7.33 5.68 -7.66 4.36 -8 3 C-6.865625 2.690625 -5.73125 2.38125 -4.5625 2.0625 C-1.21224901 1.37075469 -1.21224901 1.37075469 0 0 Z " transform="translate(833,798)" style="fill: #3C3C3B;"/><path d="M0 0 C0.66 0 1.32 0 2 0 C2.67154933 1.28913487 3.33708859 2.58140204 4 3.875 C4.37125 4.59429687 4.7425 5.31359375 5.125 6.0546875 C6 8 6 8 6 10 C5.01 10.33 4.02 10.66 3 11 C2.30034557 9.73581754 1.61565237 8.46334598 0.9375 7.1875 C0.36322266 6.12595703 0.36322266 6.12595703 -0.22265625 5.04296875 C-1 3 -1 3 0 0 Z " transform="translate(576,364)" style="fill: #2A2A29;"/><path d="M0 0 C1.56633048 2.48770135 2.04100928 3.65552204 1.6875 6.625 C1 9 1 9 0 11 C-0.53132375 12.37098046 -1.05110659 13.74646123 -1.5625 15.125 C-1.83191406 15.84945312 -2.10132813 16.57390625 -2.37890625 17.3203125 C-2.58386719 17.87460937 -2.78882813 18.42890625 -3 19 C-3.66 19 -4.32 19 -5 19 C-3.43247063 12.63583076 -1.85735533 6.28643343 0 0 Z " transform="translate(1046,720)" style="fill: #838386;"/><path d="M0 0 C1.85776765 3.13498292 2.20140476 5.37471432 2 9 C1.34 9 0.68 9 0 9 C-1.125 3.375 -1.125 3.375 0 0 Z " transform="translate(24,678)" style="fill: #999A9C;"/></svg>