<?xml version="1.0" standalone="no"?>
<!DOCTYPE svg PUBLIC "-//W3C//DTD SVG 20010904//EN"
 "http://www.w3.org/TR/2001/REC-SVG-20010904/DTD/svg10.dtd">
<svg version="1.0" xmlns="http://www.w3.org/2000/svg"
 width="1024.000000pt" height="1024.000000pt" viewBox="0 0 1024.000000 1024.000000"
 preserveAspectRatio="xMidYMid meet">

<g transform="translate(0.000000,1024.000000) scale(0.100000,-0.100000)"
fill="#000000" stroke="none">
<path d="M5070 6898 c-63 -38 -182 -178 -224 -264 -38 -77 -44 -185 -21 -339
35 -235 2 -332 -156 -458 -70 -56 -147 -85 -252 -97 -115 -13 -189 -34 -221
-63 -31 -28 -63 -85 -71 -130 -8 -43 17 -107 45 -114 11 -3 20 -13 20 -22 1
-28 38 -100 82 -156 52 -66 112 -111 164 -123 96 -22 284 -128 336 -191 49
-57 59 -163 29 -282 -17 -65 -98 -250 -120 -272 -4 -4 -21 -1 -37 8 -105 52
-280 15 -377 -79 -52 -51 -74 -95 -94 -194 -15 -70 -14 -82 2 -149 13 -57 26
-85 61 -127 l43 -54 -32 -5 c-70 -12 -200 -28 -372 -48 -183 -20 -415 -52
-515 -69 -311 -55 -379 -69 -575 -115 -33 -8 -109 -26 -170 -40 -60 -14 -123
-29 -140 -35 -16 -5 -86 -25 -155 -44 -356 -100 -701 -213 -857 -282 -17 -8
-34 -14 -38 -14 -4 0 -33 -11 -64 -24 -31 -13 -123 -52 -206 -85 -82 -34 -164
-69 -181 -77 l-32 -16 31 -69 c17 -38 39 -79 49 -89 11 -11 16 -20 13 -20 -12
0 61 -124 88 -149 15 -14 27 -32 27 -39 0 -15 25 -43 32 -36 3 2 11 -9 18 -26
7 -16 16 -30 21 -30 7 0 63 -89 94 -151 5 -10 13 -19 17 -19 5 0 8 -6 8 -12 0
-7 14 -28 30 -47 17 -18 30 -39 30 -45 0 -13 23 -46 57 -83 13 -13 23 -26 23
-30 0 -11 58 -71 64 -66 3 4 6 -1 6 -10 0 -10 5 -17 10 -17 6 0 10 -7 10 -15
0 -8 8 -15 18 -15 10 0 27 -7 38 -16 18 -14 18 -15 -5 -4 -19 10 -22 9 -19 -2
3 -7 15 -18 29 -25 13 -7 24 -16 24 -20 0 -17 16 -32 30 -27 9 4 12 0 9 -13
-10 -38 446 -454 651 -593 28 -19 84 -59 125 -90 151 -112 369 -246 530 -326
174 -87 230 -113 230 -106 0 4 4 2 8 -4 4 -7 79 -40 167 -74 88 -34 174 -69
192 -76 17 -8 35 -14 41 -14 13 0 112 -30 137 -41 21 -10 77 -26 304 -85 128
-33 303 -64 548 -98 135 -19 175 -20 192 -3 10 8 12 9 7 0 -12 -21 59 -27 344
-27 342 -1 499 6 510 23 6 10 9 10 15 1 9 -14 92 -5 114 13 12 9 13 9 7 0 -10
-17 22 -17 94 0 31 8 61 12 68 9 7 -2 12 5 13 15 0 10 3 13 6 6 2 -7 9 -13 14
-13 6 0 8 4 4 9 -3 5 -1 12 5 16 5 3 10 -1 10 -9 0 -9 8 -14 20 -13 11 1 20 5
20 10 0 5 -7 7 -15 3 -8 -3 -15 -1 -15 4 0 10 20 12 110 15 80 2 151 16 345
70 297 83 575 182 558 199 -5 4 -3 6 2 5 24 -8 108 26 137 55 18 17 27 24 20
15 -11 -14 -9 -16 12 -12 14 3 33 14 43 26 18 20 18 20 -5 8 -13 -7 -26 -10
-30 -7 -3 3 0 6 6 6 6 0 9 8 6 18 -5 14 -4 15 5 2 6 -8 11 -10 11 -4 0 12 29
12 48 0 8 -5 12 0 12 15 0 18 2 19 15 9 12 -10 28 -6 85 21 41 19 70 39 71 48
0 9 3 11 5 4 4 -8 15 -6 40 9 18 11 31 24 28 29 -3 5 2 6 10 3 18 -7 66 23 66
42 0 8 5 14 11 14 5 0 7 -4 4 -10 -3 -6 1 -7 10 -4 9 4 14 13 10 22 -5 13 -3
13 12 1 10 -7 14 -9 10 -4 -4 5 19 22 53 37 38 18 58 33 54 40 -4 7 -3 8 4 4
14 -8 91 43 92 61 0 6 4 15 10 18 6 4 7 -1 3 -12 -6 -16 -5 -17 13 -3 10 8 21
18 24 21 3 3 20 14 38 23 17 9 32 23 32 32 0 8 4 13 9 10 9 -6 100 59 159 113
17 16 32 27 32 24 0 -3 7 0 15 7 9 7 14 19 11 27 -3 8 -2 12 3 8 5 -3 16 -2
25 1 14 5 14 9 4 22 -11 13 -11 14 0 8 8 -5 24 3 43 23 16 17 34 31 40 31 15
0 39 26 32 34 -4 3 3 6 15 6 13 0 22 6 22 15 0 8 7 15 15 15 9 0 20 10 25 23
5 12 9 18 9 14 1 -13 31 20 31 35 0 9 3 9 8 2 5 -8 13 -5 26 7 19 19 19 19 0
19 -13 0 -10 5 14 16 17 9 32 21 32 26 0 5 4 6 10 3 5 -3 7 0 5 7 -4 9 8 20
30 31 19 9 35 23 35 32 0 8 5 15 11 15 6 0 8 7 5 16 -3 8 -2 12 4 9 6 -3 10
-2 10 3 0 5 32 42 71 82 79 83 132 154 121 165 -4 5 -2 6 3 2 6 -3 26 13 45
35 19 23 52 59 73 80 20 22 37 44 37 49 0 5 16 33 35 63 19 30 35 60 35 66 0
5 4 10 8 10 9 0 47 62 44 73 -1 4 2 7 7 7 5 0 13 9 16 20 3 11 13 20 21 20 8
0 13 4 10 9 -3 5 1 12 10 15 8 3 12 11 8 17 -4 8 -3 9 4 5 6 -4 21 3 33 15 17
17 19 23 8 30 -12 7 -11 9 1 9 8 0 28 20 44 45 24 39 26 48 15 63 -13 15 -12
16 3 4 15 -12 21 -5 60 70 23 46 50 101 59 123 l16 40 -101 43 c-55 24 -128
56 -161 71 -56 27 -135 58 -250 101 -27 10 -93 35 -145 55 -52 21 -189 68
-305 106 -269 88 -259 85 -332 104 -34 8 -70 18 -79 22 -13 5 -15 3 -10 -8 4
-8 1 -6 -7 3 -8 10 -27 19 -44 21 -16 2 -33 6 -38 8 -34 18 -430 113 -620 149
-55 10 -163 31 -240 45 -77 15 -187 33 -245 41 -194 26 -694 83 -737 84 -7 0
16 29 52 64 56 56 67 74 86 136 34 114 15 223 -57 318 -107 142 -158 172 -302
177 -97 3 -119 14 -160 76 -40 61 -42 72 -49 275 -5 142 -3 175 17 270 12 60
24 120 27 134 2 14 11 50 19 81 7 31 14 66 14 78 0 11 10 46 21 78 18 49 41
78 150 188 137 139 151 155 235 282 120 181 199 372 192 465 -3 41 -5 43 -37
46 -95 9 -253 -46 -354 -123 -55 -42 -162 -94 -197 -96 -14 -1 -60 10 -104 25
-72 25 -83 26 -145 17 -63 -10 -69 -9 -126 18 -119 57 -226 193 -270 344 -19
67 -23 153 -7 169 15 15 15 70 0 103 -15 34 -42 32 -108 -7z m80 -23 c0 -9 -6
-26 -14 -38 -27 -43 -28 -95 -5 -195 24 -109 39 -143 104 -236 108 -154 238
-220 373 -188 49 12 75 6 151 -32 69 -35 91 -31 210 39 51 30 95 55 97 55 2 0
30 17 61 37 118 76 233 106 233 63 0 -52 -56 -187 -127 -306 -42 -71 -83 -135
-90 -142 -7 -7 -13 -17 -13 -22 0 -14 -107 -136 -205 -235 -139 -140 -140
-144 -199 -465 -45 -242 -49 -299 -37 -457 9 -108 16 -147 41 -212 45 -116 59
-125 185 -118 71 4 112 1 140 -8 52 -18 145 -119 186 -202 89 -179 -22 -407
-210 -430 -129 -15 -272 56 -350 174 -29 43 -31 53 -31 131 0 47 -2 83 -5 80
-13 -13 -26 -128 -20 -181 7 -55 12 -64 61 -115 30 -31 54 -60 54 -65 0 -5 -6
-4 -14 2 -8 7 -16 8 -18 4 -3 -4 -4 -3 -2 3 3 12 -52 25 -62 15 -5 -6 -10 -7
-35 -10 -6 0 -9 -9 -5 -18 4 -12 0 -10 -10 5 -9 12 -24 22 -33 22 -14 0 -14
-2 -1 -10 8 -5 12 -10 8 -11 -5 -1 -11 -2 -15 -3 -5 -1 -15 -5 -23 -10 -12 -7
-13 -6 -2 5 20 21 14 34 -8 14 -16 -15 -21 -15 -25 -4 -4 10 -19 14 -43 13
-20 0 -46 3 -57 7 -12 5 19 8 78 7 90 0 118 4 106 17 -3 2 -35 6 -71 7 -77 3
-77 22 0 33 27 3 54 11 62 16 11 7 7 8 -13 3 -15 -3 -63 -7 -107 -8 -57 -1
-80 -5 -80 -13 0 -15 -132 -17 -165 -3 -17 7 -17 9 -2 9 9 1 17 6 17 11 0 13
-1 13 -60 -10 -28 -11 -72 -20 -98 -20 -44 0 -214 18 -219 23 -1 2 5 23 13 47
38 109 26 237 -28 291 -17 16 -32 28 -34 27 -2 -2 9 -28 23 -58 36 -75 38
-183 3 -254 -38 -79 -154 -161 -271 -191 -101 -27 -177 2 -271 102 -53 58 -68
100 -68 195 0 103 28 167 97 222 124 98 266 107 410 26 52 -29 54 -30 42 -8
-6 13 -19 32 -29 43 -17 19 -16 23 35 108 77 127 99 198 100 327 0 178 -30
221 -238 335 -40 22 -102 45 -150 56 -80 17 -83 19 -145 84 -35 37 -62 68 -60
70 2 2 20 6 41 9 21 3 47 11 58 17 11 5 24 7 29 4 5 -3 16 7 24 22 16 31 32
49 95 106 43 40 50 66 30 111 -12 26 -41 41 -100 51 -37 6 -65 27 -56 42 3 5
23 10 44 11 120 7 225 55 344 161 37 32 50 53 65 101 10 33 24 60 31 60 16 0
9 153 -13 280 -18 108 -18 194 0 254 25 82 136 229 226 300 50 40 60 43 60 21z
m-266 -3026 c14 -13 7 -16 -64 -24 l-64 -7 24 26 c21 21 31 25 60 20 19 -4 39
-10 44 -15z"/>
<path d="M5440 5172 c-88 -93 -195 -131 -366 -132 -50 0 -94 -3 -97 -7 -14
-14 38 -36 96 -40 78 -7 208 17 286 52 70 32 148 107 157 153 10 48 -12 41
-76 -26z"/>
<path d="M5604 4205 c-15 -38 -19 -85 -6 -85 5 0 14 19 21 43 7 23 15 50 17
60 10 32 -17 17 -32 -18z"/>
<path d="M5970 3971 c-17 -5 -26 -15 -28 -34 -3 -25 0 -27 31 -27 27 0 34 4
33 18 -1 13 8 18 42 20 25 2 42 -1 42 -7 0 -6 5 -11 11 -11 6 0 9 10 7 23 -3
19 -9 22 -58 24 -30 1 -66 -2 -80 -6z"/>
<path d="M4507 3933 c-11 -10 -8 -72 4 -95 10 -18 8 -19 -13 -13 -12 4 -40 16
-61 27 -44 22 -58 17 -33 -10 16 -18 122 -49 133 -39 2 3 -1 16 -8 28 -10 20
-9 25 15 44 l26 21 -23 22 c-25 24 -30 26 -40 15z"/>
<path d="M10080 80 l0 -80 80 0 80 0 0 80 0 80 -80 0 -80 0 0 -80z"/>
</g>
</svg>
