<?xml version="1.0" encoding="UTF-8" standalone="no"?>
<svg
   id="svg"
   version="1.1"
   style="display: block;"
   viewBox="0 0 1024 1024"
   sodipodi:docname="light-s4.svg"
   inkscape:version="1.2.2 (732a01da63, 2022-12-09)"
   xmlns:inkscape="http://www.inkscape.org/namespaces/inkscape"
   xmlns:sodipodi="http://sodipodi.sourceforge.net/DTD/sodipodi-0.dtd"
   xmlns="http://www.w3.org/2000/svg"
   xmlns:svg="http://www.w3.org/2000/svg">
  <defs
     id="defs158" />
  <sodipodi:namedview
     id="namedview156"
     pagecolor="#505050"
     bordercolor="#ffffff"
     borderopacity="1"
     inkscape:showpageshadow="0"
     inkscape:pageopacity="0"
     inkscape:pagecheckerboard="1"
     inkscape:deskcolor="#505050"
     showgrid="false"
     inkscape:zoom="0.80240837"
     inkscape:cx="515.32364"
     inkscape:cy="519.68551"
     inkscape:window-width="1829"
     inkscape:window-height="1057"
     inkscape:window-x="83"
     inkscape:window-y="-8"
     inkscape:window-maximized="1"
     inkscape:current-layer="svg" />
  <path
     d="M0 0 C337.92 0 675.84 0 1024 0 C1024 337.92 1024 675.84 1024 1024 C686.08 1024 348.16 1024 0 1024 C0 686.08 0 348.16 0 0 Z "
     style="fill: #FBFBFB;"
     id="path81"
     transform="translate(0,0)" />
  <path
     d="m 506.84139,307.77085 c 0.68327,0.35139 1.36653,0.70277 2.0705,1.06481 -0.0326,0.93899 -0.0326,0.93899 -0.0657,1.89695 -0.61317,20.46706 1.19819,37.85712 14.23564,54.3382 6.49808,6.92059 13.47389,11.10316 22.93311,11.59226 2.44915,0.0265 4.89878,0.0219 7.34783,-0.0125 2.46813,-0.009 4.93635,-0.006 7.40443,0.0125 1.61528,-0.0192 1.61528,-0.0192 3.26319,-0.0387 3.27585,0.4119 4.49027,1.44029 6.99626,3.55344 5.76704,0.72133 9.64988,-0.75782 14.55814,-3.66028 0.67133,-0.37926 1.34267,-0.75854 2.03435,-1.1493 4.00442,-2.30109 7.81809,-4.806 11.60278,-7.46743 10.33036,-7.22677 22.20447,-12.50539 34.95473,-11.14873 0.68327,0.35139 1.36653,0.70277 2.07049,1.06481 1.24714,23.76649 -9.70102,43.01644 -22.7754,61.75882 -0.66157,0.95045 -0.66157,0.95045 -1.33652,1.92008 -5.13831,7.30403 -10.42236,13.71857 -17.2979,19.37607 -5.32422,4.61349 -9.84821,8.76645 -13.4582,14.9073 -0.50444,0.48316 -1.00887,0.96631 -1.5286,1.46411 -6.30281,6.91498 -6.9516,19.18613 -8.44321,28.2226 -0.64083,3.80068 -1.35721,7.58652 -2.06292,11.37493 -1.88445,10.18114 -2.70992,19.95625 -2.76428,30.30489 -0.0119,1.57341 -0.0331,3.14675 -0.0637,4.71989 -0.21752,11.20698 0.13729,21.88962 7.22777,31.05983 3.65039,3.75462 5.69041,3.73575 10.74067,3.99302 13.13679,0.99593 23.70593,5.34015 32.93375,15.24006 9.02633,11.12772 10.77882,21.18921 9.74992,35.3466 -1.03812,9.80869 -6.55299,17.19058 -13.69681,23.55055 -1.02489,0 -2.04979,0 -3.10574,0 0,0.70277 0,1.40554 0,2.12962 1.31181,-0.0247 2.62363,-0.0495 3.97518,-0.0749 1.75911,-0.02 3.51822,-0.0393 5.27733,-0.0582 0.86008,-0.0179 1.72016,-0.0356 2.60631,-0.0541 4.20721,-0.0337 8.05172,0.12537 12.14189,1.17712 6.06015,1.54247 12.20414,1.83054 18.41432,2.29751 31.28752,2.42966 61.86555,8.15739 92.55513,14.74772 1.84875,0.39413 1.84875,0.39413 3.73485,0.79623 15.23246,3.26529 30.23423,7.01569 45.179,11.47531 4.93354,1.47109 9.8899,2.79555 14.88316,4.03332 4.93896,1.23696 9.71942,2.63458 14.50961,4.37569 2.11936,0.70375 4.20522,1.1711 6.38942,1.61385 5.19048,1.12442 10.0361,3.01425 15.00524,4.90005 3.93851,1.45774 7.91631,2.74401 11.91629,4.01023 13.09915,4.16147 25.90968,8.99059 38.70789,14.03742 3.45301,1.36075 6.91026,2.70959 10.36813,4.05723 2.22846,0.87348 4.45667,1.74762 6.68461,2.62251 1.01804,0.39717 2.03608,0.79433 3.08498,1.20354 5.06912,2.0055 9.94273,4.16829 14.76805,6.73141 2.20913,1.13439 4.4517,1.97993 6.79876,2.76303 0.8514,0.29854 1.70281,0.59709 2.58002,0.90467 1.75683,0.60467 3.51744,1.19784 5.28137,1.78023 0.8434,0.29991 1.6868,0.59983 2.55577,0.90883 0.76049,0.25727 1.52099,0.51455 2.30453,0.77962 1.90924,1.22108 1.90924,1.22108 3.33042,3.67355 0.81283,3.59471 0.24857,4.93607 -1.312,8.2247 -0.47249,1.01153 -0.94499,2.02305 -1.4318,3.06524 -0.52437,1.06522 -1.04875,2.13044 -1.58901,3.22795 -0.52771,1.10023 -1.05542,2.20046 -1.59912,3.33401 -3.85192,7.89724 -8.07963,15.2969 -12.92516,22.58428 -2.29316,3.50763 -4.4567,7.09978 -6.63355,10.68447 -0.41444,0.67523 -0.82889,1.35047 -1.25589,2.04616 -2.17516,3.57045 -4.21552,7.17226 -6.15259,10.88542 -2.64348,4.9396 -5.77727,9.32523 -9.15546,13.75515 -0.59151,0.78453 -1.18302,1.56906 -1.79247,2.37736 -6.93534,9.16534 -14.04435,18.10635 -21.65018,26.69687 -1.89931,2.15288 -3.76121,4.33068 -5.60893,6.53027 -9.55112,11.26316 -19.38026,22.38662 -30.42652,32.11891 -2.34069,2.12093 -4.60052,4.31693 -6.86128,6.52715 -7.0124,6.81699 -14.43723,12.8553 -22.1539,18.80361 -3.55141,2.74272 -7.01063,5.58048 -10.44648,8.47402 -10.59472,8.9114 -21.62646,16.13364 -33.76174,22.66745 -4.40389,2.45381 -8.5527,5.30257 -12.75051,8.10667 -15.10449,10.00592 -31.22844,18.81326 -47.91652,25.69264 -3.20057,1.33132 -3.20057,1.33132 -6.66034,3.26098 -6.30183,3.28273 -13.00211,5.59114 -19.63732,8.04844 -1.4067,0.5241 -2.81331,1.04844 -4.21984,1.57303 -2.74663,1.02338 -5.49442,2.04338 -8.24304,3.06107 -2.93723,1.0913 -5.86853,2.1961 -8.79605,3.31452 -16.61457,6.29384 -33.74164,10.73133 -51.0915,14.29411 -4.13399,0.8714 -7.72031,1.7446 -11.58939,3.529 -4.73123,1.988 -9.15079,2.2884 -14.21441,2.6454 -5.57512,0.4252 -11.02411,0.9223 -16.51136,2.0505 -7.32053,1.4324 -14.68944,1.8656 -22.11624,2.2752 -0.77949,0.044 -1.55899,0.088 -2.3621,0.1335 -35.65549,1.9499 -72.97354,3.8809 -107.91987,-4.8045 -4.60786,-0.8948 -9.18518,-1.3592 -13.85021,-1.8213 -13.24986,-1.3133 -25.41186,-3.8158 -38.14208,-7.73443 -5.71232,-1.67031 -11.51917,-2.9687 -17.3161,-4.28834 -5.12002,-1.20225 -9.62105,-2.88469 -14.45351,-5.0438 -2.1799,-0.65788 -4.3738,-1.22367 -6.57694,-1.79349 -34.84506,-9.1539 -68.49175,-27.02789 -99.01812,-46.12284 -1.32941,-0.82588 -1.32941,-0.82588 -2.68567,-1.66843 -11.92263,-7.43827 -23.2089,-15.57753 -34.33295,-24.2197 -2.19636,-1.70058 -4.40478,-3.38256 -6.6194,-5.05783 -13.2729,-10.06875 -26.3868,-20.40541 -37.835,-32.65549 -2.45677,-2.49258 -5.02892,-4.63125 -7.75221,-6.80894 -7.25675,-5.96907 -13.35739,-13.01071 -19.60902,-20.05561 -1.84887,-2.07338 -3.71586,-4.12705 -5.59275,-6.17358 -16.13232,-17.61167 -16.13232,-17.61167 -21.44899,-26.27912 -1.65656,-2.81296 -1.65656,-2.81296 -4.15312,-4.52127 -3.5835,-3.11798 -5.95753,-6.6199 -8.59334,-10.58569 -0.7922,-1.17704 -0.7922,-1.17704 -1.60039,-2.37787 -1.11743,-1.66627 -2.23059,-3.33557 -3.33978,-5.00767 -1.753785,-2.64154 -3.524313,-5.27069 -5.295019,-7.90027 -1.140334,-1.71415 -2.279414,-3.42918 -3.417118,-5.14517 -0.543887,-0.80726 -1.087784,-1.61453 -1.648152,-2.44626 -0.497022,-0.75887 -0.994034,-1.51775 -1.506107,-2.29963 -0.662081,-0.99818 -0.662081,-0.99818 -1.337537,-2.01653 -0.943244,-1.95569 -0.943244,-1.95569 -0.943244,-6.21492 -1.024894,-0.35139 -2.049786,-0.70277 -3.105736,-1.06481 -1.204334,-1.7753 -1.204334,-1.7753 -2.349522,-4.08038 -0.425952,-0.84476 -0.851914,-1.6895 -1.290776,-2.55985 -0.442794,-0.90532 -0.8856,-1.81064 -1.341822,-2.74339 -0.455478,-0.91562 -0.910966,-1.83122 -1.380242,-2.77457 -0.912486,-1.83731 -1.820986,-3.67671 -2.725356,-5.51824 -1.094869,-2.21176 -2.216098,-4.40408 -3.359496,-6.58953 -0.568494,-1.10632 -1.136989,-2.21264 -1.722712,-3.35248 -0.495098,-0.95396 -0.990196,-1.90792 -1.500297,-2.89079 -0.893709,-2.49981 -0.893709,-2.49981 -0.88183,-4.56703 1.646383,-3.52647 4.859929,-4.32474 8.221565,-5.69006 0.744042,-0.31671 1.488082,-0.63341 2.254672,-0.95972 2.450354,-1.03743 4.909508,-2.05039 7.369872,-3.06242 1.706902,-0.71475 3.413444,-1.43044 5.119612,-2.14704 23.515405,-9.83401 47.311325,-18.85322 71.249975,-27.53499 2.65549,-0.97323 5.29916,-1.97098 7.93823,-2.99008 9.19287,-3.52216 18.45612,-6.09526 27.9946,-8.45114 7.13436,-1.77787 14.11959,-3.8437 21.11487,-6.12758 22.05437,-7.1113 44.76618,-11.7096 67.46789,-16.03137 3.7236,-0.71787 7.43425,-1.49036 11.14608,-2.27001 8.23765,-1.70027 16.49505,-3.23363 24.78119,-4.65853 0.92614,-0.1606 1.85229,-0.32119 2.80649,-0.48664 18.16771,-3.11442 36.39243,-5.25515 54.69696,-7.27739 10.52629,-1.17095 21.02846,-2.54647 31.52768,-3.94885 -0.42662,-0.63311 -0.85324,-1.26623 -1.29279,-1.91853 -0.55957,-0.84381 -1.11914,-1.68761 -1.69567,-2.557 -0.55474,-0.83076 -1.10947,-1.66153 -1.68101,-2.51746 -2.29309,-3.85197 -3.53368,-7.82951 -4.64774,-12.17354 -0.23488,-0.87847 -0.46974,-1.75693 -0.71173,-2.66202 -1.34583,-11.07406 0.64584,-21.0758 7.18202,-30.21391 7.25319,-8.69055 13.40916,-12.0307 24.58708,-12.91079 8.54764,-0.5709 15.77495,0.0599 23.81065,3.19442 0,-1.40554 0,-2.81109 0,-4.25923 1.43711,-1.60579 1.43711,-1.60579 3.10574,-3.19442 1.04338,-1.95946 1.04338,-1.95946 1.85212,-4.12196 0.31227,-0.7872 0.62454,-1.57438 0.94627,-2.38543 0.31494,-0.81738 0.62989,-1.63476 0.95437,-2.47692 0.32295,-0.81327 0.6459,-1.62654 0.97863,-2.46444 4.37917,-11.15378 5.59626,-23.91978 2.68517,-35.71472 -5.78529,-12.87944 -18.14576,-18.00302 -30.19197,-23.11382 -2.08418,-0.77695 -4.17514,-1.53533 -6.27617,-2.26271 -10.24239,-3.69673 -20.31393,-12.84447 -25.07236,-22.90167 -0.90173,-3.05466 -0.88761,-5.73556 -0.74408,-8.90945 -1.70816,0 -3.41631,0 -5.17623,0 -2.48845,-5.73824 -3.03578,-10.82527 -2.07049,-17.03692 1.65356,-3.584 3.70775,-6.57571 6.21147,-9.58326 0.45239,-0.57101 0.90479,-1.14201 1.37089,-1.73031 4.59844,-3.88082 10.65751,-4.03871 16.35769,-4.59199 15.44189,-1.72851 30.35818,-4.90059 40.57274,-17.91872 0.57516,-0.78511 1.15034,-1.57024 1.74293,-2.37916 0.52179,-0.67533 1.04358,-1.35065 1.58117,-2.04644 6.23291,-8.39917 6.22009,-16.51483 5.66555,-26.70337 -0.64045,-4.77127 -1.62579,-9.27586 -3.10574,-13.84249 -1.74198,-22.26095 3.33412,-36.67059 17.23927,-53.81853 6.16003,-6.63111 12.1513,-10.39734 21.06482,-10.06992 z"
     style="fill:#0fa14d;stroke-width:1.04992"
     id="path85" />
  <path
     d="m 493.30636,0.89004734 c 1.33948,-0.007454 2.67894,-0.0149392 4.05901,-0.0226271 4.30176,-0.0206679 8.60347,-0.0260239 12.90528,-0.0272804 0.73245,-4.7064e-4 1.46491,-9.4129e-4 2.21956,-0.001384 21.7402,-0.007373 43.18161,0.29445446 64.74789,3.46200276 1.32549,0.1827274 2.65097,0.3654557 4.01663,0.5537212 85.71552,11.8561152 171.96734,45.2620422 240.53489,100.2010802 1.77953,1.42085 3.57226,2.82153 5.37134,4.21607 8.04044,6.25137 15.7522,12.84167 23.382,19.61159 0.766,0.67945 1.532,1.35888 2.32122,2.0589 1.99746,1.78635 3.97957,3.58931 5.96075,5.39475 1.0922,0.98789 1.0922,0.98789 2.20647,1.99573 6.60591,6.03418 12.91237,12.32506 19.14421,18.761 1.62423,1.67636 3.25399,3.34691 4.88431,5.01702 5.62071,5.77705 11.07821,11.63802 16.21008,17.88335 0.90778,1.07519 1.81627,2.14975 2.7256,3.22353 7.73954,9.29563 14.999,18.91834 22.1203,28.7207 0.54714,0.74772 1.09428,1.49544 1.658,2.26583 15.13958,20.75933 28.07233,42.90149 39.75182,65.88184 0.75366,1.46336 0.75366,1.46336 1.52254,2.95629 25.90327,50.49522 42.03904,105.70424 49.94254,162.10828 0.2771,1.96784 0.5657,3.93396 0.8553,5.89991 5.7525,40.66001 5.4189,86.59243 -0.5581,127.18158 -0.2027,1.43924 -0.4049,2.87857 -0.6066,4.31798 -7.9245,55.78774 -24.67229,108.16027 -49.08519,158.59754 -0.68984,1.43403 -0.68984,1.43403 -1.39363,2.89702 -11.07038,22.86721 -24.14785,44.7598 -38.98095,65.25065 -0.43388,0.60052 -0.86775,1.20103 -1.31478,1.81973 -2.95002,4.05849 -5.9728,8.0554 -9.03767,12.02277 -0.52463,0.67961 -1.04926,1.35922 -1.58977,2.05942 -6.3456,8.19038 -12.78167,16.22731 -19.72174,23.89526 -1.92371,2.15155 -3.77303,4.3294 -5.61702,6.55106 -4.84005,5.70801 -10.06419,11.0267 -15.27821,16.36908 -1.72315,1.76664 -3.44069,3.53892 -5.15777,5.31181 -5.77281,5.94171 -11.60886,11.73761 -17.85597,17.15547 -1.04546,0.93356 -2.09017,1.868 -3.13404,2.80343 -9.03683,7.9599 -18.38698,15.43682 -27.92333,22.75194 -0.75449,0.57975 -1.50899,1.15951 -2.28634,1.75683 -82.23476,62.89984 -187.79703,102.42628 -290.61135,102.81058 -2.00921,0.012 -2.00921,0.012 -4.05901,0.022 -4.30176,0.02 -8.60347,0.025 -12.90528,0.028 -0.73245,4e-4 -1.46491,9e-4 -2.21956,0 -21.7402,0.011 -43.18161,-0.2945 -64.74789,-3.4621 -1.32549,-0.1827 -2.65098,-0.3654 -4.01663,-0.5537 -85.71552,-11.8561 -171.96734,-45.26201 -240.53489,-100.20105 -1.77953,-1.42085 -3.57226,-2.82153 -5.37134,-4.21607 -8.04044,-6.25009 -15.7522,-12.84039 -23.382,-19.61031 -1.149,-1.01916 -1.149,-1.01916 -2.32122,-2.0589 -1.99746,-1.78636 -3.97957,-3.58931 -5.96075,-5.39475 -0.72813,-0.65859 -1.45627,-1.31719 -2.20647,-1.99574 -6.60591,-6.03417 -12.91237,-12.32504 -19.14421,-18.76098 -1.62423,-1.67637 -3.25399,-3.34692 -4.88431,-5.01703 -5.62071,-5.77706 -11.07821,-11.63802 -16.21008,-17.88335 -0.90778,-1.07519 -1.81627,-2.14975 -2.7256,-3.22353 -7.73954,-9.29563 -14.999,-18.91834 -22.120295,-28.7207 -0.547148,-0.74772 -1.094286,-1.49545 -1.658008,-2.26583 -15.139578,-20.75933 -28.072325,-42.9015 -39.75182,-65.88184 -0.502438,-0.97557 -1.004876,-1.95115 -1.522539,-2.9563 C 28.048467,691.95516 11.912653,636.74615 4.0092213,580.3421 3.7320426,578.37427 3.4434306,576.40815 3.1539304,574.44219 -2.5985479,533.78219 -2.2650094,487.84977 3.711993,447.26062 3.9147179,445.82137 4.116891,444.38205 4.3185817,442.94263 12.243175,387.1549 28.990892,334.78236 53.403785,284.3451 c 0.459901,-0.95602 0.919802,-1.91204 1.393639,-2.89703 38.830347,-80.20876 38.830347,-80.20876 67.967826,-96.13006 7.01765,8.35773 7.01765,8.35773 7.5945,14.12533 -0.41939,4.79512 -2.08991,6.84664 -5.2005,10.16559 -16.74617,19.11183 -29.611679,41.60545 -42.319713,63.65343 -2.082584,3.5983 -4.192518,7.17953 -6.303724,10.76012 -2.027913,3.57283 -3.788314,7.24396 -5.53285,10.97068 -0.683262,0 -1.366526,0 -2.070492,0 -0.389672,1.28751 -0.779347,2.57501 -1.180827,3.90152 -2.211677,6.82185 -5.074055,13.3421 -7.877573,19.92355 -5.972912,14.17763 -11.5638,28.34421 -15.88455,43.15797 -0.371324,1.27156 -0.742647,2.5431 -1.125224,3.85317 -0.727599,2.51954 -1.441778,5.04321 -2.141259,7.57115 -0.325952,1.14116 -0.651901,2.2823 -0.98773,3.45803 -0.284583,1.02551 -0.569163,2.05101 -0.862368,3.10759 -0.49393,1.15891 -0.49393,1.15891 -0.997839,2.34123 -1.024894,0.35139 -2.049787,0.70277 -3.105738,1.06481 0.03905,1.38487 0.07807,2.76974 0.118286,4.19658 -0.0047,5.19363 -0.842193,9.87384 -2.010845,14.90756 -0.406029,1.85156 -0.811759,3.70319 -1.217221,5.55488 -0.632393,2.83302 -1.269556,5.66473 -1.914295,8.49481 -6.757119,29.85798 -9.104827,59.09828 -8.7788,89.64327 0.02858,3.1282 0.03714,6.25631 0.04511,9.38462 0.01043,3.82253 0.03077,7.64497 0.0529,11.46745 0.0076,1.3657 0.01529,2.73138 0.02317,4.13848 0.08531,8.45613 0.462085,16.84894 1.031091,25.28214 0.274102,4.4406 0.330981,8.82279 0.292364,13.2715 -0.0047,0.73572 -0.0094,1.47143 -0.01415,2.22944 -0.01176,1.74144 -0.0303,3.48285 -0.05055,5.22421 1.024894,0.35139 2.049786,0.70277 3.105738,1.06481 0.124274,0.8227 0.24855,1.6454 0.37659,2.49304 7.41959,48.62452 20.064196,95.35217 39.926464,140.22572 1.546459,3.57607 2.593264,6.88245 3.177264,10.7466 1.008204,6.60807 4.181568,12.22954 7.220942,18.05492 1.121636,2.16005 2.215012,4.33365 3.305404,6.51051 0.739176,1.46181 1.479192,2.92316 2.220116,4.38402 0.349136,0.69479 0.698274,1.38958 1.05799,2.10544 1.746098,3.68766 1.746098,3.68766 4.82997,6.08027 0.576498,1.4824 0.576498,1.4824 1.164652,2.99477 2.505314,6.28346 6.467168,11.69165 10.22305,17.23657 0.505274,0.74686 1.010546,1.49373 1.531127,2.26323 1.64187,2.42112 3.28896,4.83836 4.93916,7.25348 0.52505,0.76848 1.05008,1.53697 1.59104,2.32875 5.03501,7.33931 5.03501,7.33931 10.89661,13.97612 2.243,2.36069 4.0943,4.634 6.01737,7.254 3.92457,5.28817 8.27242,10.12775 12.66962,14.99464 2.23136,2.48549 4.40506,4.99972 6.54713,7.56596 3.08659,3.66842 6.38799,7.06072 9.75395,10.45673 1.74818,1.83527 3.308,3.71281 4.86889,5.71503 3.38856,4.17111 7.46331,7.31818 11.58586,10.68966 3.32585,2.88118 6.34711,5.94243 9.37787,9.14238 5.18511,5.43907 10.59174,10.23182 16.49922,14.84075 1.30155,1.03609 2.60228,2.07325 3.90239,3.11122 21.98654,17.49521 44.564,33.5711 68.56481,47.99953 0.7615,0.46121 1.52299,0.92239 2.30756,1.39756 27.59961,16.62608 58.45519,30.54774 89.40469,39.13167 3.22473,0.91184 6.33399,1.97464 9.48302,3.12787 7.35038,2.56822 14.88998,4.28709 22.44784,6.07273 3.76003,0.88869 7.50029,1.82949 11.23404,2.82839 9.99311,2.64031 19.63553,4.41631 29.92684,5.22081 7.04912,0.5819 13.82949,1.7819 20.71148,3.4518 17.5822,4.0562 35.7036,4.0797 53.62628,3.9886 1.67636,0 1.67636,0 3.38657,-0.01 14.91368,-0.04 29.79601,-0.3397 44.68766,-1.19 0.7529,-0.042 1.50581,-0.083 2.28153,-0.1263 7.62104,-0.437 15.05731,-1.1666 22.55046,-2.7073 5.47714,-1.0145 11.05127,-1.2988 16.59805,-1.6898 5.6882,-0.4786 9.79298,-1.7435 15.05555,-4.1286 4.34584,-1.1543 8.73993,-2.06026 13.13468,-2.99478 33.24428,-7.37322 68.33566,-18.2728 98.4737,-34.65201 2.73117,-1.44754 5.47133,-2.8057 8.2577,-4.13444 15.73975,-7.51072 30.36958,-16.2391 45.00337,-25.79246 4.19645,-2.71818 8.45221,-5.16637 12.86929,-7.49525 6.57745,-3.57332 12.28226,-8.00894 18.05664,-12.786 2.954,-2.42371 5.94971,-4.79121 8.94062,-7.1664 3.88935,-3.09343 7.76123,-6.20966 11.63035,-9.3298 1.04757,-0.84414 2.09516,-1.6883 3.17448,-2.55802 7.00266,-5.76427 13.51177,-12.01947 20.02957,-18.34714 3.06992,-2.97782 6.18796,-5.89205 9.34148,-8.77634 6.4881,-5.97731 12.53446,-12.23447 18.20981,-19.02927 2.00545,-2.35681 4.0615,-4.65927 6.13312,-6.95452 13.72816,-15.22945 29.31721,-32.88496 38.2409,-51.66812 2.10293,-4.40904 4.53406,-8.52086 7.10115,-12.65706 0.9207,-1.50569 1.84137,-3.01139 2.762,-4.51713 1.60546,-2.61168 3.22582,-5.21058 4.8608,-7.80303 4.20981,-6.78571 7.82067,-13.70133 11.20573,-20.95507 0.40376,-0.85763 0.80753,-1.71524 1.22353,-2.59885 0.37426,-0.82107 0.7485,-1.64216 1.13407,-2.4881 0.33221,-0.72603 0.66442,-1.45205 1.0067,-2.20008 0.94257,-2.38402 0.94257,-2.38402 1.20332,-5.12932 0.98451,-5.29658 3.02402,-10.05653 5.01245,-15.03156 0.43846,-1.1146 0.87691,-2.22921 1.32866,-3.37759 1.4046,-3.56986 2.81721,-7.13629 4.23174,-10.702 9.17425,-23.13204 18.11686,-46.22787 23.87535,-70.54348 0.28589,-1.18602 0.28589,-1.18602 0.57755,-2.39598 5.84592,-24.3723 9.54113,-49.1384 12.23362,-74.0705 0.6833,0 1.3665,0 2.0705,0 -0.071,-1.09679 -0.142,-2.19358 -0.2151,-3.32363 -0.6371,-10.60534 -0.9194,-21.18581 -1.0021,-31.81085 -0.019,-1.99388 -0.019,-1.99388 -0.037,-4.02802 -0.05,-5.50779 -0.1,-11.01534 -0.1181,-16.52334 -0.075,-18.69704 -1.4304,-36.64696 -4.36769,-55.10017 -0.69578,-4.65034 -1.18253,-9.31522 -1.63571,-13.99611 -1.04104,-10.46619 -1.04104,-10.46619 -4.01966,-20.48922 -1.00274,-2.67181 -1.50941,-5.03819 -1.933,-7.86127 -2.37678,-14.26608 -6.46301,-28.03397 -10.93478,-41.72714 -0.26555,-0.81685 -0.5311,-1.63372 -0.80468,-2.47533 -8.08438,-24.7682 -17.06047,-49.38502 -29.79977,-72.06119 -0.42254,-0.75682 -0.84508,-1.51363 -1.28042,-2.29339 -2.54894,-4.54685 -5.15034,-9.05929 -7.77344,-13.56122 -1.32585,-2.29426 -2.62749,-4.6015 -3.92312,-6.91395 -4.68382,-8.3407 -9.55122,-16.40763 -14.97466,-24.26181 -1.71566,-2.49877 -3.32798,-5.02395 -4.91742,-7.60755 -4.55156,-7.08767 -10.01459,-13.51521 -15.25975,-20.06237 -1.98003,-2.49036 -3.90684,-5.02181 -5.83338,-7.55607 -3.93661,-5.08482 -8.18509,-9.83079 -12.4917,-14.58287 -2.08697,-2.30639 -4.08915,-4.67072 -6.07801,-7.06682 -4.82087,-5.68964 -10.03011,-10.9874 -15.22565,-16.31085 -1.72315,-1.76664 -3.44069,-3.53892 -5.15777,-5.31181 -5.77292,-5.94182 -11.61006,-11.73605 -17.85597,-17.15547 -1.05767,-0.94595 -2.11452,-1.89285 -3.17044,-2.84087 -17.01715,-15.01261 -35.3828,-28.39877 -54.11585,-41.044995 -2.55421,-1.760425 -5.01102,-3.612998 -7.48127,-5.494577 -11.0157,-7.983915 -23.67318,-13.744149 -35.73468,-19.860371 -3.53425,-1.799461 -7.02788,-3.65182 -10.48743,-5.599343 -9.0179,-5.072687 -17.94569,-9.268249 -27.64833,-12.750648 -2.22007,-0.811848 -4.42013,-1.666952 -6.61991,-2.535157 -33.72655,-13.255473 -68.51722,-21.881097 -104.13267,-27.535772 -3.41037,-0.565196 -6.79289,-1.21503 -10.17427,-1.939582 -13.7862,-2.8263 -27.74176,-3.019961 -41.7604,-3.105254 -0.70509,-0.0053 -1.41018,-0.01033 -2.13664,-0.0157 -5.32537,-0.03855 -10.65063,-0.05611 -15.97611,-0.06334 -0.78372,-0.0012 -1.56744,-0.0025 -2.37491,-0.0037 -25.11273,-0.02723 -49.81998,0.697146 -74.68619,4.595709 -1.4856,0.225038 -2.97124,0.449817 -4.45692,0.674343 -30.1176,4.624196 -59.68656,11.813928 -88.32697,22.485217 -1.1765,0.437919 -1.1765,0.437919 -2.37676,0.884686 -7.85326,2.946891 -15.54321,5.995782 -22.89906,10.124736 -2.02879,0.969661 -2.02879,0.969661 -5.71685,1.368964 -5.39964,-2.221533 -9.71399,-6.00496 -12.87587,-11.047377 -0.42057,-3.202741 -0.42057,-3.202741 1.03525,-6.388844 3.39171,-2.258382 7.0856,-3.577297 10.87008,-4.991284 1.14992,-0.448069 2.29984,-0.896138 3.4846,-1.357785 3.16821,-1.216879 6.34473,-2.403995 9.53122,-3.569158 1.99151,-0.728481 3.98025,-1.464558 5.96891,-2.201236 42.23484,-15.559228 85.92976,-25.28447 130.60827,-29.4080239 1.50567,-0.1394822 1.50567,-0.1394822 3.04176,-0.2817831 8.288,-0.7136488 16.51809,-0.96822829 24.83303,-0.99931321 z"
     style="fill:#bbd12f;stroke-width:1.04992"
     id="path87" />
  <path
     d="m 502.70041,313.09489 c 0.64703,1.99652 0.64703,1.99652 1.03525,4.25923 -0.68326,0.70277 -1.36653,1.40555 -2.07049,2.12962 -1.17899,12.01166 -0.12777,22.09811 5.17622,33.00903 0.46174,1.01572 0.92347,2.03145 1.3992,3.07795 6.00855,12.36026 15.01881,21.35074 26.71824,28.00942 4.489,1.30832 8.85425,0.89063 13.4865,0.72375 7.24231,-0.1525 12.83,0.0509 19.41894,3.42735 4.46112,2.02382 9.0249,1.84799 13.57547,0.18716 4.32825,-2.12612 8.32862,-4.84986 12.36229,-7.50772 2.66999,-1.67348 5.44364,-3.04652 8.2577,-4.44225 3.01461,-1.6042 5.82492,-3.49939 8.65401,-5.42386 1.72271,-1.01489 1.72271,-1.01489 3.79321,-1.01489 0,-0.70277 0,-1.40554 0,-2.12961 5.12446,-1.05416 10.24893,-2.10832 15.52868,-3.19443 0,2.10833 0,4.21665 0,6.38885 -1.02489,0.52708 -1.02489,0.52708 -2.07049,1.06481 -0.40301,1.76171 -0.73376,3.54097 -1.03525,5.32403 -2.17853,9.56581 -7.39417,17.33713 -12.42294,25.55538 -1.21419,2.01118 -2.42463,4.02465 -3.63271,6.03972 -1.02542,1.70487 -2.06254,3.4023 -3.10044,5.09917 -1.66502,2.69094 -1.66502,2.69094 -2.58407,5.89802 -1.45771,1.24947 -2.91934,2.49454 -4.40384,3.71019 -3.98499,3.55779 -7.29324,7.87759 -10.59105,12.09972 -1.17623,1.50515 -2.40319,2.96813 -3.63953,4.42144 -0.68326,0 -1.36652,0 -2.07049,0 -0.39034,0.92033 -0.39034,0.92033 -0.78857,1.85924 -1.44242,2.70047 -3.13697,4.52484 -5.2288,6.72577 -8.65999,9.81256 -11.26621,21.79092 -13.06189,34.57297 -0.74932,4.68767 -1.83211,9.25357 -2.98846,13.85081 -1.93276,10.06477 -1.96457,20.30942 -1.99163,30.53418 -0.0104,2.28948 -0.0423,4.57793 -0.0749,6.86718 -0.0948,12.69871 0.83044,26.09475 8.60548,36.56115 3.04532,2.77429 4.95661,3.59042 9.00987,3.627 1.39522,0.035 1.39522,0.035 2.81862,0.0707 0.96484,0.009 1.92969,0.0192 2.92377,0.029 10.8412,0.10978 18.37354,1.79972 26.53625,9.62901 8.83537,10.5464 10.39577,22.24392 9.43856,35.62535 -1.59974,6.59113 -5.29116,12.65127 -10.35245,17.03692 -3.01466,1.72031 -6.09068,3.02469 -9.31721,4.25923 -0.68327,0.35139 -1.36653,0.70277 -2.0705,1.06481 -11.04024,0.93431 -20.55848,-0.53381 -29.24973,-7.89039 -9.05093,-8.47633 -11.47376,-17.66176 -12.07922,-29.91859 -0.0401,-1.31359 -0.0401,-1.31359 -0.0809,-2.65371 -1.36653,0.70278 -2.73305,1.40556 -4.14098,2.12962 -0.69315,12.35761 3.2202,22.57461 9.3172,33.00903 -1.96331,-0.12238 -3.92583,-0.25811 -5.88796,-0.3993 -1.09294,-0.0741 -2.1859,-0.14824 -3.31197,-0.22462 -3.12652,-0.42768 -5.54279,-1.22958 -8.39926,-2.5705 0,-0.70277 0,-1.40554 0,-2.12962 1.36652,-0.70277 2.73305,-1.40554 4.14098,-2.12961 -7.17425,-0.35139 -14.34851,-0.70277 -21.74016,-1.06481 0,1.40554 0,2.8111 0,4.25923 -4.4412,0 -8.88241,0 -13.45819,0 0,-1.40554 0,-2.81109 0,-4.25923 -0.73164,0.15219 -1.46328,0.30437 -2.21708,0.46118 -8.22327,1.57677 -16.0909,1.92783 -24.4405,1.80154 -1.22774,-0.009 -2.45548,-0.0193 -3.72041,-0.029 -2.98735,-0.0248 -5.97423,-0.0597 -8.96135,-0.10403 0.54897,-3.00127 1.17645,-5.7512 2.1352,-8.65156 1.95454,-8.30948 2.2656,-17.87816 -2.1352,-25.42227 -2.85961,-3.14351 -5.77144,-6.0089 -8.90473,-8.8637 -2.90777,-3.33665 -3.65335,-4.76815 -3.51822,-9.23803 1.14175,-2.88756 2.71223,-5.4277 4.33509,-8.0526 8.26634,-14.35629 11.74874,-28.991 8.40329,-45.55796 -3.76284,-11.82225 -11.68224,-18.21357 -22.05559,-24.12038 -6.61202,-2.90499 -13.39628,-5.01987 -20.3167,-6.9878 -3.85511,-1.13478 -6.1773,-2.41 -8.67018,-5.78989 1.79357,-0.42825 1.79357,-0.42825 3.62336,-0.86516 5.54119,-2.07528 7.95957,-6.37963 11.11676,-11.28029 1.82382,-2.76185 1.82382,-2.76185 3.55057,-4.52544 1.65986,-1.51084 1.65986,-1.51084 2.41423,-4.62525 0.99286,-0.36237 0.99286,-0.36237 2.00578,-0.73206 2.66974,-1.74743 2.6956,-2.70089 3.42926,-5.78989 0.25622,-1.36163 0.51244,-2.72324 0.77643,-4.12613 -2.04979,0 -4.09957,0 -6.21147,0 -0.10676,-0.98828 -0.21352,-1.97655 -0.32352,-2.99477 -0.76018,-3.62511 -1.06032,-4.40186 -3.81746,-6.5885 -2.94249,-0.95854 -5.89163,-1.61271 -8.90474,-2.29598 -0.81938,-0.29649 -1.63876,-0.59298 -2.48297,-0.89844 -0.34163,-1.05416 -0.68326,-2.10831 -1.03525,-3.19442 0.97685,-0.092 1.95371,-0.18393 2.96016,-0.27868 15.75605,-1.77355 28.96367,-7.09107 39.26251,-20.0608 2.23786,-3.59699 3.29155,-7.5122 4.36339,-11.60474 0.51245,-1.58124 0.51245,-1.58124 1.03525,-3.19442 1.36652,0 2.73305,0 4.14098,0 -0.12013,-2.77364 -0.25125,-5.54603 -0.38822,-8.31881 -0.0319,-0.76522 -0.0641,-1.53045 -0.0971,-2.31886 -0.22891,-4.45387 -0.74175,-8.68891 -1.6014,-13.06262 -1.24161,-6.68565 -1.39956,-13.23114 -1.40728,-20.02336 -0.0253,-1.17839 -0.0508,-2.35676 -0.0768,-3.57085 -0.03,-8.71475 1.00181,-16.58712 6.72505,-23.3613 0.66726,-0.57786 1.33451,-1.15573 2.02197,-1.7511 1.14272,-1.51398 2.26408,-3.04525 3.36455,-4.59198 4.34579,-5.83783 9.32921,-10.50101 15.26987,-14.57456 z"
     style="fill:#cbc3be;stroke-width:1.04992"
     id="path89" />
  <path
     d="m 493.30636,0.89004734 c 1.33948,-0.007454 2.67894,-0.0149392 4.05901,-0.0226271 4.30176,-0.0206679 8.60347,-0.0260239 12.90528,-0.0272804 0.73245,-4.7064e-4 1.46491,-9.4129e-4 2.21956,-0.001384 21.7402,-0.007373 43.18161,0.29445446 64.74789,3.46200276 1.32549,0.1827274 2.65097,0.3654557 4.01663,0.5537212 85.71552,11.8561152 171.96734,45.2620422 240.53489,100.2010802 1.77953,1.42085 3.57226,2.82153 5.37134,4.21607 8.04044,6.25137 15.7522,12.84167 23.382,19.61159 0.766,0.67945 1.532,1.35888 2.32122,2.0589 1.99746,1.78635 3.97957,3.58931 5.96075,5.39475 1.0922,0.98789 1.0922,0.98789 2.20647,1.99573 6.60591,6.03418 12.91237,12.32506 19.14421,18.761 1.62423,1.67636 3.25399,3.34691 4.88431,5.01702 5.62071,5.77705 11.07821,11.63802 16.21008,17.88335 0.90778,1.07519 1.81627,2.14975 2.7256,3.22353 7.73954,9.29563 14.999,18.91834 22.1203,28.7207 0.54714,0.74772 1.09428,1.49544 1.658,2.26583 15.13958,20.75933 28.07233,42.90149 39.75182,65.88184 0.75366,1.46336 0.75366,1.46336 1.52254,2.95629 25.90327,50.49522 42.03904,105.70424 49.94254,162.10828 0.2771,1.96784 0.5657,3.93396 0.8553,5.89991 5.7525,40.66001 5.4189,86.59243 -0.5581,127.18158 -0.2027,1.43924 -0.4049,2.87857 -0.6066,4.31798 -7.9245,55.78774 -24.67229,108.16027 -49.08519,158.59754 -0.68984,1.43403 -0.68984,1.43403 -1.39363,2.89702 -11.07038,22.86721 -24.14785,44.7598 -38.98095,65.25065 -0.43388,0.60052 -0.86775,1.20103 -1.31478,1.81973 -2.95002,4.05849 -5.9728,8.0554 -9.03767,12.02277 -0.52463,0.67961 -1.04926,1.35922 -1.58977,2.05942 -6.3456,8.19038 -12.78167,16.22731 -19.72174,23.89526 -1.92371,2.15155 -3.77303,4.3294 -5.61702,6.55106 -4.84005,5.70801 -10.06419,11.0267 -15.27821,16.36908 -1.72315,1.76664 -3.44069,3.53892 -5.15777,5.31181 -5.77281,5.94171 -11.60886,11.73761 -17.85597,17.15547 -1.04546,0.93356 -2.09017,1.868 -3.13404,2.80343 -9.03683,7.9599 -18.38698,15.43682 -27.92333,22.75194 -0.75449,0.57975 -1.50899,1.15951 -2.28634,1.75683 -8.87378,6.78739 -17.9053,13.27023 -27.21816,19.40622 -0.84857,0.56491 -1.69716,1.12983 -2.57144,1.71186 -0.78485,0.50845 -1.5697,1.01692 -2.37833,1.54079 -0.69461,0.45279 -1.38921,0.90558 -2.10486,1.37209 -0.57584,0.27469 -1.15167,0.54938 -1.74496,0.83239 -0.68327,-0.35138 -1.36653,-0.70277 -2.07049,-1.0648 0.7474,-0.52026 0.7474,-0.52026 1.5099,-1.05103 22.01138,-15.34579 43.56279,-31.11778 63.71057,-48.99492 0.766,-0.67945 1.532,-1.35888 2.32122,-2.0589 1.99748,-1.78636 3.98132,-3.58729 5.96075,-5.39475 0.8047,-0.72885 1.6094,-1.45771 2.43849,-2.20864 5.61763,-5.13306 10.95377,-10.4598 16.16358,-16.03035 2.10284,-1.99235 2.10284,-1.99235 4.17333,-1.99235 0.26557,-0.62453 0.53114,-1.24907 0.80474,-1.89252 1.38143,-2.583 2.86505,-4.15057 4.95382,-6.16008 4.21931,-4.22229 7.87242,-8.76244 11.55351,-13.48064 2.21774,-2.78189 4.51755,-5.4363 6.8868,-8.08171 5.7641,-6.51015 10.96237,-13.45449 16.17572,-20.431 1.00487,-1.33416 1.00487,-1.33416 2.03005,-2.69529 2.84083,-3.72382 2.84083,-3.72382 5.05086,-7.84464 1.20105,-2.23776 1.20105,-2.23776 3.60719,-4.66685 3.2116,-3.35636 5.40223,-6.86715 7.75221,-10.881 0.4483,-0.75287 0.89662,-1.50574 1.35851,-2.28143 0.91204,-1.5324 1.82137,-3.06651 2.72788,-4.60238 1.80454,-3.04571 3.65178,-6.06377 5.48963,-9.08829 3.4594,-5.78473 6.70288,-11.67404 9.90636,-17.61067 3.14559,-5.80242 6.50561,-11.43461 9.98168,-17.03301 1.96022,-3.4622 3.4261,-6.90307 4.89316,-10.61065 -0.762,0.15374 -1.524,0.30748 -2.30909,0.46586 -1.01021,0.19765 -2.02043,0.39531 -3.06125,0.59895 -0.99687,0.19766 -1.99374,0.39532 -3.02082,0.59896 -2.78269,0.43261 -5.36489,0.55034 -8.17278,0.46585 -1.26564,-3.70654 -0.82101,-5.64929 0.61645,-9.24142 0.38788,-0.98653 0.77575,-1.97307 1.17538,-2.98952 0.43225,-1.06575 0.86451,-2.13151 1.30986,-3.22956 0.4414,-1.11762 0.88279,-2.23523 1.33755,-3.38672 1.42098,-3.59394 2.85719,-7.18116 4.29565,-10.76773 9.25098,-23.17168 18.23077,-46.2955 24.00476,-70.67659 0.28589,-1.18601 0.28589,-1.18601 0.57755,-2.39598 5.84592,-24.3723 9.54113,-49.1384 12.23363,-74.0705 0.6833,0 1.3665,0 2.0705,0 -0.071,-1.09679 -0.142,-2.19358 -0.2151,-3.32363 -0.6371,-10.60534 -0.9194,-21.18581 -1.0021,-31.81085 -0.019,-1.99387 -0.019,-1.99387 -0.037,-4.02802 -0.05,-5.50779 -0.1,-11.01533 -0.1181,-16.52333 -0.075,-18.69704 -1.43041,-36.64697 -4.3677,-55.10018 -0.69578,-4.65033 -1.18253,-9.31522 -1.63571,-13.99611 -1.04104,-10.46619 -1.04104,-10.46619 -4.01966,-20.48921 -1.00274,-2.67181 -1.50941,-5.0382 -1.933,-7.86127 -2.37678,-14.26609 -6.46301,-28.03397 -10.93478,-41.72715 -0.26555,-0.81685 -0.5311,-1.63372 -0.80468,-2.47533 -8.08438,-24.7682 -17.06047,-49.38502 -29.79977,-72.06118 -0.42254,-0.75683 -0.84508,-1.51364 -1.28042,-2.2934 -2.54894,-4.54685 -5.15034,-9.05929 -7.77344,-13.56121 -1.32585,-2.29426 -2.62749,-4.6015 -3.92312,-6.91396 -4.68382,-8.34069 -9.55122,-16.40763 -14.97466,-24.26181 -1.71566,-2.49877 -3.32798,-5.02395 -4.91742,-7.60755 -4.55156,-7.08767 -10.01459,-13.51521 -15.25975,-20.06236 -1.98003,-2.49037 -3.90684,-5.02182 -5.83338,-7.55608 -3.93661,-5.08481 -8.18509,-9.83079 -12.4917,-14.58286 -2.08697,-2.3064 -4.08915,-4.67073 -6.07801,-7.06683 -4.82087,-5.68964 -10.03011,-10.9874 -15.22565,-16.31085 -1.72315,-1.76664 -3.44069,-3.53892 -5.15777,-5.31181 -5.77292,-5.94181 -11.61006,-11.73604 -17.85597,-17.15547 -1.05767,-0.94595 -2.11452,-1.89285 -3.17044,-2.84087 -17.01715,-15.01261 -35.3828,-28.39877 -54.11585,-41.044992 -2.55421,-1.760425 -5.01102,-3.612998 -7.48127,-5.494577 -11.0157,-7.983915 -23.67318,-13.744149 -35.73468,-19.860371 -3.53425,-1.799461 -7.02788,-3.651821 -10.48743,-5.599343 -9.0179,-5.072687 -17.94569,-9.268249 -27.64833,-12.750648 -2.22007,-0.811848 -4.42013,-1.666952 -6.61991,-2.535157 C 658.10035,40.409089 623.30968,31.783465 587.69423,26.12879 c -3.41037,-0.565197 -6.79289,-1.21503 -10.17427,-1.939582 -13.7862,-2.8263 -27.74176,-3.019961 -41.7604,-3.105255 -0.70509,-0.0053 -1.41018,-0.01033 -2.13664,-0.0157 -5.32537,-0.03855 -10.65063,-0.05611 -15.97611,-0.06333 -0.78372,-0.0012 -1.56744,-0.0025 -2.37491,-0.0037 -25.11273,-0.02723 -49.81998,0.697147 -74.68619,4.59571 -1.4856,0.225038 -2.97124,0.449817 -4.45692,0.674343 -30.1176,4.624196 -59.68656,11.813928 -88.32697,22.485217 -0.78434,0.291947 -1.56866,0.583893 -2.37676,0.884685 -7.85326,2.946892 -15.54321,5.995782 -22.89906,10.124737 -2.02879,0.969661 -2.02879,0.969661 -5.71685,1.368964 -5.39964,-2.221533 -9.71399,-6.00496 -12.87587,-11.047377 -0.42057,-3.202741 -0.42057,-3.202741 1.03525,-6.388844 3.39171,-2.258382 7.0856,-3.577297 10.87008,-4.991284 1.72487,-0.672104 1.72487,-0.672104 3.4846,-1.357785 3.16821,-1.216879 6.34473,-2.403996 9.53122,-3.569159 1.99151,-0.72848 3.98025,-1.464557 5.96891,-2.201235 42.23484,-15.559228 85.92976,-25.2844697 130.60827,-29.4080236 1.00378,-0.09299 2.00756,-0.185977 3.04176,-0.2817831 8.288,-0.7136487 16.51809,-0.96822831 24.83303,-0.99931323 z"
     style="fill:#e2e338;stroke-width:1.04992"
     id="path91" />
  <path
     d="m 295.78296,49.847529 c 15.04618,10.125564 25.28896,36.231702 29.26262,53.214371 1.05489,5.81428 1.13248,11.53536 1.08074,17.43597 -0.007,1.25335 -0.0141,2.50671 -0.0216,3.79804 -0.55211,31.13306 -13.96755,58.15915 -34.40044,80.52138 -17.25689,17.10371 -41.63965,27.11552 -65.47727,26.85936 -1.21494,-0.0264 -1.21494,-0.0264 -2.45441,-0.0533 -2.48225,-0.0531 -4.96238,-0.0655 -7.44513,-0.0715 -12.40661,-0.0909 -24.04784,-1.12585 -35.65329,-5.97083 -1.19604,-0.49118 -1.19604,-0.49118 -2.41624,-0.99227 -6.58539,-2.79182 -12.48105,-6.16713 -18.22392,-10.52105 -1.20905,-0.89151 -1.20905,-0.89151 -2.44254,-1.80102 -12.52832,-9.74879 -23.79422,-21.48005 -31.72057,-35.46724 5.34288,-8.04186 11.90647,-14.66394 18.60965,-21.48981 1.95938,-1.9959 3.91034,-4.00016 5.86016,-6.00593 6.16114,-6.3186 12.34177,-12.53409 19.01051,-18.29098 1.04564,-0.93334 2.09037,-1.86777 3.13404,-2.80344 9.03683,-7.9599 18.38698,-15.43681 27.92333,-22.75194 0.75449,-0.57975 1.50899,-1.1595 2.28634,-1.75682 22.22528,-16.999703 45.92182,-31.355595 70.43967,-44.562295 0.97318,-0.524334 1.94637,-1.048669 2.94903,-1.588891 2.71539,-1.446928 5.44334,-2.863456 8.17986,-4.267549 0.86409,-0.457077 1.72818,-0.914154 2.61845,-1.385081 0.81738,-0.410409 1.63475,-0.820818 2.4769,-1.243662 0.71629,-0.367171 1.43258,-0.734342 2.17058,-1.112641 2.05128,-0.517845 2.05128,-0.517845 4.25346,0.307016 z"
     style="fill:#fde14f;stroke-width:1.04992"
     id="path93" />
  <path
     d="m 506.84139,307.77085 c 1.0249,0.52708 1.0249,0.52708 2.0705,1.06481 -0.0217,0.62599 -0.0433,1.252 -0.0657,1.89695 -0.61317,20.46706 1.19819,37.85712 14.23564,54.3382 6.49808,6.92059 13.47389,11.10316 22.93311,11.59226 2.44915,0.0265 4.89878,0.0219 7.34783,-0.0125 2.46813,-0.009 4.93635,-0.006 7.40443,0.0125 1.61528,-0.0192 1.61528,-0.0192 3.26319,-0.0387 3.27585,0.4119 4.49027,1.44029 6.99626,3.55344 5.76704,0.72133 9.64988,-0.75782 14.55814,-3.66028 0.67133,-0.37926 1.34267,-0.75854 2.03435,-1.1493 4.00442,-2.30109 7.81809,-4.806 11.60278,-7.46743 10.33036,-7.22677 22.20447,-12.50539 34.95473,-11.14873 0.68327,0.35139 1.36653,0.70277 2.07049,1.06481 1.24714,23.76649 -9.70102,43.01644 -22.7754,61.75882 -0.44106,0.63363 -0.8821,1.26726 -1.33652,1.92008 -5.13831,7.30403 -10.42236,13.71857 -17.2979,19.37607 -5.32422,4.61349 -9.84821,8.76645 -13.4582,14.9073 -0.50444,0.48316 -1.00887,0.96631 -1.5286,1.46411 -6.30281,6.91498 -6.9516,19.18613 -8.44321,28.2226 -0.64083,3.80068 -1.35721,7.58652 -2.06292,11.37493 -1.88445,10.18114 -2.70992,19.95625 -2.76428,30.30489 -0.0119,1.57341 -0.0331,3.14675 -0.0637,4.71989 -0.21752,11.20698 0.13729,21.88962 7.22777,31.05983 3.65039,3.75462 5.69041,3.73575 10.74067,3.99302 13.13679,0.99593 23.70593,5.34015 32.93375,15.24006 9.02633,11.12772 10.77882,21.18921 9.74992,35.3466 -1.03812,9.80869 -6.55299,17.19058 -13.69681,23.55055 -1.02489,0 -2.04979,0 -3.10574,0 0,0.70277 0,1.40554 0,2.12962 -11.36742,4.87711 -22.81667,6.74148 -34.55132,1.99651 -9.60843,-4.73523 -16.62263,-9.50468 -21.54605,-19.36618 -2.13855,-7.27566 -3.43993,-14.42093 -2.91163,-22.0282 2.07049,-2.12962 2.07049,-2.12962 5.17623,-2.12962 0.16414,1.19553 0.32828,2.39108 0.4974,3.62283 1.72027,11.68503 3.57867,21.42999 13.06998,29.08672 8.77768,6.10575 17.30039,7.68159 27.84244,6.68832 6.58681,-1.89449 13.14602,-5.5773 16.7904,-11.70456 4.57538,-9.17676 5.33519,-18.8253 3.20683,-28.92033 -3.49727,-10.64216 -9.24609,-18.0125 -18.96198,-23.26355 -3.08264,-0.97017 -5.8669,-1.19506 -9.08267,-1.21455 -0.93948,-0.0206 -1.87897,-0.0412 -2.84692,-0.0624 -1.95973,-0.0358 -3.91982,-0.0555 -5.87988,-0.0582 -8.03687,-0.22246 -8.03687,-0.22246 -11.68695,-3.16114 -2.46016,-2.80238 -3.99761,-5.03392 -5.44312,-8.48102 -0.60053,-1.37329 -0.60053,-1.37329 -1.21319,-2.77432 -3.13607,-9.59508 -3.51406,-18.96895 -3.45654,-29.00171 0.011,-2.27541 10e-5,-4.54993 -0.0131,-6.82531 -0.0136,-13.43017 1.37689,-26.17435 4.78801,-39.18366 0.63863,-2.7976 0.93841,-5.40261 1.12421,-8.26474 1.08707,-13.4174 7.12611,-25.68357 16.71356,-34.73934 1.59252,-1.42685 1.59252,-1.42685 2.50319,-3.59373 0.68326,0 1.36652,0 2.07049,0 0.26157,-0.61905 0.52312,-1.23808 0.79261,-1.8759 1.42673,-2.66094 3.02314,-4.35147 5.16006,-6.44291 2.80295,-2.79388 5.41251,-5.61915 7.89374,-8.7181 0.89679,-1.05417 1.79357,-2.10833 2.71752,-3.19443 0.68326,0 1.36653,0 2.07049,0 0.0975,-0.75219 0.19484,-1.50436 0.29521,-2.27936 0.87748,-3.61014 2.34026,-6.03837 4.2987,-9.16732 0.7466,-1.22071 1.49196,-2.44224 2.23629,-3.66444 0.39918,-0.65078 0.79836,-1.30156 1.20964,-1.97208 9.32653,-14.40269 9.32653,-14.40269 13.70032,-30.8331 1.0249,-0.3514 2.04979,-0.70279 3.10574,-1.06481 -0.34163,-1.75694 -0.68326,-3.51387 -1.03525,-5.32404 -1.56936,0.52708 -1.56936,0.52708 -3.17044,1.06481 -3.82243,1.13934 -7.33987,1.23202 -11.32299,1.06481 0,0.70277 0,1.40554 0,2.12961 -0.60053,0.3349 -1.20105,0.66982 -1.81977,1.01489 -3.6095,2.03395 -7.13388,4.05454 -10.53848,6.43875 -3.55234,2.38615 -7.22679,4.23043 -11.03588,6.13928 -2.13163,1.12656 -4.07507,2.31515 -6.04567,3.7102 -4.81317,3.3809 -9.41668,3.63403 -15.07577,2.92821 -1.48836,-0.66019 -2.95474,-1.37444 -4.39979,-2.12961 -5.62149,-2.62736 -10.7877,-2.25607 -16.82275,-2.06306 -8.2947,0.19386 -14.47489,0.11465 -21.22253,-5.39059 -0.9515,-0.77552 -1.90299,-1.55105 -2.88333,-2.35006 -11.19079,-9.83725 -20.99798,-24.02338 -24.03306,-39.17743 -0.22031,-3.23637 -0.19161,-6.4728 -0.19411,-9.71636 -0.0126,-0.8771 -0.0253,-1.75419 -0.0385,-2.65786 -0.005,-2.26551 0.10559,-4.53058 0.23253,-6.79231 0.68326,-0.70277 1.36652,-1.40555 2.07049,-2.12962 0,-1.05416 0,-2.10831 0,-3.19442 -6.2287,4.73081 -11.45659,9.4185 -16.018,15.87645 -1.38783,1.95318 -2.84469,3.70298 -4.4281,5.48625 -5.89597,7.91732 -5.89263,15.67438 -5.75856,25.28918 -0.005,1.7758 -0.005,1.7758 -0.0104,3.58748 0.0418,6.68848 0.65274,12.88831 1.94538,19.43611 0.70294,4.18541 0.68415,8.28003 0.58815,12.51435 -0.009,0.81052 -0.0187,1.62104 -0.0283,2.45613 -0.0239,1.95438 -0.0609,3.90857 -0.10112,5.86268 -1.36652,0 -2.73305,0 -4.14098,0 -0.0774,0.66983 -0.1548,1.33966 -0.23454,2.02979 -1.51025,10.11211 -6.37193,16.39126 -13.94752,22.81849 -10.06264,7.4859 -20.37622,9.68421 -32.40377,11.35517 0,0.70278 0,1.40555 0,2.12961 0.77401,0.10436 1.54802,0.20865 2.34547,0.31612 8.31773,1.29896 8.31773,1.29896 11.75975,3.74346 1.57836,2.58272 2.1326,4.6345 2.45871,7.6533 1.70816,0.35139 3.41631,0.70277 5.17623,1.06481 0.23492,3.54389 0.33296,5.76914 -1.35876,8.91777 -1.74698,1.73031 -1.74698,1.73031 -4.85271,1.73031 -0.1121,0.63002 -0.2242,1.26005 -0.3397,1.90916 -0.77998,2.63535 -1.73471,3.86929 -3.54248,5.87724 -2.22924,2.53254 -4.10604,5.0394 -5.88795,7.9195 -2.67375,3.99933 -5.48173,5.14039 -9.89954,6.65505 5.049,2.90818 9.80006,4.78192 15.39928,6.3223 13.62446,3.8694 25.24448,10.67916 33.09551,23.09717 5.1642,10.89249 4.79041,25.06219 1.58522,36.53204 -2.55093,7.38578 -6.03726,14.38784 -10.47782,20.76374 -1.734,3.64483 -1.5237,5.2912 -0.26286,9.11741 2.47682,2.95183 2.47682,2.95183 5.56445,5.65679 6.80169,6.57914 8.90688,11.80917 9.38191,21.29615 -0.14324,4.63167 -1.06756,8.45544 -2.55171,12.82344 -0.38026,1.13129 -0.7605,2.26257 -1.15227,3.42813 -0.29368,0.85213 -0.58735,1.70426 -0.88992,2.58221 4.40006,-0.14791 8.79973,-0.30594 13.19938,-0.46585 1.24909,-0.0418 2.49818,-0.0837 3.78512,-0.12687 1.20105,-0.0446 2.40209,-0.0892 3.63953,-0.13517 1.10598,-0.039 2.21194,-0.0781 3.35141,-0.11829 2.51895,-0.18725 4.66233,-0.59337 7.08193,-1.28344 1.46524,-0.0688 2.93325,-0.0917 4.3998,-0.0665 1.92167,0.0329 1.92167,0.0329 3.88217,0.0665 0,1.40555 0,2.8111 0,4.25923 4.4412,0 8.8824,0 13.45819,0 0,-1.40554 0,-2.81108 0,-4.25923 7.51589,0 15.03177,0 22.77541,0 -0.68326,1.05417 -1.36653,2.10832 -2.0705,3.19442 -1.02489,0 -2.04978,0 -3.10573,0 0,0.70278 0,1.40556 0,2.12962 1.70815,0.35138 3.41631,0.70277 5.17623,1.06481 0,0.35138 0,0.70277 0,1.0648 -8.36109,0.82269 -16.65114,1.24051 -25.04809,1.32686 -2.3657,0.035 -4.73141,0.0703 -7.0971,0.10605 -3.67068,0.0505 -7.34134,0.098 -11.01212,0.1396 -3.58293,0.0424 -7.16552,0.0973 -10.74826,0.15363 -1.08512,0.008 -2.17024,0.0179 -3.28825,0.0272 -9.37888,0.16028 -17.84853,1.67853 -26.66108,5.03484 -1.24376,0.46257 -2.4875,0.92514 -3.76895,1.40172 -3.36358,1.29047 -3.36358,1.29047 -6.04972,2.68697 -9.81166,4.88933 -22.57489,4.7349 -32.82051,1.1688 -1.68528,-0.76598 -3.35027,-1.58248 -4.98212,-2.46237 -0.68594,-0.36098 -1.37187,-0.72199 -2.07858,-1.09392 -7.47852,-4.67852 -11.08992,-12.92762 -13.3207,-21.33358 -2.35585,-11.39009 -1.41577,-21.20361 4.57368,-31.4035 5.30944,-7.42304 10.83202,-12.95233 19.81929,-14.71598 10.6552,-1.34055 20.22069,-1.42043 30.34564,2.52892 0,-1.40554 0,-2.81109 0,-4.25923 1.43711,-1.60579 1.43711,-1.60579 3.10574,-3.19442 1.04338,-1.95946 1.04338,-1.95946 1.85211,-4.12196 0.31228,-0.7872 0.62455,-1.57438 0.94628,-2.38543 0.31494,-0.81738 0.62989,-1.63477 0.95437,-2.47692 0.32295,-0.81327 0.6459,-1.62654 0.97863,-2.46444 4.37917,-11.15378 5.59626,-23.91978 2.68517,-35.71472 -5.7853,-12.87943 -18.14577,-18.00301 -30.19197,-23.11381 -2.08419,-0.77695 -4.17514,-1.53533 -6.27617,-2.26271 -10.24239,-3.69673 -20.31393,-12.84447 -25.07236,-22.90167 -0.90173,-3.05465 -0.88761,-5.73556 -0.74408,-8.90945 -1.70816,0 -3.41631,0 -5.17623,0 -2.48845,-5.73824 -3.03578,-10.82527 -2.07049,-17.03692 1.65356,-3.584 3.70775,-6.57571 6.21147,-9.58326 0.45239,-0.57101 0.90478,-1.14201 1.37089,-1.73031 4.59844,-3.88082 10.65751,-4.03871 16.35769,-4.59199 15.44189,-1.7285 30.35818,-4.90059 40.57274,-17.91871 0.57516,-0.78512 1.15034,-1.57025 1.74293,-2.37917 0.52179,-0.67532 1.04358,-1.35065 1.58117,-2.04644 6.23291,-8.39917 6.22009,-16.51483 5.66555,-26.70337 -0.64046,-4.77127 -1.62579,-9.27586 -3.10574,-13.84248 -1.74198,-22.26096 3.33411,-36.67059 17.23927,-53.81853 6.16003,-6.63112 12.1513,-10.39735 21.06482,-10.06992 z"
     style="fill:#5b595d;stroke-width:1.04992"
     id="path95" />
  <path
     d="m 121.73,185.31801 c 4.2237,3.05276 6.47099,5.64822 8.28197,10.64807 0.4845,4.52749 0.48652,6.71055 -2.01793,10.53578 -0.93033,1.04957 -1.87643,2.08451 -2.83479,3.10707 -16.74617,19.11183 -29.611679,41.60545 -42.319713,63.65343 -2.082584,3.5983 -4.192518,7.17953 -6.303724,10.76012 -2.027913,3.57283 -3.788314,7.24396 -5.53285,10.97068 -0.683262,0 -1.366526,0 -2.070492,0 -0.584509,1.93126 -0.584509,1.93126 -1.180827,3.90152 -2.211677,6.82185 -5.074055,13.3421 -7.877573,19.92355 -5.972912,14.17763 -11.5638,28.34421 -15.88455,43.15797 -0.371324,1.27156 -0.742647,2.5431 -1.125224,3.85317 -0.727599,2.51954 -1.441778,5.04321 -2.141259,7.57115 -0.488927,1.71173 -0.488927,1.71173 -0.98773,3.45803 -0.426873,1.53827 -0.426873,1.53827 -0.862368,3.10759 -0.49393,1.15891 -0.49393,1.15891 -0.997839,2.34123 -1.024894,0.35139 -2.049787,0.70277 -3.105738,1.06481 0.03905,1.38487 0.07807,2.76974 0.118286,4.19658 -0.0047,5.19363 -0.842193,9.87384 -2.010845,14.90756 -0.406029,1.85156 -0.811759,3.70319 -1.217221,5.55488 -0.632393,2.83302 -1.269556,5.66473 -1.914295,8.49481 -6.757119,29.85798 -9.104827,59.09828 -8.7788,89.64327 0.02858,3.1282 0.03714,6.25631 0.04511,9.38462 0.01043,3.82253 0.03077,7.64497 0.0529,11.46745 0.0076,1.3657 0.01529,2.73138 0.02317,4.13848 0.08531,8.45613 0.462085,16.84894 1.031091,25.28214 0.274102,4.4406 0.330981,8.82279 0.292364,13.2715 -0.0047,0.73572 -0.0094,1.47143 -0.01415,2.22944 -0.01176,1.74144 -0.0303,3.48285 -0.05055,5.22421 1.024894,0.35139 2.049786,0.70277 3.105738,1.06481 0.124274,0.8227 0.24855,1.6454 0.37659,2.49304 7.038871,46.12947 18.443724,91.22594 37.179372,133.90213 0.349221,0.79688 0.698443,1.59376 1.058247,2.41478 0.894677,2.00993 1.819277,4.00572 2.74709,5.99968 1.164997,3.43831 1.118177,5.10052 0.04853,8.52262 -4.842192,1.28528 -9.537212,1.14633 -14.49344,1.06481 4.234795,9.04907 8.910816,17.7047 13.975818,26.28744 0.660576,1.13171 1.321152,2.26341 2.001744,3.42943 3.834942,6.53777 7.797761,12.95243 11.974077,19.26428 0.49843,0.76239 0.99687,1.52478 1.510404,2.31028 11.015593,16.83994 22.259967,33.53649 35.212507,48.87534 2.57843,3.07424 5.06148,6.21054 7.53384,9.37529 3.12208,3.94834 6.35459,7.59808 9.91167,11.13056 1.86528,1.91409 3.57734,3.91688 5.2935,5.97291 5.56522,6.61854 11.59608,12.56403 18.04401,18.25979 2.55926,2.36235 4.96755,4.84607 7.38421,7.36214 4.32621,4.49019 8.78281,8.68031 13.45819,12.77769 1.05231,0.94869 2.10364,1.89851 3.15426,2.84918 8.95977,8.06517 18.26508,15.51967 27.90311,22.70619 0.71429,0.53274 1.42858,1.06548 2.16452,1.61437 16.33128,12.12468 33.19075,23.17322 50.63301,33.52428 -0.68326,0.35138 -1.36652,0.70277 -2.07049,1.0648 -2.69992,-1.3035 -5.24105,-2.67892 -7.82904,-4.19268 -0.81121,-0.47029 -1.62242,-0.94057 -2.4582,-1.42511 -17.02322,-10.02127 -33.55475,-20.97525 -49.00535,-33.4125 -1.75738,-1.40872 -3.52977,-2.79429 -5.30916,-4.17344 -8.04542,-6.25296 -15.76063,-12.8467 -23.39413,-19.6199 -1.149,-1.01916 -1.149,-1.01916 -2.32122,-2.0589 -1.99746,-1.78636 -3.97957,-3.58931 -5.96075,-5.39475 -0.72813,-0.65859 -1.45627,-1.31719 -2.20647,-1.99574 -6.60591,-6.03417 -12.91237,-12.32505 -19.14421,-18.76099 -1.62423,-1.67636 -3.25399,-3.34691 -4.88431,-5.01702 -5.62071,-5.77706 -11.07821,-11.63802 -16.21008,-17.88335 -0.90778,-1.07519 -1.81627,-2.14975 -2.7256,-3.22353 -7.73954,-9.29563 -14.999,-18.91834 -22.120289,-28.7207 -0.547148,-0.74772 -1.094286,-1.49545 -1.658008,-2.26583 -15.139578,-20.75933 -28.072325,-42.9015 -39.75182,-65.88184 -0.502438,-0.97557 -1.004876,-1.95115 -1.522539,-2.9563 C 28.048467,691.95516 11.912653,636.74615 4.0092213,580.3421 3.7320426,578.37427 3.4434306,576.40815 3.1539304,574.44219 -2.5985479,533.78219 -2.2650094,487.84977 3.711993,447.26062 3.9147179,445.82137 4.116891,444.38205 4.3185817,442.94263 12.243175,387.1549 28.990892,334.78236 53.403785,284.3451 c 0.459901,-0.95602 0.919802,-1.91204 1.393639,-2.89703 14.509273,-29.97065 33.437233,-67.23359 58.715316,-89.40847 0.67392,-0.59707 1.34784,-1.19415 2.04219,-1.80934 2.01584,-1.70241 4.07583,-3.32051 6.17507,-4.91225 z"
     style="fill:#e1e238;stroke-width:1.04992"
     id="path97" />
  <path
     d="m 172.45704,228.97512 c 0.66324,0.21823 1.32649,0.43648 2.00984,0.66134 5.2088,1.66874 10.16452,2.99139 15.58934,3.59789 0.55119,6.22618 -1.40739,10.91407 -3.62336,16.57106 -0.76178,2.0006 -1.52338,4.00127 -2.28482,6.00202 -0.39318,1.02172 -0.78635,2.04346 -1.19145,3.09614 -1.87081,4.87434 -3.69845,9.76535 -5.51743,14.66035 -0.34897,0.93757 -0.69794,1.87515 -1.05748,2.84113 -1.94904,5.27417 -3.77867,10.56133 -5.47751,15.9261 -3.84859,12.14022 -8.35142,24.06271 -13.06189,35.87486 -3.20427,8.0431 -6.27821,15.95513 -8.48416,24.3533 -2.4243,9.1335 -5.9521,17.72525 -9.49464,26.45147 -4.65993,11.56294 -8.81704,23.28556 -12.89483,35.07652 -2.28842,6.59662 -4.58257,13.1333 -7.51463,19.46523 -1.41495,3.40236 -2.1348,6.9052 -2.90025,10.51367 -0.68326,0 -1.36652,0 -2.07049,0 -0.25756,1.32592 -0.51512,2.65187 -0.78048,4.01799 -1.33049,6.15034 -3.32016,12.01229 -5.36629,17.94366 -0.53947,1.5936 -0.53947,1.5936 -1.08983,3.21938 -1.46889,4.30201 -2.96229,8.5312 -4.73748,12.71114 -1.54831,3.79257 -2.656197,7.57879 -3.771457,11.52259 -1.336212,4.50763 -2.981942,8.88313 -4.635862,13.27577 -0.364902,0.97746 -0.729806,1.95494 -1.105766,2.96202 -2.298276,6.13278 -4.656452,12.23884 -7.046794,18.33412 -10.482318,26.79602 -20.411818,53.80406 -29.79617,81.02649 -0.56314,1.63289 -1.126421,3.26572 -1.689857,4.89848 -0.266242,0.77157 -0.532484,1.54314 -0.806795,2.33809 -2.383152,6.87408 -4.906657,13.68684 -7.499434,20.4804 -0.683262,0 -1.366524,0 -2.07049,0 0.720002,-36.42222 13.04689,-72.42238 24.729142,-106.44922 3.249738,-9.48287 6.422942,-18.99879 9.175154,-28.64822 2.409854,-8.18467 5.323926,-16.18068 8.168482,-24.21396 2.269724,-6.44183 4.448698,-12.88845 6.38966,-19.44314 2.888398,-9.7542 6.229084,-19.14336 10.291797,-28.44615 1.09627,-3.08581 1.85832,-5.98218 2.58002,-9.1715 2.19588,-9.3117 5.42657,-18.25188 8.54483,-27.26904 0.65493,-1.90761 1.30937,-3.81538 1.96332,-5.72334 1.92649,-5.61506 3.86301,-11.22642 5.80102,-16.83727 0.51908,-1.50479 1.03805,-3.00964 1.55692,-4.51452 1.82929,-5.30502 3.65894,-10.60992 5.49544,-15.91231 2.66259,-7.6955 5.29412,-15.40124 7.89805,-23.11797 5.69495,-16.86435 11.40691,-33.68734 17.74577,-50.3098 3.22626,-8.48626 6.15479,-17.05679 9.02275,-25.67704 6.53591,-19.54495 6.53591,-19.54495 9.00811,-22.08773 z"
     style="fill:#fde34c;stroke-width:1.04992"
     id="path99" />
  <path
     d="m 329.81438,95.874191 c 13.66525,0 27.33049,0 41.40983,0 0,0.702773 0,1.405546 0,2.129615 0.8595,-0.0054 1.71899,-0.01118 2.60454,-0.01693 3.27053,-0.01842 6.54103,-0.03162 9.81159,-0.04164 2.07884,-0.0074 4.15767,-0.0214 6.23649,-0.03514 8.07944,-0.02055 16.0737,0.282376 24.13442,0.895056 6.24307,0.432759 12.49111,0.566158 18.74538,0.729191 13.80094,0.389006 27.57869,1.057197 41.36497,1.809637 10.96422,0.59489 21.90841,1.04529 32.88623,1.27317 24.79434,0.53261 49.52078,2.46721 74.25536,4.22795 8.3971,0.59774 16.79522,1.17832 25.19392,1.75186 4.74703,0.3249 9.49379,0.65403 14.24055,0.98297 2.5659,0.17734 5.13188,0.35347 7.69793,0.52831 12.48462,0.85335 24.91123,1.79767 37.32619,3.41106 4.94038,0.61735 9.8834,0.97057 14.84678,1.32165 15.64459,1.22152 31.14652,3.63157 46.66491,5.95419 4.0292,0.60287 8.06124,1.18394 12.09337,1.76567 5.09431,0.74908 10.14687,1.57868 15.19708,2.59547 1.28646,0.25256 2.57291,0.5051 3.89835,0.76533 3.08956,0.83199 3.08956,0.83199 5.16005,2.96161 -7.45388,0.0274 -14.90774,0.0457 -22.36166,0.0584 -2.52678,0.005 -5.05357,0.0126 -7.58034,0.0218 -13.39503,0.0481 -26.72503,-0.0306 -40.09656,-0.87711 -4.54708,-0.28585 -9.0928,-0.44396 -13.64649,-0.5675 -0.73505,-0.0202 -1.47011,-0.0405 -2.22743,-0.0613 -2.95006,-0.0791 -5.90021,-0.15386 -8.85041,-0.2272 -7.19455,-0.18211 -14.36684,-0.3787 -21.54049,-1.01333 -9.70467,-0.83297 -19.44261,-0.87206 -29.17543,-1.03596 -10.22924,-0.17873 -20.44472,-0.49827 -30.66233,-1.03178 -20.69383,-1.07709 -41.36415,-1.88886 -62.08264,-2.25389 -1.14908,-0.0203 -2.29816,-0.0408 -3.48207,-0.0617 -9.41906,-0.16462 -18.83835,-0.31362 -28.25771,-0.45957 -49.99834,-0.7771 -49.99834,-0.7771 -69.7441,-2.34887 -16.74553,-1.29791 -33.54152,-1.53016 -50.32551,-1.92349 -4.60335,-0.10939 -9.20651,-0.22666 -13.8097,-0.34315 -8.93961,-0.22513 -17.87939,-0.44197 -26.81933,-0.65304 -2.09905,-6.47697 -2.28242,-13.45674 -3.10574,-20.231347 z"
     style="fill:#fce348;stroke-width:1.04992"
     id="path101" />
  <path
     d="m 329.81438,152.30898 c 7.22708,3.6447 14.30822,7.50867 21.35194,11.51323 7.07893,3.99902 14.17733,7.87918 21.43005,11.53377 10.945,5.56661 21.6509,11.62999 32.41325,17.5586 5.28717,2.91029 10.59268,5.7831 15.90638,8.64175 18.68769,10.07667 37.14163,20.60244 55.43013,31.42428 11.59624,6.85713 23.18591,13.67891 35.06111,20.01766 10.48721,5.59867 20.77093,11.57082 31.04499,17.57088 1.97604,1.15371 3.95218,2.30725 5.9284,3.46062 1.49655,0.87349 1.49655,0.87349 3.02334,1.76464 8.26319,4.80648 16.60345,9.45608 24.96317,14.08191 7.63335,4.23692 15.17076,8.62494 22.68265,13.08471 6.79149,4.0163 13.66435,7.85794 20.56868,11.66453 18.66599,10.3224 36.7403,21.63356 54.70172,33.19359 2.04794,1.31624 4.10057,2.6242 6.15536,3.92908 1.03423,0.66297 2.06847,1.32595 3.13404,2.00899 0.84874,0.54218 1.69749,1.08436 2.57194,1.64297 1.82786,1.35181 1.82786,1.35181 2.8631,3.48142 -6.15637,-1.9973 -12.05064,-4.30156 -17.92269,-7.05435 -0.7956,-0.36871 -1.59122,-0.73744 -2.41094,-1.11732 -1.68549,-0.78141 -3.3702,-1.56463 -5.05415,-2.34954 -2.53298,-1.17733 -5.07089,-2.34258 -7.61067,-3.50431 -10.09985,-4.62935 -20.12203,-9.40323 -30.08404,-14.33901 -4.81066,-2.37921 -9.63636,-4.65507 -14.56093,-6.77411 0,-0.70277 0,-1.40555 0,-2.12962 -1.73951,-0.37884 -1.73951,-0.37884 -3.51417,-0.76533 -5.27745,-1.36743 -9.93308,-3.68373 -14.79674,-6.15592 -0.99954,-0.49962 -1.99908,-0.99925 -3.0289,-1.51403 -2.91563,-1.45891 -5.82763,-2.92521 -8.73887,-4.39336 -3.74806,-1.88684 -7.50145,-3.76239 -11.25431,-5.63911 -4.97764,-2.48931 -9.955,-4.97916 -14.92993,-7.47419 -9.08907,-4.55671 -18.19566,-9.06931 -27.33317,-13.52248 -9.55557,-4.66295 -18.91903,-9.64549 -28.21045,-14.84075 0,-0.70277 0,-1.40554 0,-2.12962 -0.90103,-0.11821 -1.80207,-0.23642 -2.7304,-0.35823 -5.87681,-1.19286 -10.91197,-4.20117 -16.22753,-6.96232 -1.14834,-0.57787 -2.29667,-1.15573 -3.4798,-1.75111 -1.08962,-0.56139 -2.17924,-1.12278 -3.30187,-1.7012 -0.99595,-0.51181 -1.9919,-1.02361 -3.01803,-1.55093 -2.29974,-1.51871 -2.29974,-1.51871 -3.33498,-4.71313 -0.75757,-0.13245 -1.51516,-0.26491 -2.29569,-0.40137 -4.6664,-1.07473 -8.74849,-3.32712 -13.03889,-5.45507 -1.31214,-0.63415 -1.31214,-0.63415 -2.6508,-1.2811 -5.65677,-2.78247 -11.12771,-5.81851 -16.56999,-9.01343 -9.14696,-5.36145 -18.5077,-10.26036 -27.89903,-15.15023 -13.76688,-7.17077 -27.50303,-14.36378 -40.99005,-22.08006 -6.95195,-3.96347 -14.03111,-7.62883 -21.19726,-11.1654 -11.72794,-5.87316 -11.72794,-5.87316 -15.56938,-10.85501 -1.86538,-7.46139 -0.0401,-13.46659 2.52341,-20.43099 z"
     style="fill:#fde350;stroke-width:1.04992"
     id="path103" />
  <path
     d="m 506.84139,307.77085 c 1.0249,0.52708 1.0249,0.52708 2.0705,1.06481 -0.0217,0.62599 -0.0433,1.252 -0.0657,1.89695 -0.61317,20.46706 1.19819,37.85712 14.23564,54.3382 6.49808,6.92059 13.47389,11.10316 22.93311,11.59226 2.44915,0.0265 4.89878,0.0219 7.34783,-0.0125 2.46813,-0.009 4.93635,-0.006 7.40443,0.0125 1.61528,-0.0192 1.61528,-0.0192 3.26319,-0.0387 3.27585,0.4119 4.49027,1.44029 6.99626,3.55344 5.76704,0.72133 9.64988,-0.75782 14.55814,-3.66028 0.67133,-0.37926 1.34267,-0.75854 2.03435,-1.1493 4.00442,-2.30109 7.81809,-4.806 11.60278,-7.46743 10.33036,-7.22677 22.20447,-12.50539 34.95473,-11.14873 0.68327,0.35139 1.36653,0.70277 2.07049,1.06481 1.24714,23.76649 -9.70102,43.01644 -22.7754,61.75882 -0.44106,0.63363 -0.8821,1.26726 -1.33652,1.92008 -5.13831,7.30403 -10.42236,13.71857 -17.2979,19.37607 -5.32422,4.61349 -9.84821,8.76645 -13.4582,14.9073 -0.50444,0.48316 -1.00887,0.96631 -1.5286,1.46411 -6.30281,6.91498 -6.9516,19.18613 -8.44321,28.2226 -0.64083,3.80068 -1.35721,7.58652 -2.06292,11.37493 -1.88445,10.18114 -2.70992,19.95625 -2.76428,30.30489 -0.0119,1.57341 -0.0331,3.14675 -0.0637,4.71989 -0.21752,11.20698 0.13729,21.88962 7.22777,31.05983 3.65039,3.75462 5.69041,3.73575 10.74067,3.99302 13.13679,0.99593 23.70593,5.34015 32.93375,15.24006 9.02633,11.12772 10.77882,21.18921 9.74992,35.3466 -1.03812,9.80869 -6.55299,17.19058 -13.69681,23.55055 -1.02489,0 -2.04979,0 -3.10574,0 0,0.70277 0,1.40554 0,2.12962 -11.36742,4.87711 -22.81667,6.74148 -34.55132,1.99651 -9.60843,-4.73523 -16.62263,-9.50468 -21.54605,-19.36618 -2.13855,-7.27566 -3.43993,-14.42093 -2.91163,-22.0282 2.07049,-2.12962 2.07049,-2.12962 5.17623,-2.12962 0.16414,1.19553 0.32828,2.39108 0.4974,3.62283 1.72027,11.68503 3.57867,21.42999 13.06998,29.08672 8.77768,6.10575 17.30039,7.68159 27.84244,6.68832 6.58681,-1.89449 13.14602,-5.5773 16.7904,-11.70456 4.57538,-9.17676 5.33519,-18.8253 3.20683,-28.92033 -3.49727,-10.64216 -9.24609,-18.0125 -18.96198,-23.26355 -3.08264,-0.97017 -5.8669,-1.19506 -9.08267,-1.21455 -0.93948,-0.0206 -1.87897,-0.0412 -2.84692,-0.0624 -1.95973,-0.0358 -3.91982,-0.0555 -5.87988,-0.0582 -8.03687,-0.22246 -8.03687,-0.22246 -11.68695,-3.16114 -2.46016,-2.80238 -3.99761,-5.03392 -5.44312,-8.48102 -0.60053,-1.37329 -0.60053,-1.37329 -1.21319,-2.77432 -3.13607,-9.59508 -3.51406,-18.96895 -3.45654,-29.00171 0.011,-2.27541 10e-5,-4.54993 -0.0131,-6.82531 -0.0136,-13.43017 1.37689,-26.17435 4.78801,-39.18366 0.63863,-2.7976 0.93841,-5.40261 1.12421,-8.26474 1.08707,-13.4174 7.12611,-25.68357 16.71356,-34.73934 1.59252,-1.42685 1.59252,-1.42685 2.50319,-3.59373 0.68326,0 1.36652,0 2.07049,0 0.26157,-0.61905 0.52312,-1.23808 0.79261,-1.8759 1.42673,-2.66094 3.02314,-4.35147 5.16006,-6.44291 2.80295,-2.79388 5.41251,-5.61915 7.89374,-8.7181 0.89679,-1.05417 1.79357,-2.10833 2.71752,-3.19443 0.68326,0 1.36653,0 2.07049,0 0.0975,-0.75219 0.19484,-1.50436 0.29521,-2.27936 0.87748,-3.61014 2.34026,-6.03837 4.2987,-9.16732 0.7466,-1.22071 1.49196,-2.44224 2.23629,-3.66444 0.39918,-0.65078 0.79836,-1.30156 1.20964,-1.97208 9.32653,-14.40269 9.32653,-14.40269 13.70032,-30.8331 1.0249,-0.3514 2.04979,-0.70279 3.10574,-1.06481 -0.34163,-1.75694 -0.68326,-3.51387 -1.03525,-5.32404 -1.56936,0.52708 -1.56936,0.52708 -3.17044,1.06481 -3.82243,1.13934 -7.33987,1.23202 -11.32299,1.06481 0,0.70277 0,1.40554 0,2.12961 -0.60053,0.3349 -1.20105,0.66982 -1.81977,1.01489 -3.6095,2.03395 -7.13388,4.05454 -10.53848,6.43875 -3.55234,2.38615 -7.22679,4.23043 -11.03588,6.13928 -2.13163,1.12656 -4.07507,2.31515 -6.04567,3.7102 -4.81317,3.3809 -9.41668,3.63403 -15.07577,2.92821 -1.48836,-0.66019 -2.95474,-1.37444 -4.39979,-2.12961 -5.62149,-2.62736 -10.7877,-2.25607 -16.82275,-2.06306 -8.2947,0.19386 -14.47489,0.11465 -21.22253,-5.39059 -0.9515,-0.77552 -1.90299,-1.55105 -2.88333,-2.35006 -11.19079,-9.83725 -20.99798,-24.02338 -24.03306,-39.17743 -0.22031,-3.23637 -0.19161,-6.4728 -0.19411,-9.71636 -0.0126,-0.8771 -0.0253,-1.75419 -0.0385,-2.65786 -0.005,-2.26551 0.10559,-4.53058 0.23253,-6.79231 0.68326,-0.70277 1.36652,-1.40555 2.07049,-2.12962 0,-1.05416 0,-2.10831 0,-3.19442 -6.2287,4.73081 -11.45659,9.4185 -16.018,15.87645 -1.38783,1.95318 -2.84469,3.70298 -4.4281,5.48625 -5.89597,7.91732 -5.89263,15.67438 -5.75856,25.28918 -0.003,1.18387 -0.006,2.36773 -0.0104,3.58748 0.0418,6.68848 0.65274,12.88831 1.94538,19.43611 0.70294,4.18541 0.68415,8.28003 0.58815,12.51435 -0.009,0.81052 -0.0187,1.62104 -0.0283,2.45613 -0.0239,1.95438 -0.0609,3.90857 -0.10112,5.86268 -1.36652,0 -2.73305,0 -4.14098,0 -0.0774,0.66983 -0.1548,1.33966 -0.23454,2.02979 -1.51025,10.11211 -6.37193,16.39126 -13.94752,22.81849 -10.06264,7.4859 -20.37622,9.68421 -32.40377,11.35517 0,0.70278 0,1.40555 0,2.12961 0.77401,0.10436 1.54802,0.20865 2.34547,0.31612 8.31773,1.29896 8.31773,1.29896 11.75975,3.74346 1.57836,2.58272 2.1326,4.6345 2.45871,7.6533 1.70816,0.35139 3.41631,0.70277 5.17623,1.06481 0.23492,3.54389 0.33296,5.76914 -1.35876,8.91777 -1.74698,1.73031 -1.74698,1.73031 -4.85271,1.73031 -0.1121,0.63002 -0.2242,1.26005 -0.3397,1.90916 -0.77998,2.63535 -1.73471,3.86929 -3.54248,5.87724 -2.24161,2.55936 -4.21648,5.12565 -6.08206,7.98606 -3.29158,4.54378 -4.70267,5.22917 -10.02894,6.05609 -5.13032,-0.7155 -7.52927,-3.20803 -11.06419,-6.92125 0.51244,-2.10832 0.51244,-2.10832 1.03524,-4.25923 0.61254,-0.0522 1.22507,-0.10435 1.85617,-0.15806 1.22706,-0.11941 1.22706,-0.11941 2.47892,-0.24124 1.20706,-0.11118 1.20706,-0.11118 2.43849,-0.22462 5.52837,-0.95825 8.43911,-2.91467 12.05495,-7.29558 0.69794,-0.83317 1.39589,-1.66634 2.11498,-2.52476 3.20107,-4.07745 4.44911,-6.63317 4.28656,-11.98324 -0.2706,-2.34199 -0.2706,-2.34199 -2.45466,-4.65854 -3.94862,-2.11529 -6.95994,-2.41981 -11.3877,-2.72857 -1.36653,2.10832 -2.73305,4.21664 -4.14099,6.38885 -2.04979,-0.35139 -4.09957,-0.70278 -6.21147,-1.06481 -0.35836,-6.02037 0.58569,-9.61528 3.10574,-14.90731 -1.36653,-0.70277 -2.73305,-1.40554 -4.14099,-2.12961 1.68947,-0.17501 1.68947,-0.17501 3.41307,-0.35354 24.02863,-2.59114 24.02863,-2.59114 43.62591,-16.08442 1.25452,-1.59885 2.48597,-3.21729 3.68806,-4.85818 0.52179,-0.67532 1.04358,-1.35065 1.58117,-2.04644 6.23291,-8.39917 6.22009,-16.51483 5.66555,-26.70337 -0.64046,-4.77127 -1.62579,-9.27586 -3.10574,-13.84248 -1.74198,-22.26096 3.33411,-36.67059 17.23927,-53.81853 6.16003,-6.63112 12.1513,-10.39735 21.06482,-10.06992 z"
     style="fill:#686567;stroke-width:1.04992"
     id="path105" />
  <path
     d="m 225.25457,238.55837 c 5.4661,0.3514 10.93219,0.70278 16.56393,1.06481 0,12.64992 0,25.29983 0,38.33307 -0.68326,0 -1.36652,0 -2.07049,0 0.008,1.50944 0.008,1.50944 0.0165,3.04937 0.16575,33.77667 0.16575,33.77667 -0.46935,47.66208 -0.0406,0.89099 -0.0813,1.78199 -0.12309,2.69997 -0.20481,3.93918 -0.50548,7.8417 -0.96725,11.75798 -0.54512,4.96994 -0.81341,9.92223 -1.00845,14.9181 -0.039,0.92952 -0.0777,1.85903 -0.11782,2.81671 -0.12674,3.04629 -0.24909,6.09276 -0.3715,9.13924 -0.0885,2.14183 -0.17746,4.28367 -0.26665,6.42548 -0.23373,5.62819 -0.46397,11.25653 -0.69315,16.88492 -0.36597,8.97953 -0.73611,17.95888 -1.10845,26.93813 -0.12825,3.10903 -0.2543,6.21814 -0.3801,9.32727 -0.45985,11.22944 -1.02042,22.44313 -1.75737,33.65723 -0.68326,0 -1.36653,0 -2.07049,0 0,11.59575 0,23.19151 0,35.13864 -0.68326,0 -1.36653,0 -2.07049,0 0.024,1.16397 0.048,2.32794 0.0727,3.52718 0.19347,14.18229 -0.81876,28.14888 -2.14328,42.25954 -0.68326,0 -1.36652,0 -2.07049,0 0.0338,1.4272 0.0338,1.4272 0.0683,2.88325 0.13635,10.32017 -0.6888,20.23857 -2.00933,30.45853 -0.19289,1.54897 -0.38472,3.0981 -0.57551,4.64735 -0.28198,2.28851 -0.5646,4.57691 -0.851,6.86483 -0.90963,7.27078 -1.68536,14.55246 -2.43545,21.84208 -0.38179,3.34766 -0.8737,6.65141 -1.44368,9.97009 -0.68326,0 -1.36652,0 -2.07049,0 -0.0493,-16.74085 -0.0853,-33.48168 -0.10727,-50.2226 -0.0105,-7.78093 -0.0246,-15.5618 -0.0489,-23.3427 -0.11503,-37.69884 0.3677,-75.27279 1.8742,-112.94817 0.36364,-9.25621 0.58866,-18.50799 0.70836,-27.77069 0.0165,-1.26235 0.033,-2.5247 0.0497,-3.82529 0.0567,-4.7915 0.10208,-9.58305 0.14479,-14.3747 0.18337,-19.02844 0.64208,-38.11115 3.08817,-56.99926 0.51725,-4.19655 0.69716,-8.35204 0.7935,-12.58315 0.0186,-0.7682 0.0373,-1.53639 0.0567,-2.32786 0.0397,-1.65166 0.0774,-3.30336 0.11349,-4.95509 0.0573,-2.61947 0.11986,-5.23874 0.18374,-7.85804 0.15751,-6.50128 0.3062,-13.00275 0.45494,-19.50425 0.1263,-5.507 0.25609,-11.01389 0.3905,-16.52071 0.0612,-2.57089 0.11758,-5.14187 0.17363,-7.7129 0.0382,-1.58668 0.0766,-3.17335 0.11525,-4.76003 0.047,-2.06471 0.047,-2.06471 0.095,-4.17111 0.53773,-10.61094 0.53773,-10.61094 2.26671,-12.3893 z"
     style="fill:#fde249;stroke-width:1.04992"
     id="path107" />
  <path
     d="m 291.61936,216.39126 c 1.96142,0.87097 1.96142,0.87097 3.7549,4.44546 0.61542,1.60546 1.21332,3.21807 1.79753,4.83582 0.49195,1.29855 0.49195,1.29855 0.99385,2.62334 0.7053,1.86539 1.40356,3.7336 2.09555,5.60426 1.82249,4.92293 3.69782,9.8245 5.56865,14.72815 0.55616,1.46326 0.55616,1.46326 1.12353,2.95609 2.99553,7.84883 6.20682,15.56569 9.59693,23.24399 4.53283,10.29713 8.89309,20.65243 13.13468,31.07908 0.27485,0.67421 0.5497,1.34842 0.83288,2.04307 2.97117,7.29357 5.88471,14.60756 8.72292,21.95668 2.40231,6.21518 4.94749,12.34903 7.59045,18.45944 11.28726,26.4792 21.47424,53.44287 31.6397,80.39296 0.41293,1.09394 0.82587,2.18788 1.25131,3.31497 4.13606,10.96758 8.23546,21.94805 12.20688,32.97999 0.30119,0.83356 0.60236,1.66712 0.91267,2.52595 2.42953,6.79603 3.37381,12.10846 3.29302,19.34419 -0.005,0.79336 -0.009,1.58673 -0.0141,2.40413 -0.0121,1.94941 -0.0307,3.89878 -0.0506,5.84812 1.02489,0.35139 2.04978,0.70277 3.10573,1.06481 1.52871,3.71648 1.10942,7.74579 1.03525,11.71288 -4.40997,-4.09105 -6.98012,-8.21423 -9.64073,-13.64285 -0.59952,-1.19313 -0.59952,-1.19313 -1.21115,-2.41036 -2.9862,-5.96699 -5.90164,-11.97226 -8.78998,-17.98994 -2.16809,-4.50094 -4.43725,-8.93274 -6.76499,-13.34832 -3.64817,-6.93545 -6.81717,-13.75981 -9.43448,-21.18878 -1.87312,-5.02114 -3.99944,-9.90696 -6.15082,-14.80748 -0.38968,-0.89056 -0.77935,-1.78112 -1.18084,-2.69867 -1.79603,-4.07181 -3.63464,-8.10626 -5.60488,-12.09216 -1.74916,-3.56058 -3.2139,-7.16945 -4.60199,-10.89765 -5.97421,-15.7213 -12.80719,-31.12048 -19.74245,-46.41478 -1.594,-3.56478 -3.12831,-7.15447 -4.65052,-10.75205 -9.75182,-23.10713 -9.75182,-23.10713 -19.99319,-45.98638 -3.88291,-8.45403 -7.44391,-17.05237 -11.02807,-25.6436 -3.09143,-7.40937 -6.22253,-14.7872 -9.55552,-22.08555 -0.8002,-1.75432 -0.8002,-1.75432 -1.61657,-3.54408 -1.00904,-2.19636 -2.02834,-4.38779 -3.05922,-6.57342 -0.44806,-0.97532 -0.89612,-1.95064 -1.35775,-2.95551 -0.39685,-0.84501 -0.7937,-1.69002 -1.20257,-2.56064 -0.84141,-2.73599 -0.78,-3.9591 0.32099,-6.58173 2.33084,-1.90117 4.5459,-3.51522 7.05261,-5.12438 0.65191,-0.44678 1.3038,-0.89357 1.97546,-1.35388 4.82631,-3.16183 4.82631,-3.16183 7.64493,-2.91117 z"
     style="fill:#fde351;stroke-width:1.04992"
     id="path109" />
  <path
     d="m 603.11924,433.41812 c 0.82459,2.63828 1.64321,5.27826 2.45871,7.9195 0.22954,0.73229 0.45907,1.46458 0.69555,2.21904 0.7046,2.29136 1.37348,4.58958 2.02197,6.89838 0.30827,1.09276 0.30827,1.09276 0.62276,2.20761 1.79339,7.17088 1.7542,14.24884 1.70654,21.61745 0.012,1.84479 0.012,1.84479 0.0242,3.72683 -0.0254,11.60916 -1.55563,21.80399 -6.04163,32.47663 -0.35865,0.86483 -0.71729,1.72965 -1.0868,2.62068 -4.07234,9.45998 -9.37223,18.78954 -16.96526,25.72982 -0.68326,0 -1.36652,0 -2.07049,0 -0.23887,0.60805 -0.47775,1.21612 -0.72386,1.84261 -1.69303,3.03826 -3.69989,4.79113 -6.32875,7.0086 -0.8821,0.76454 -1.7642,1.52908 -2.67304,2.31678 -2.6973,1.60969 -2.6973,1.60969 -5.62106,1.32269 -0.74332,-0.25667 -1.48662,-0.51335 -2.25247,-0.77781 -2.01005,-6.20236 -1.28746,-13.18894 -1.29405,-19.69893 -10e-4,-0.79562 -0.003,-1.59126 -0.004,-2.41099 0.006,-15.9889 1.68122,-30.80957 5.77489,-46.29147 0.74824,-3.14517 1.18253,-6.25515 1.60544,-9.46265 1.2476,-8.1485 4.23853,-15.7448 10.48186,-21.16304 2.80525,-2.85011 5.57143,-5.73779 8.32645,-8.63908 1.08507,-1.13557 2.17019,-2.27108 3.25536,-3.40655 0.82772,-0.87813 0.82772,-0.87813 1.67216,-1.77399 4.11145,-4.28211 4.11145,-4.28211 6.41563,-4.28211 z"
     style="fill:#b5e3fb;stroke-width:1.04992"
     id="path111" />
  <path
     d="m 461.5494,586.95004 c 6.0683,4.19475 10.71998,10.47511 12.16413,17.90208 0.87893,9.43466 -0.38093,18.34023 -6.34088,25.82157 -3.98274,4.25965 -8.32427,7.50136 -13.32879,10.38187 -0.76332,0.44198 -1.52666,0.88397 -2.31313,1.33933 -5.42181,2.67604 -10.61108,3.34709 -16.5801,3.45231 -1.04603,0.0296 -1.04603,0.0296 -2.1132,0.0598 -5.20783,-0.0676 -8.07351,-1.59669 -12.12143,-4.85147 -0.66324,-0.49962 -1.32649,-0.99926 -2.00983,-1.51403 -5.62688,-4.74162 -9.90454,-10.22413 -11.44836,-17.6525 -0.26971,-3.10247 -0.28642,-6.20344 -0.32352,-9.31706 -0.03,-0.82357 -0.06,-1.64713 -0.0909,-2.49565 -0.082,-7.73559 2.37966,-14.18246 7.66122,-19.79876 12.87749,-12.23497 32.14526,-11.75564 46.84487,-3.32752 z"
     style="fill:#c9c2bd;stroke-width:1.04992"
     id="path113" />
  <path
     d="m 408.49305,480.26964 c 0.70462,0.72475 1.40923,1.44948 2.1352,2.19617 0.72062,0.72886 0.72062,0.72886 1.45581,1.47243 1.06824,1.11557 2.10366,2.26527 3.10574,3.44399 6.33579,7.18755 14.5347,10.65338 23.19597,14.11702 23.78857,9.56578 23.78857,9.56578 29.26996,21.48332 2.19829,5.28121 2.55782,9.95781 2.43444,15.65184 -0.0125,0.93336 -0.025,1.86673 -0.0378,2.82839 -0.37342,12.6065 -5.14574,22.5789 -10.83219,33.5747 -0.68326,0 -1.36652,0 -2.07049,0 0,1.40555 0,2.8111 0,4.25923 -0.59117,-0.15373 -1.18236,-0.30746 -1.79146,-0.46584 -11.3299,-2.66788 -22.11358,-2.1413 -33.40689,0.46584 1.447,-3.63554 2.92967,-5.15391 6.21147,-7.1209 1.08895,-0.66502 1.08895,-0.66502 2.1999,-1.34349 3.41039,-1.96581 5.01993,-2.25909 8.929,-1.85093 0.87009,0.0838 1.74018,0.16746 2.63663,0.25372 3.1491,0.53829 6.00863,1.50225 9.00988,2.60795 0.48274,-4.71009 0.75221,-9.15483 0,-13.8425 -2.02842,-2.23274 -3.76184,-3.22414 -6.47029,-4.43808 -0.89678,-0.43854 -0.89678,-0.43854 -1.81168,-0.88595 0,-0.70277 0,-1.40555 0,-2.12962 -0.72596,-0.24158 -1.45193,-0.48315 -2.1999,-0.73204 -13.98715,-6.56779 -22.39051,-24.23539 -27.84649,-38.17918 -3.22452,-9.80203 -4.31871,-21.0736 -4.11671,-31.36607 z"
     style="fill:#b6e4fb;stroke-width:1.04992"
     id="path115" />
  <path
     d="m 414.89864,436.546 c 1.9537,0.0329 1.9537,0.0329 3.94687,0.0666 -0.4911,1.25182 -0.98219,2.50363 -1.48816,3.79338 -1.5017,4.08729 -2.21364,7.8422 -2.65282,12.17873 3.07468,0.52708 3.07468,0.52708 6.21147,1.06481 0.29893,-0.83454 0.59786,-1.66909 0.90584,-2.52892 1.16465,-2.79512 1.16465,-2.79512 3.23515,-4.92474 4.6339,0.0794 8.0742,0.48385 11.90532,3.26098 2.65942,3.21405 3.58032,5.06609 3.26749,9.32122 -1.40096,4.79466 -4.7061,8.2701 -7.92609,11.90838 -0.85408,1.0322 -1.70816,2.06439 -2.58812,3.12786 -4.88691,4.14682 -9.92248,4.46576 -16.04631,4.32579 -0.74732,0.21962 -1.49463,0.43923 -2.2646,0.6655 -0.6192,0.13177 -1.23841,0.26354 -1.87638,0.39931 -3.10574,-2.12962 -3.10574,-2.12962 -3.63549,-4.43393 -0.09,-1.29711 -0.09,-1.29711 -0.18198,-2.62042 -0.0681,-0.87024 -0.13611,-1.74047 -0.20624,-2.63706 -0.0387,-0.6671 -0.0774,-1.33418 -0.11727,-2.02148 -1.70816,0 -3.41631,0 -5.17623,0 -2.48845,-5.73824 -3.03578,-10.82527 -2.07049,-17.03692 2.24794,-4.87226 5.37706,-9.20369 9.31721,-12.77769 2.84774,-0.97635 4.51314,-1.18071 7.44083,-1.13135 z"
     style="fill:#1d1e23;stroke-width:1.04992"
     id="path117" />
  <path
     d="m 921.97491,789.06379 c 0.29236,4.21571 -0.20855,6.27971 -2.65281,9.66229 -0.56466,0.79312 -1.12932,1.58622 -1.71109,2.40336 -0.6097,0.82794 -1.21939,1.65586 -1.84757,2.50889 -0.61904,0.85882 -1.23808,1.71764 -1.87588,2.60249 -4.41773,6.09928 -8.91477,12.12118 -13.65281,17.96161 -1.28512,1.5977 -1.28512,1.5977 -2.5962,3.22769 -5.88445,7.26603 -11.99444,14.279 -18.26642,21.19217 -2.64234,2.91405 -5.22713,5.87681 -7.80074,8.85537 -6.19378,7.0951 -12.67404,13.7821 -19.72224,19.97762 -2.32924,2.10611 -4.57506,4.28994 -6.82261,6.48736 -7.01293,6.81806 -14.43864,12.85699 -22.15618,18.80596 -3.55214,2.74328 -7.01192,5.58183 -10.44876,8.47557 -5.63447,4.74029 -11.34356,9.20079 -17.45839,13.2698 -0.59677,0.39908 -1.19355,0.79817 -1.8084,1.20935 -2.89495,1.87424 -5.46862,3.34513 -8.86757,3.91503 0.43693,-5.24318 2.49521,-7.17922 6.21147,-10.64807 2.50315,-1.91987 5.09378,-3.68887 7.69964,-5.45714 6.49742,-4.48525 12.70871,-9.2164 18.77167,-14.3047 2.5707,-2.13816 4.52345,-3.64245 7.6918,-4.72872 0.81137,-0.83455 1.62275,-1.6691 2.45871,-2.52893 2.95244,-3.03674 5.72184,-5.57403 9.9157,-6.37636 2.71805,-0.86964 3.62975,-2.08002 5.41887,-4.33825 0.6192,-0.7618 1.23842,-1.5236 1.87639,-2.30848 0.68326,-0.8414 1.36652,-1.68281 2.07049,-2.54971 1.6095,-1.8708 3.22724,-3.73411 4.85271,-5.59024 0.75132,-0.86199 1.50264,-1.72399 2.27674,-2.61211 0.72195,-0.80709 1.44391,-1.61418 2.18776,-2.44573 0.71129,-0.80709 1.42257,-1.61418 2.15541,-2.44573 1.98557,-1.8135 1.98557,-1.8135 5.09131,-1.8135 0.12611,-1.19004 0.12611,-1.19004 0.25476,-2.40412 0.96069,-3.59408 2.21671,-4.69099 4.98617,-7.04604 0.8434,-0.73572 1.6868,-1.47143 2.55576,-2.22944 1.57377,-1.33185 3.14808,-2.66301 4.72331,-3.99303 6.60041,-5.71128 11.60691,-12.36371 16.69739,-19.49512 3.50755,-4.90725 6.84619,-9.55835 11.22189,-13.68029 4.21576,-4.09429 6.76186,-8.7986 9.38015,-14.05826 4.85288,-9.50059 4.85288,-9.50059 9.18957,-9.50059 z"
     style="fill:#13a86b;stroke-width:1.04992"
     id="path119" />
  <path
     d="m 50.298049,732.62899 c 3.105957,2.80863 4.908491,6.11166 6.967689,9.77461 0.549894,0.97207 0.549894,0.97207 1.110894,1.96379 1.172316,2.07405 2.338109,4.15188 3.503227,6.23023 10.996846,19.70101 10.996846,19.70101 23.418386,38.462 2.697592,3.80335 5.262206,7.6895 7.833094,11.58394 7.894161,11.89806 16.510191,23.15608 25.492921,34.20694 0.67559,0.83283 0.67559,0.83283 1.36483,1.68249 12.28201,15.09156 25.27341,29.29299 39.36562,42.611 3.20855,3.03837 6.30248,6.17522 9.35942,9.37427 3.16923,3.22572 6.57306,6.17 9.95438,9.15588 1.05602,0.95325 2.11144,1.90718 3.1664,2.86167 8.95709,8.05924 18.2576,15.51065 27.89097,22.6937 0.71429,0.53274 1.42858,1.06548 2.16452,1.61437 16.33128,12.12468 33.19075,23.17322 50.63301,33.52428 -0.68326,0.35138 -1.36652,0.70277 -2.07049,1.0648 -2.69992,-1.3035 -5.24105,-2.67892 -7.82904,-4.19268 -0.81121,-0.47029 -1.62242,-0.94057 -2.4582,-1.42511 -17.02322,-10.02127 -33.55475,-20.97525 -49.00535,-33.4125 -1.75738,-1.40872 -3.52977,-2.79429 -5.30916,-4.17344 -8.04542,-6.25296 -15.76063,-12.8467 -23.39413,-19.6199 -1.149,-1.01916 -1.149,-1.01916 -2.32122,-2.0589 -1.99746,-1.78636 -3.97957,-3.58931 -5.96075,-5.39475 -0.72813,-0.65859 -1.45627,-1.31719 -2.20647,-1.99574 -6.60591,-6.03417 -12.91237,-12.32505 -19.14421,-18.76099 -1.62423,-1.67636 -3.25399,-3.34691 -4.88431,-5.01702 -5.62071,-5.77706 -11.07821,-11.63802 -16.21008,-17.88335 -0.90778,-1.07519 -1.81627,-2.14975 -2.7256,-3.22353 -7.73954,-9.29563 -14.999,-18.91834 -22.120295,-28.7207 -0.547148,-0.74772 -1.094286,-1.49545 -1.658008,-2.26583 -16.425706,-22.52286 -30.251451,-46.69345 -42.687712,-71.74659 -0.430209,-0.86629 -0.860417,-1.73257 -1.303661,-2.6251 -0.936675,-2.15823 -0.936675,-2.15823 -0.936675,-4.28784 z"
     style="fill:#f8f9f0;stroke-width:1.04992"
     id="path121" />
  <path
     d="m 451.97337,399.34429 c 8.32283,4.60949 8.32283,4.60949 11.38771,8.51846 0,1.05416 0,2.10831 0,3.19442 1.02489,-0.35138 2.04978,-0.70278 3.10573,-1.0648 -2.16286,7.90976 -8.53506,14.03059 -15.30222,18.00606 -10.85663,5.48502 -22.30811,8.02725 -34.38957,7.54931 4.16749,-5.27569 8.57801,-9.75192 13.60782,-14.16277 2.01125,-1.67799 2.01125,-1.67799 2.95611,-3.93895 0.68326,0 1.36653,0 2.07049,0 0.37032,-0.89975 0.37032,-0.89975 0.74813,-1.81766 1.61008,-2.9728 3.57096,-5.03643 5.91627,-7.43286 0.81003,-0.83866 1.62007,-1.67732 2.45466,-2.54139 2.26864,-2.05059 2.26864,-2.05059 5.37438,-3.1154 0.68326,-1.05416 1.36653,-2.10832 2.07049,-3.19442 z"
     style="fill:#b6e3f9;stroke-width:1.04992"
     id="path123" />
  <path
     d="m 973.7372,728.36976 c 0.34163,0.70278 0.68326,1.40555 1.03524,2.12961 -0.85858,2.30042 -0.85858,2.30042 -2.25246,5.16183 -0.51029,1.05295 -1.02056,2.10592 -1.5463,3.19078 -0.84199,1.69629 -0.84199,1.69629 -1.70098,3.42683 -0.858,1.74158 -0.858,1.74158 -1.73333,3.51834 -4.82261,9.69654 -9.96019,19.10753 -15.54233,28.35933 -0.54715,0.91397 -1.09429,1.82797 -1.65801,2.76964 -7.42356,12.36199 -15.14136,24.32925 -23.82329,35.79428 -1.40601,1.86028 -2.79585,3.73213 -4.18091,5.60894 -7.8095,10.5645 -15.87224,20.82312 -24.63157,30.57579 -1.39197,1.56963 -2.77933,3.14453 -4.12001,4.7607 -5.33475,6.42681 -11.10437,12.38696 -16.92081,18.34661 -1.72315,1.76664 -3.44069,3.53892 -5.15777,5.31181 -5.77281,5.94171 -11.60886,11.73761 -17.85597,17.15547 -1.04546,0.93356 -2.09017,1.868 -3.13404,2.80343 -9.03683,7.9599 -18.38698,15.43682 -27.92333,22.75194 -0.75449,0.57975 -1.50899,1.15951 -2.28634,1.75683 -8.87378,6.78739 -17.9053,13.27023 -27.21816,19.40622 -0.84857,0.56491 -1.69716,1.12983 -2.57144,1.71186 -0.78485,0.50845 -1.5697,1.01692 -2.37833,1.54079 -1.04192,0.67918 -1.04192,0.67918 -2.10486,1.37209 -0.57584,0.27469 -1.15167,0.54938 -1.74496,0.83239 -0.68327,-0.35138 -1.36653,-0.70277 -2.07049,-1.0648 0.49826,-0.34685 0.99653,-0.69368 1.5099,-1.05103 22.01138,-15.34579 43.56279,-31.11778 63.71057,-48.99492 1.149,-1.01916 1.149,-1.01916 2.32122,-2.0589 1.99748,-1.78636 3.98132,-3.58729 5.96075,-5.39475 0.8047,-0.72885 1.6094,-1.45771 2.43849,-2.20864 5.61763,-5.13306 10.95377,-10.4598 16.16358,-16.03035 2.10284,-1.99235 2.10284,-1.99235 4.17333,-1.99235 0.26557,-0.62453 0.53114,-1.24907 0.80474,-1.89252 1.38143,-2.583 2.86505,-4.15057 4.95382,-6.16008 4.21931,-4.22229 7.87242,-8.76244 11.55351,-13.48064 2.21774,-2.78189 4.51755,-5.4363 6.8868,-8.08171 5.7641,-6.51015 10.96237,-13.45449 16.17572,-20.431 0.66991,-0.88944 1.33983,-1.77889 2.03005,-2.69529 2.84083,-3.72382 2.84083,-3.72382 5.05086,-7.84464 1.20105,-2.23776 1.20105,-2.23776 3.60719,-4.66685 3.2116,-3.35636 5.40223,-6.86715 7.75221,-10.881 0.4483,-0.75287 0.89662,-1.50574 1.35851,-2.28143 0.91204,-1.5324 1.82137,-3.06651 2.72788,-4.60238 1.80454,-3.04571 3.65178,-6.06377 5.48963,-9.08829 3.45997,-5.78568 6.70253,-11.67665 9.90864,-17.61301 3.16154,-5.82793 6.54278,-11.48173 9.9794,-17.14298 2.20761,-3.76044 4.07896,-7.60644 5.9284,-11.56314 0.34163,-0.35139 0.68326,-0.70277 1.03525,-1.06481 z"
     style="fill:#f7f9ec;stroke-width:1.04992"
     id="path125" />
  <path
     d="m 509.1707,628.21132 c 1.92167,0.033 1.92167,0.033 3.88217,0.0665 0,1.40554 0,2.8111 0,4.25923 4.4412,0 8.88241,0 13.45819,0 0,-1.40554 0,-2.81109 0,-4.25923 7.51589,0 15.03177,0 22.77541,0 -0.68326,1.05416 -1.36653,2.10832 -2.07049,3.19442 -1.0249,0 -2.04979,0 -3.10574,0 0,0.70278 0,1.40555 0,2.12962 1.70815,0.35138 3.41631,0.70277 5.17623,1.06481 0,0.35138 0,0.70277 0,1.0648 -8.26135,0.80447 -16.46084,1.25061 -24.75693,1.36429 -1.13311,0.0196 -2.2662,0.0392 -3.43364,0.0594 -3.58681,0.0618 -7.17365,0.11831 -10.76055,0.17352 -15.33675,0.23823 -30.63202,0.54505 -45.93903,1.59721 5.82326,-8.38536 5.82326,-8.38536 9.31721,-9.58327 2.01399,-0.0759 4.03046,-0.0895 6.04567,-0.0665 1.18571,0.008 2.37141,0.0165 3.59304,0.0249 2.49914,0.0277 4.99829,0.0554 7.49743,0.0831 1.78057,0.0124 1.78057,0.0124 3.59708,0.0249 1.0862,0.0124 2.1724,0.0247 3.29151,0.0375 3.93581,-0.14154 7.4695,-1.30329 11.43244,-1.23535 z"
     style="fill:#6e6069;stroke-width:1.04992"
     id="path127" />
  <path
     d="m 74.108699,728.36976 c 3.07174,2.64236 3.917588,5.14309 5.046824,9.0467 2.005746,6.50068 4.49986,12.56598 7.376124,18.70485 0.488678,1.04902 0.977356,2.09802 1.480836,3.17882 4.224632,8.86312 9.13945,17.12106 14.395627,25.36716 2.83804,4.45795 5.27834,9.07731 7.67942,13.79674 1.81377,3.25157 4.07684,5.88243 6.46624,8.70148 0,0.70277 0,1.40555 0,2.12961 0.68326,0 1.36653,0 2.07049,0 0.34163,1.05416 0.68327,2.10833 1.03525,3.19442 -2.04979,0.52708 -2.04979,0.52708 -4.14098,1.06481 -5.58778,-6.75844 -10.70397,-13.56588 -15.39524,-21.01331 -1.642351,-2.59121 -3.311653,-5.14409 -5.022562,-7.68657 -0.477165,-0.71547 -0.954331,-1.43094 -1.445949,-2.16809 -0.935788,-1.40181 -1.878298,-2.79889 -2.828228,-4.1906 -2.397412,-3.62248 -3.259658,-5.15413 -3.259658,-9.66333 -1.53734,-0.52708 -1.53734,-0.52708 -3.105736,-1.06481 -1.204334,-1.7753 -1.204334,-1.7753 -2.349522,-4.08038 -0.425952,-0.84476 -0.851914,-1.6895 -1.290776,-2.55985 -0.664202,-1.35797 -0.664202,-1.35797 -1.341822,-2.74339 -0.683222,-1.37342 -0.683222,-1.37342 -1.380242,-2.77457 -0.912486,-1.83731 -1.820986,-3.67671 -2.725356,-5.51824 -1.094869,-2.21176 -2.216098,-4.40408 -3.359496,-6.58953 -0.852742,-1.65948 -0.852742,-1.65948 -1.722712,-3.35248 -0.495098,-0.95396 -0.990196,-1.90792 -1.500297,-2.89079 -1.010407,-2.82622 -1.069,-4.0331 0.141537,-6.75904 2.652816,-1.331 2.652816,-1.331 5.176228,-2.12961 z"
     style="fill:#14a668;stroke-width:1.04992"
     id="path129" />
  <path
     d="m 613.4717,998.83083 c -1.03191,3.41997 -2.00198,4.22167 -5.12366,5.93127 -4.8128,2.0064 -9.66763,2.287 -14.80482,2.6537 -6.69915,0.5599 -13.21714,1.2643 -19.81323,2.6272 -12.37753,2.2925 -25.12019,1.6895 -37.64291,1.6321 -2.03814,-0.01 -4.07628,-0.011 -6.11442,-0.015 -4.94979,-0.012 -9.89953,-0.03 -14.8493,-0.052 0,-0.3514 0,-0.7028 0,-1.0648 6.28868,-1.2895 12.55926,-1.3817 18.94985,-1.5224 5.6397,-0.2128 10.34891,-1.2583 15.70156,-3.0519 4.51876,-1.2944 9.0813,-1.4702 13.74633,-1.748 11.58914,-0.8285 23.04043,-2.3133 34.53615,-3.9845 1.25811,-0.1812 2.5162,-0.36252 3.81242,-0.54927 1.11589,-0.16489 2.23177,-0.32978 3.38149,-0.49965 2.77541,-0.32564 5.43088,-0.42552 8.22054,-0.3572 z"
     style="fill:#11a55e;stroke-width:1.04992"
     id="path131" />
  <path
     d="m 556.53319,601.65769 c 0.24621,1.7933 0.24621,1.7933 0.4974,3.62283 1.72027,11.68503 3.57867,21.42999 13.06998,29.08672 7.60075,5.28709 14.40923,6.74102 23.50735,7.28728 1.07594,0.069 1.07594,0.069 2.17362,0.13934 1.75554,0.11206 3.51135,0.21974 5.26721,0.32651 0.51245,2.10831 0.51245,2.10831 1.03525,4.25923 -9.7305,3.05255 -20.24678,1.77014 -29.274,-2.67867 -9.02438,-5.06051 -16.28046,-10.19332 -19.38255,-20.7471 -1.55533,-6.4437 -2.53181,-12.52369 -2.07049,-19.16652 2.07049,-2.12962 2.07049,-2.12962 5.17623,-2.12962 z"
     style="fill:#60555e;stroke-width:1.04992"
     id="path133" />
  <path
     d="m 442.65616,449.39024 c 2.07049,3.19442 2.07049,3.19442 2.07049,5.32403 2.56224,0.52708 2.56224,0.52708 5.17623,1.06481 0.23492,3.54389 0.33296,5.76913 -1.35876,8.91777 -1.74698,1.73031 -1.74698,1.73031 -4.85271,1.73031 -0.1121,0.63002 -0.2242,1.26005 -0.3397,1.90916 -0.77998,2.63535 -1.73471,3.86929 -3.54247,5.87724 -2.24162,2.55936 -4.21649,5.12565 -6.08207,7.98606 -3.29158,4.54378 -4.70267,5.22916 -10.02894,6.05608 -5.13032,-0.71549 -7.52927,-3.20803 -11.06419,-6.92125 0.34163,-1.40554 0.68326,-2.81108 1.03524,-4.25922 0.61254,-0.0521 1.22507,-0.10436 1.85617,-0.15807 0.81804,-0.0796 1.63609,-0.15922 2.47892,-0.24123 0.8047,-0.0741 1.60941,-0.14824 2.43849,-0.22462 5.41117,-0.93794 8.33423,-2.7958 11.86085,-7.09594 0.70594,-0.86062 1.41189,-1.72123 2.13924,-2.60795 0.66057,-0.80846 1.32115,-1.61691 2.00174,-2.44988 0.54314,-0.57787 1.08628,-1.15573 1.64587,-1.75111 3.90942,-4.23084 4.28307,-7.53799 4.5656,-13.15619 z"
     style="fill:#928d8c;stroke-width:1.04992"
     id="path135" />
  <path
     d="m 543.07499,488.7881 c -0.64608,6.9776 -3.52473,11.38725 -8.41137,16.10522 -9.5889,8.05034 -22.37766,9.82906 -34.35721,9.78292 -1.3662,0.0257 -1.3662,0.0257 -2.75999,0.0519 -6.56077,0.005 -6.56077,0.005 -9.96626,-1.86965 -1.44368,-1.70948 -1.44368,-1.70948 -1.44368,-3.83909 1.61741,-0.0412 1.61741,-0.0412 3.26749,-0.0831 13.90266,-0.50451 27.05431,-2.42561 39.36361,-9.55 1.88447,-1.01492 1.88447,-1.01492 3.95496,-1.01492 0.34163,-1.05415 0.68326,-2.10831 1.03524,-3.19442 0.68326,0 1.36653,0 2.07049,0 0.32029,-0.8565 0.64056,-1.713 0.97055,-2.59546 1.52919,-3.79339 1.52919,-3.79339 6.27617,-3.79339 z"
     style="fill:#5a5458;stroke-width:1.04992"
     id="path137" />
  <path
     d="m 450.93813,558.00058 c 9.96424,1.99652 9.96424,1.99652 13.45819,3.19443 -0.62886,5.17457 -2.82372,9.307 -5.17623,13.84249 -0.68326,0 -1.36652,0 -2.07049,0 0,1.40555 0,2.8111 0,4.25923 -0.59118,-0.15373 -1.18236,-0.30746 -1.79146,-0.46584 -11.3299,-2.66788 -22.11358,-2.1413 -33.40689,0.46584 1.447,-3.63554 2.92967,-5.15391 6.21147,-7.1209 0.72597,-0.44335 1.45193,-0.88669 2.1999,-1.34349 3.41039,-1.96581 5.01993,-2.25909 8.92899,-1.85093 1.30514,0.1256 1.30514,0.1256 2.63664,0.25372 2.7984,0.47834 2.7984,0.47834 9.00988,2.60795 0,-4.56802 0,-9.13604 0,-13.8425 z"
     style="fill:#d8d6d2;stroke-width:1.04992"
     id="path139" />
  <path
     d="m 509.1707,628.21132 c 1.92167,0.033 1.92167,0.033 3.88217,0.0665 0,1.40554 0,2.8111 0,4.25923 -0.87277,0.0399 -1.74552,0.0796 -2.64473,0.12063 -1.70148,0.10498 -1.70148,0.10498 -3.43734,0.21212 -1.69348,0.0926 -1.69348,0.0926 -3.42117,0.18717 -1.44525,0.26972 -1.44525,0.26972 -2.91971,0.54489 -0.68326,1.05416 -1.36652,2.10831 -2.07049,3.19442 -2.5909,0.55814 -2.5909,0.55814 -5.83539,0.77781 -1.76254,0.12868 -1.76254,0.12868 -3.56068,0.25996 -1.23374,0.0748 -2.46748,0.14962 -3.73861,0.22669 -1.21372,0.0872 -2.42744,0.17431 -3.67795,0.26413 -5.79221,0.40031 -11.54537,0.71467 -17.35048,0.60103 0.9611,-1.40444 1.9339,-2.80044 2.91163,-4.19268 0.54047,-0.77828 1.08094,-1.55654 1.63779,-2.35838 1.66206,-1.9674 1.66206,-1.9674 4.76779,-3.03221 2.01399,-0.0759 4.03046,-0.0895 6.04567,-0.0666 1.18571,0.008 2.37141,0.0165 3.59304,0.0249 2.49914,0.0277 4.99829,0.0553 7.49743,0.0831 1.78057,0.0124 1.78057,0.0124 3.59708,0.0249 1.0862,0.0124 2.1724,0.0247 3.29151,0.0375 3.93581,-0.14154 7.4695,-1.30328 11.43244,-1.23534 z"
     style="fill:#8b717e;stroke-width:1.04992"
     id="path141" />
  <path
     d="m 470.6078,374.85372 c 2.79458,11.13823 4.16619,22.89268 -0.96246,33.46241 -1.10804,1.67624 -1.10804,1.67624 -3.17853,2.74104 0,-2.81109 0,-5.62218 0,-8.51846 -0.68326,0 -1.36652,0 -2.07049,0 -2.45087,-7.56257 -1.92239,-17.12551 1.03525,-24.49057 2.40444,-3.19442 2.40444,-3.19442 5.17623,-3.19442 z"
     style="fill:#ddecf5;stroke-width:1.04992"
     id="path143" />
  <path
     d="m 431.26846,463.23273 c 2.04979,0 4.09957,0 6.21147,0 -3.69609,6.14112 -7.27124,11.53264 -13.97581,14.2418 -8.34646,1.533 -8.34646,1.533 -11.77592,-0.46585 -1.16465,-2.06306 -1.16465,-2.06306 -1.16465,-9.51672 6.14936,0 12.29871,0 18.63442,0 0.68326,-1.40555 1.36652,-2.81109 2.07049,-4.25923 z"
     style="fill:#544d50;stroke-width:1.04992"
     id="path145" />
  <path
     d="m 437.47993,626.14826 c 5.17623,1.0648 5.17623,1.0648 7.24672,3.19442 -0.25881,2.19617 -0.25881,2.19617 -1.03524,4.25923 -1.0249,0.52708 -1.0249,0.52708 -2.07049,1.06481 0,2.10832 0,4.21663 0,6.38884 -10.45163,-0.37069 -10.45163,-0.37069 -14.16993,-3.12787 -1.35876,-2.19617 -1.35876,-2.19617 -1.35876,-4.32578 1.51036,0.50825 3.01995,1.01893 4.5292,1.53066 0.84073,0.28414 1.68147,0.56826 2.54768,0.86099 2.24033,0.80277 2.24033,0.80277 4.31082,1.86758 0,-3.86525 0,-7.7305 0,-11.71288 z"
     style="fill:#625a5f;stroke-width:1.04992"
     id="path147" />
  <path
     d="m 553.42745,618.6946 c 2.89822,2.64183 4.52226,5.55416 6.34088,9.05087 0.53646,1.02121 1.07294,2.04244 1.62566,3.09459 1.35067,2.76185 1.35067,2.76185 2.38592,5.95627 -5.23196,-1.92192 -7.28962,-6.37502 -9.57603,-11.31358 -0.77643,-2.52892 -0.77643,-2.52892 -0.77643,-6.78815 z"
     style="fill:#6e696c;stroke-width:1.04992"
     id="path149" />
  <path
     d="m 1016.1823,588.88 c 1.0515,3.24468 1.0453,4.2468 0.4569,7.46613 -0.1435,0.8064 -0.2868,1.61281 -0.4347,2.44365 -0.1568,0.8366 -0.3135,1.6732 -0.4751,2.53515 -0.1528,0.84896 -0.3056,1.69792 -0.4631,2.5726 -0.3779,2.0942 -0.7654,4.18659 -1.1545,6.27861 -0.3416,0 -0.6833,0 -1.0353,0 -0.2209,-14.08808 -0.2209,-14.08808 1.0353,-20.23133 0.6832,-0.35139 1.3665,-0.70277 2.0705,-1.06481 z"
     style="fill:#f5f6d8;stroke-width:1.04992"
     id="path151" />
  <path
     d="m 87.566893,225.78069 c 0,3.83538 -0.997232,5.33197 -2.911628,8.58501 -0.540471,0.93474 -1.080942,1.86948 -1.63779,2.83256 -1.662056,2.42492 -1.662056,2.42492 -4.767792,4.55454 1.436724,-4.14217 3.328542,-7.41702 5.823256,-10.98083 0.653902,-0.94023 1.307806,-1.88047 1.981522,-2.84919 0.499102,-0.70689 0.998204,-1.41378 1.512432,-2.14209 z"
     style="fill:#f9faf0;stroke-width:1.04992"
     id="path153" />
</svg>
