<?xml version="1.0" encoding="UTF-8" standalone="no"?>
<svg
   id="svg"
   version="1.1"
   style="display: block;"
   viewBox="0 0 1024 1024"
   sodipodi:docname="light-s.svg"
   inkscape:version="1.2.2 (732a01da63, 2022-12-09)"
   xmlns:inkscape="http://www.inkscape.org/namespaces/inkscape"
   xmlns:sodipodi="http://sodipodi.sourceforge.net/DTD/sodipodi-0.dtd"
   xmlns="http://www.w3.org/2000/svg"
   xmlns:svg="http://www.w3.org/2000/svg">
  <defs
     id="defs158" />
  <sodipodi:namedview
     id="namedview156"
     pagecolor="#505050"
     bordercolor="#ffffff"
     borderopacity="1"
     inkscape:showpageshadow="0"
     inkscape:pageopacity="0"
     inkscape:pagecheckerboard="1"
     inkscape:deskcolor="#505050"
     showgrid="false"
     inkscape:zoom="0.80240837"
     inkscape:cx="514.07739"
     inkscape:cy="519.6855"
     inkscape:window-width="1829"
     inkscape:window-height="1057"
     inkscape:window-x="83"
     inkscape:window-y="-8"
     inkscape:window-maximized="1"
     inkscape:current-layer="svg" />
  <path
     d="M0 0 C337.92 0 675.84 0 1024 0 C1024 337.92 1024 675.84 1024 1024 C686.08 1024 348.16 1024 0 1024 C0 686.08 0 348.16 0 0 Z "
     style="fill: #FBFBFB;"
     id="path81"
     transform="translate(0,0)" />
  <path
     d="m 507,319 c 0.66,0.33 1.32,0.66 2,1 -0.0314,0.88184 -0.0314,0.88184 -0.0635,1.78149 -0.59229,19.22137 1.1574,35.55302 13.75098,51.03101 6.27685,6.49939 13.01516,10.42739 22.15234,10.88672 2.36576,0.0249 4.73199,0.0206 7.09766,-0.0117 2.3841,-0.009 4.76829,-0.006 7.15234,0.0117 1.56029,-0.018 1.56029,-0.018 3.1521,-0.0364 3.16432,0.38682 4.33739,1.35263 6.75806,3.33716 5.5707,0.67743 9.32135,-0.7117 14.0625,-3.4375 0.64848,-0.35618 1.29696,-0.71237 1.96509,-1.07935 3.86809,-2.16104 7.55192,-4.51349 11.20776,-7.01294 C 606.21398,368.68326 617.68383,363.72591 630,365 c 0.66,0.33 1.32,0.66 2,1 1.20468,22.31999 -9.37075,40.39834 -22,58 -0.63905,0.8926 -0.63905,0.8926 -1.29102,1.80322 C 603.74561,432.6627 598.64146,438.68683 592,444 c -5.14295,4.3327 -9.51292,8.2329 -13,14 -0.48727,0.45375 -0.97453,0.9075 -1.47656,1.375 -6.08823,6.49411 -6.71493,18.01841 -8.15576,26.50488 -0.61901,3.56937 -1.311,7.12479 -1.99268,10.68262 -1.8203,9.56149 -2.61766,18.74166 -2.67017,28.46045 -0.0115,1.47764 -0.0319,2.95523 -0.0615,4.43262 -0.21012,10.52489 0.13261,20.55735 6.98169,29.16943 3.52611,3.52611 5.49668,3.50839 10.375,3.75 12.68954,0.93531 22.89884,5.01513 31.8125,14.3125 8.71902,10.45046 10.41184,19.89958 9.41797,33.19531 C 622.22772,619.09451 616.9006,626.02711 610,632 c -0.99,0 -1.98,0 -3,0 0,0.66 0,1.32 0,2 1.26715,-0.0232 2.5343,-0.0464 3.83984,-0.0703 1.69922,-0.0188 3.39844,-0.037 5.09766,-0.0547 0.8308,-0.0168 1.6616,-0.0335 2.51758,-0.0508 4.06397,-0.0316 7.77759,0.11774 11.72851,1.10547 5.85382,1.44859 11.78864,1.71914 17.78739,2.15768 30.22231,2.28178 59.75929,7.66091 89.40402,13.85013 1.78581,0.37015 1.78581,0.37015 3.6077,0.74777 14.71386,3.06656 29.20488,6.58869 43.64084,10.77689 4.76558,1.38155 9.5532,2.62541 14.37646,3.78784 4.77081,1.16167 9.38851,2.47423 14.01562,4.10937 2.0472,0.66091 4.06205,1.09982 6.17188,1.51563 5.01377,1.05598 9.69442,2.83079 14.49438,4.60181 3.80442,1.36902 7.64679,2.57701 11.51059,3.76616 12.65318,3.90819 25.02757,8.4434 37.39005,13.18306 3.33545,1.27793 6.675,2.54468 10.01514,3.8103 2.15259,0.82031 4.30494,1.64125 6.45703,2.46289 0.98338,0.373 1.96676,0.74599 2.97995,1.13029 4.89654,1.88344 9.60422,3.9146 14.26526,6.32172 2.13392,1.06535 4.30014,1.85943 6.56729,2.59486 0.82242,0.28037 1.64484,0.56075 2.49218,0.84961 1.69702,0.56787 3.39769,1.12494 5.10157,1.67188 0.81468,0.28166 1.62937,0.56332 2.46875,0.85351 0.7346,0.24162 1.46921,0.48324 2.22607,0.73218 C 937,715 937,715 938.3728,717.30322 c 0.78515,3.37592 0.2401,4.63564 -1.26733,7.72412 -0.45641,0.94996 -0.91282,1.89992 -1.38306,2.87867 -0.50652,1.00039 -1.01304,2.00078 -1.53491,3.03149 -0.50974,1.03326 -1.01949,2.06653 -1.54468,3.1311 -3.72077,7.41658 -7.80455,14.36588 -12.48511,21.20972 -2.21509,3.29415 -4.30497,6.66767 -6.40771,10.03418 -0.40033,0.63414 -0.80067,1.26828 -1.21313,1.92163 -2.1011,3.35314 -4.072,6.73574 -5.94312,10.2229 -2.55348,4.63896 -5.58058,8.75767 -8.84375,12.91797 -0.57138,0.73678 -1.14275,1.47356 -1.73145,2.23267 -6.69922,8.60751 -13.5662,17.00435 -20.91308,25.07202 -1.83465,2.02185 -3.63316,4.0671 -5.41797,6.13281 -9.22595,10.57766 -18.72045,21.02411 -29.39063,30.16406 -2.261,1.99184 -4.44389,4.05419 -6.62768,6.12989 -6.77366,6.40209 -13.94571,12.07289 -21.39966,17.65917 -3.4305,2.57579 -6.77195,5.24084 -10.09082,7.95826 -10.23401,8.36902 -20.89017,15.1517 -32.6123,21.28784 -4.25395,2.30447 -8.26151,4.97984 -12.31641,7.61328 -14.59024,9.39693 -30.16524,17.66823 -46.28516,24.12891 -3.09161,1.25029 -3.09161,1.25029 -6.43359,3.0625 -6.08728,3.08294 -12.55944,5.25085 -18.96875,7.55859 -1.35881,0.4922 -2.71753,0.98463 -4.07617,1.47729 -2.65312,0.96109 -5.30736,1.91901 -7.9624,2.87476 -2.83723,1.02489 -5.66874,2.06245 -8.49659,3.11279 -16.04891,5.91078 -32.59288,10.07819 -49.35205,13.42408 -3.99324,0.8184 -7.45747,1.63841 -11.19482,3.3142 -4.57015,1.86705 -8.83924,2.14912 -13.73047,2.48438 -5.38531,0.39935 -10.64879,0.86619 -15.94922,1.92578 -7.0713,1.34523 -14.18933,1.75206 -21.36328,2.13672 -0.75295,0.0414 -1.50591,0.0827 -2.28168,0.12534 -34.44157,1.83122 -70.4891,3.64473 -104.24566,-4.51206 -4.45098,-0.84039 -8.87246,-1.27648 -13.37867,-1.71045 -12.79876,-1.23342 -24.54669,-3.58354 -36.8435,-7.26367 -5.51784,-1.56865 -11.12699,-2.78802 -16.72656,-4.02734 C 375.01572,961.60774 370.66793,960.0277 366,958 c -2.10569,-0.61784 -4.22489,-1.1492 -6.35303,-1.68433 C 325.98824,947.7189 293.48707,930.93278 264,913 c -1.28415,-0.77561 -1.28415,-0.77561 -2.59424,-1.56689 -11.51671,-6.98555 -22.41873,-14.62943 -33.16406,-22.74561 -2.12158,-1.59708 -4.25481,-3.17669 -6.39404,-4.75 -12.82101,-9.45594 -25.48844,-19.16347 -36.54688,-30.66797 -2.37312,-2.34088 -4.8577,-4.34938 -7.48828,-6.39453 -7.00969,-5.60578 -12.90262,-12.21885 -18.94141,-18.83496 -1.78593,-1.94719 -3.58935,-3.87588 -5.40234,-5.79785 -15.58309,-16.53977 -15.58309,-16.53977 -20.71875,-24.67969 -1.60016,-2.64175 -1.60016,-2.64175 -4.01172,-4.24609 -3.4615,-2.92821 -5.7547,-6.21699 -8.30078,-9.94141 -0.76522,-1.10541 -0.76522,-1.10541 -1.5459,-2.23315 -1.07939,-1.56486 -2.15465,-3.13256 -3.22607,-4.70289 -1.69408,-2.48077 -3.40433,-4.9499 -5.11475,-7.41943 -1.10151,-1.60982 -2.20181,-3.22047 -3.30078,-4.83203 -0.52537,-0.75813 -1.05075,-1.51626 -1.59204,-2.29736 -0.4801,-0.71269 -0.96019,-1.42538 -1.45483,-2.15967 -0.63954,-0.93743 -0.63954,-0.93743 -1.292,-1.8938 C 102,756 102,756 102,752 c -0.99,-0.33 -1.98,-0.66 -3,-1 -1.16333,-1.66724 -1.16333,-1.66724 -2.26953,-3.83203 -0.41145,-0.79334 -0.82291,-1.58668 -1.24683,-2.40405 -0.42772,-0.85022 -0.85545,-1.70044 -1.29614,-2.57642 -0.43997,-0.85989 -0.87995,-1.71977 -1.33325,-2.60571 -0.88142,-1.72548 -1.75899,-3.45292 -2.63257,-5.18238 -1.057593,-2.07714 -2.140648,-4.13603 -3.245118,-6.18847 -0.54914,-1.03899 -1.098281,-2.07797 -1.664062,-3.14844 -0.478242,-0.8959 -0.956484,-1.7918 -1.449219,-2.71484 C 83,720 83,720 83.011475,718.05859 c 1.590331,-3.31184 4.694469,-4.06153 7.941655,-5.34375 0.71871,-0.29743 1.43742,-0.59486 2.17791,-0.9013 2.36693,-0.9743 4.74236,-1.9256 7.11896,-2.87604 1.64879,-0.67125 3.29723,-1.34338 4.94531,-2.01636 22.71481,-9.23548 45.70058,-17.70576 68.82422,-25.85913 2.56508,-0.914 5.11875,-1.85102 7.66797,-2.8081 8.87989,-3.30779 17.82776,-5.72428 27.0415,-7.93677 6.89147,-1.66966 13.63888,-3.60976 20.396,-5.75464 21.30351,-6.67849 43.24208,-10.99692 65.1709,-15.05566 3.59682,-0.67417 7.18114,-1.39965 10.7666,-2.13184 7.95719,-1.59679 15.93346,-3.03682 23.9375,-4.375 0.89461,-0.15082 1.78922,-0.30164 2.71094,-0.45703 17.54918,-2.92486 35.15342,-4.9353 52.83476,-6.83446 C 394.71362,634.60882 404.85823,633.31703 415,632 c -0.4121,-0.59458 -0.82419,-1.18916 -1.24878,-1.80176 -0.54052,-0.79245 -1.08104,-1.5849 -1.63794,-2.40137 -0.53585,-0.7802 -1.07169,-1.56041 -1.62378,-2.36425 C 408.27448,621.8151 407.07613,618.07964 406,614 c -0.22688,-0.825 -0.45375,-1.65 -0.6875,-2.5 -1.30001,-10.40006 0.62385,-19.79306 6.9375,-28.375 7.00625,-8.16162 12.95264,-11.29847 23.75,-12.125 8.25663,-0.53615 15.23788,0.0563 23,3 0,-1.32 0,-2.64 0,-4 1.38818,-1.50806 1.38818,-1.50806 3,-3 1.00786,-1.84021 1.00786,-1.84021 1.78906,-3.87109 0.30164,-0.73928 0.60328,-1.47856 0.91406,-2.24024 0.30422,-0.76763 0.60844,-1.53527 0.92188,-2.32617 0.31195,-0.76377 0.62391,-1.52754 0.94531,-2.31445 4.23008,-10.47493 5.40573,-22.46395 2.59375,-33.54102 C 463.57573,510.61148 451.63608,505.79974 440,501 c -2.01323,-0.72967 -4.033,-1.44189 -6.0625,-2.125 -9.89368,-3.47173 -19.62232,-12.06272 -24.21875,-21.50781 C 408.84772,474.49845 408.86136,471.98071 409,469 c -1.65,0 -3.3,0 -5,0 -2.40373,-5.389 -2.93242,-10.16641 -2,-16 1.59727,-3.36587 3.58152,-6.1755 6,-9 0.43699,-0.53625 0.87398,-1.0725 1.32422,-1.625 4.44188,-3.64462 10.29466,-3.7929 15.80078,-4.3125 14.91616,-1.62331 29.32461,-4.60233 39.19141,-16.82813 0.55558,-0.73734 1.11117,-1.47468 1.68359,-2.23437 0.50402,-0.63422 1.00805,-1.26844 1.52734,-1.92188 6.0207,-7.88798 6.00832,-15.50969 5.47266,-25.07812 -0.61865,-4.48088 -1.57044,-8.71131 -3,-13 -1.68268,-20.90608 3.2206,-34.4387 16.65234,-50.54297 C 492.60265,322.2295 498.38994,318.6925 507,319 Z"
     style="fill:#0fa14d"
     id="path85" />
  <path
     d="m 493.92578,30.796875 c 1.29387,-0.007 2.58773,-0.01403 3.92081,-0.02125 4.15531,-0.01941 8.31056,-0.02444 12.46591,-0.02562 0.70752,-4.42e-4 1.41504,-8.84e-4 2.144,-0.0013 C 533.45654,30.74178 554.16796,31.025238 575,34 c 1.28036,0.171606 2.56072,0.343213 3.87988,0.52002 82.79727,11.134517 166.11259,42.507259 232.34571,94.10254 1.71894,1.33438 3.45064,2.64981 5.18847,3.95947 7.76669,5.87089 15.2159,12.06009 22.58594,18.41797 0.73992,0.63809 1.47984,1.27617 2.24219,1.93359 1.92946,1.67763 3.84408,3.37085 5.75781,5.06641 1.05502,0.92776 1.05502,0.92776 2.13135,1.87427 6.38101,5.66691 12.47276,11.57491 18.49243,17.61914 1.56894,1.57433 3.14321,3.14321 4.71802,4.71167 5.42935,5.42545 10.70105,10.92969 15.6582,16.79492 0.87687,1.00975 1.75443,2.01891 2.63281,3.02734 7.47604,8.72986 14.48834,17.7669 21.36719,26.97266 0.52852,0.70222 1.05703,1.40443 1.60156,2.12793 C 928.2257,250.62378 940.71814,271.41831 952,293 c 0.728,1.3743 0.728,1.3743 1.4707,2.77637 25.02138,47.42193 40.6078,99.27076 48.2422,152.24188 0.2677,1.84807 0.5465,3.69453 0.8262,5.54083 5.5566,38.18531 5.2344,81.32215 -0.5391,119.44092 -0.1958,1.35165 -0.3911,2.70338 -0.5859,4.05518 C 993.7593,629.44751 977.58174,678.63249 954,726 c -0.66636,1.34675 -0.66636,1.34675 -1.34619,2.7207 C 941.96033,750.19614 929.32809,770.75628 915,790 c -0.41911,0.56396 -0.83821,1.12793 -1.27002,1.70898 C 910.8804,795.52045 907.96053,799.27409 905,803 c -0.50676,0.63825 -1.01353,1.27649 -1.53564,1.93408 -6.12956,7.69189 -12.34651,15.23967 -19.0503,22.44092 -1.85822,2.0206 -3.64457,4.0659 -5.42578,6.15234 -4.67527,5.3606 -9.72155,10.35558 -14.75806,15.37281 -1.66448,1.65912 -3.32355,3.32353 -4.98217,4.98852 C 853.67178,859.46875 848.03442,864.91189 842,870 c -1.00986,0.87675 -2.01901,1.75431 -3.02734,2.63281 C 830.2435,880.10825 821.21168,887.1301 812,894 c -0.7288,0.54447 -1.45761,1.08894 -2.2085,1.6499 -79.43502,59.07157 -181.40334,96.1923 -280.71728,96.5532 -1.9408,0.011 -1.9408,0.011 -3.92081,0.021 -4.15531,0.019 -8.31056,0.024 -12.46591,0.026 -0.70752,4e-4 -1.41504,9e-4 -2.144,0 -21.00004,0.01 -41.71146,-0.2765 -62.5435,-3.2513 -1.28036,-0.17161 -2.56072,-0.34321 -3.87988,-0.52002 -82.79727,-11.13452 -166.11259,-42.50726 -232.34571,-94.10254 -1.71894,-1.33438 -3.45064,-2.64981 -5.18847,-3.95947 C 198.81925,884.54708 191.37004,878.35788 184,872 c -1.10988,-0.95713 -1.10988,-0.95713 -2.24219,-1.93359 C 179.82835,868.38878 177.91373,866.69556 176,865 c -0.70334,-0.61851 -1.40669,-1.23702 -2.13135,-1.87427 -6.38101,-5.66691 -12.47276,-11.57491 -18.49243,-17.61914 -1.56894,-1.57433 -3.14321,-3.14321 -4.71802,-4.71167 C 145.22885,835.36947 139.95715,829.86523 135,824 c -0.87687,-1.00975 -1.75443,-2.01891 -2.63281,-3.02734 C 124.89115,812.2428 117.87885,803.20576 111,794 c -0.52852,-0.70222 -1.05703,-1.40443 -1.60156,-2.12793 C 94.7743,772.37622 82.281859,751.58169 71,730 70.514668,729.0838 70.029336,728.1676 69.529297,727.22363 44.507922,679.8017 28.921462,627.95287 21.287109,574.98175 21.019367,573.13368 20.740581,571.28722 20.460937,569.44092 14.904306,531.25561 15.226489,488.11877 21,450 c 0.195823,-1.35165 0.391113,-2.70338 0.585937,-4.05518 C 29.240732,393.55249 45.418261,344.36751 69,297 c 0.444243,-0.89783 0.888486,-1.79566 1.346191,-2.7207 C 107.85453,218.95228 107.85453,218.95228 136,204 c 6.77873,7.84906 6.77873,7.84906 7.33594,13.26562 -0.40511,4.50328 -2.01875,6.42993 -5.02344,9.54688 -16.17604,17.94862 -28.60353,39.07322 -40.87891,59.7793 -2.01168,3.37929 -4.04978,6.74255 -6.08911,10.10522 C 89.385609,300.0524 87.685142,303.50009 86,307 c -0.66,0 -1.32,0 -2,0 -0.376406,1.20914 -0.752813,2.41828 -1.140625,3.66406 -2.136379,6.40664 -4.901305,12.53006 -7.609375,18.71094 -5.76956,13.31474 -11.170102,26.61909 -15.34375,40.53125 -0.358682,1.19416 -0.717363,2.38831 -1.086914,3.61865 -0.702827,2.36619 -1.392692,4.73627 -2.068359,7.11035 -0.314854,1.0717 -0.629707,2.14339 -0.954102,3.24756 -0.274893,0.96309 -0.549785,1.92618 -0.833008,2.91846 C 54.486753,387.88964 54.486753,387.88964 54,389 c -0.99,0.33 -1.98,0.66 -3,1 0.03771,1.30058 0.07541,2.60117 0.114258,3.94116 -0.0045,4.87753 -0.813519,9.27289 -1.942383,14.00025 -0.392207,1.73887 -0.784123,3.4778 -1.175781,5.21679 -0.610863,2.66059 -1.226332,5.31996 -1.849121,7.97779 -6.527069,28.04073 -8.794847,55.50138 -8.47992,84.18731 0.0276,2.93781 0.03588,5.87553 0.04357,8.81344 0.01007,3.58988 0.02973,7.17968 0.0511,10.76951 0.0074,1.28258 0.01477,2.56515 0.02238,3.8866 0.08241,7.94147 0.446353,15.82347 0.995987,23.7434 0.26477,4.17033 0.319713,8.28581 0.28241,12.46375 -0.0045,0.69094 -0.009,1.38188 -0.01367,2.09375 C 39.03747,568.72921 39.01957,570.36462 39,572 c 0.99,0.33 1.98,0.66 3,1 0.120044,0.77263 0.240088,1.54526 0.36377,2.34131 7.166984,45.66508 19.381096,89.54875 38.567138,131.69116 1.493809,3.35842 2.504974,6.46357 3.069092,10.09253 0.97388,6.20589 4.039204,11.48521 6.9751,16.95605 1.08345,2.02857 2.1396,4.06988 3.19287,6.11426 0.71401,1.37283 1.42883,2.74524 2.14453,4.11719 0.33725,0.65251 0.6745,1.30501 1.02197,1.97729 1.68665,3.46322 1.68665,3.46322 4.66553,5.71021 0.55687,1.39219 0.55687,1.39219 1.125,2.8125 2.42002,5.90104 6.24699,10.98006 9.875,16.1875 0.48807,0.70141 0.97614,1.40282 1.479,2.12549 1.58597,2.27376 3.17698,4.54388 4.771,6.81201 0.50717,0.72171 1.01433,1.44343 1.53687,2.18701 4.86359,6.89262 4.86359,6.89262 10.52563,13.12549 2.16663,2.21702 3.9549,4.35196 5.8125,6.8125 3.79096,4.96632 7.99078,9.51135 12.23828,14.08203 2.15539,2.33421 4.25508,4.69542 6.32422,7.10547 2.98151,3.44515 6.17051,6.63099 9.42187,9.82031 1.68867,1.72356 3.19538,3.48683 4.70313,5.36719 3.27319,3.91724 7.20922,6.87277 11.19141,10.03906 3.21262,2.70581 6.13102,5.58075 9.05859,8.58594 5.00858,5.10803 10.23114,9.60908 15.9375,13.9375 1.25723,0.97303 2.51368,1.94707 3.76953,2.92187 C 231.00752,890.35226 252.81631,905.44972 276,919 c 0.73557,0.43313 1.47114,0.86625 2.229,1.3125 26.65996,15.61416 56.46504,28.68851 86.36084,36.75 3.11494,0.85634 6.11834,1.85446 9.16016,2.9375 7.10013,2.41191 14.38304,4.02616 21.68359,5.70312 3.63202,0.8346 7.24494,1.71814 10.85157,2.65625 9.65289,2.4796 18.96702,4.14748 28.90796,4.90308 6.80913,0.54643 13.35865,1.67338 20.00634,3.2417 16.9836,3.80935 34.48805,3.83139 51.80054,3.74585 1.61928,-0.004 1.61928,-0.004 3.27127,-0.007 14.40593,-0.0379 28.78158,-0.31898 43.16623,-1.11761 0.72727,-0.0391 1.45455,-0.0782 2.20386,-0.11853 7.36157,-0.41048 14.54467,-1.09567 21.78271,-2.5426 5.29067,-0.95273 10.67502,-1.21967 16.03296,-1.58692 5.49454,-0.4495 9.45957,-1.63738 14.54297,-3.87734 4.19788,-1.08399 8.44237,-1.93485 12.6875,-2.8125 32.11246,-6.92445 66.00913,-17.16066 95.12109,-32.54297 2.63819,-1.35945 5.28506,-2.63495 7.97657,-3.88281 15.20387,-7.0536 29.33562,-15.25075 43.47119,-24.22266 4.05358,-2.55274 8.16445,-4.85193 12.43115,-7.03906 6.35351,-3.35584 11.8641,-7.5215 17.44189,-12.00781 2.85343,-2.27619 5.74715,-4.4996 8.63623,-6.73023 C 809.52255,878.8568 813.26261,875.93024 817,873 c 1.01191,-0.79277 2.02383,-1.58555 3.06641,-2.40234 6.76425,-5.41343 13.05175,-11.28793 19.34765,-17.23047 2.9654,-2.79658 5.97728,-5.53345 9.02344,-8.24219 6.26721,-5.61351 12.10771,-11.48984 17.58984,-17.87109 1.93718,-2.21337 3.92323,-4.37569 5.92432,-6.53125 13.26077,-14.30253 28.31908,-30.88348 36.93896,-48.52344 2.03133,-4.1407 4.37969,-8.00225 6.85938,-11.88672 0.88936,-1.41404 1.77868,-2.8281 2.66797,-4.24219 1.5508,-2.45273 3.11599,-4.89346 4.69531,-7.32812 4.06648,-6.37271 7.55441,-12.86743 10.82422,-19.67969 0.39002,-0.80542 0.78004,-1.61084 1.18188,-2.44067 0.36151,-0.7711 0.72301,-1.54221 1.09546,-2.33667 0.3209,-0.68184 0.6418,-1.36367 0.97242,-2.06617 0.91048,-2.23892 0.91048,-2.23892 1.16235,-4.81713 0.951,-4.97422 2.92107,-9.44447 4.8418,-14.1167 0.42353,-1.04677 0.84706,-2.09353 1.28343,-3.17202 1.35678,-3.35259 2.72129,-6.70195 4.08766,-10.05064 8.86191,-21.72416 17.50006,-43.41431 23.0625,-66.25 0.27616,-1.11383 0.27616,-1.11383 0.55789,-2.25015 C 977.82978,598.67342 981.39918,575.41466 984,552 c 0.66,0 1.32,0 2,0 -0.0686,-1.03004 -0.13712,-2.06008 -0.20776,-3.12134 -0.61542,-9.95987 -0.88807,-19.89638 -0.96802,-29.87475 -0.0179,-1.87252 -0.0179,-1.87252 -0.0361,-3.78287 -0.0486,-5.17256 -0.0961,-10.3449 -0.11405,-15.51767 -0.0725,-17.55908 -1.38176,-34.41652 -4.21905,-51.74661 -0.67209,-4.3673 -1.14227,-8.74827 -1.58002,-13.14426 -1.0056,-9.82919 -1.0056,-9.82919 -3.88281,-19.24219 -0.9686,-2.50919 -1.45802,-4.73155 -1.86719,-7.38281 -2.29586,-13.3978 -6.24297,-26.32774 -10.5625,-39.1875 -0.2565,-0.76714 -0.51301,-1.53429 -0.77728,-2.32468 C 953.97608,343.41459 945.30559,320.29602 933,299 c -0.40815,-0.71076 -0.8163,-1.42151 -1.23682,-2.15381 -2.46216,-4.27012 -4.975,-8.50792 -7.50879,-12.73584 -1.28071,-2.15463 -2.53804,-4.32144 -3.78955,-6.49316 -4.52436,-7.83305 -9.22605,-15.40901 -14.46484,-22.78516 -1.65725,-2.34669 -3.21468,-4.71818 -4.75,-7.14453 -4.3966,-6.6563 -9.67364,-12.69263 -14.74023,-18.84131 -1.91261,-2.3388 -3.77382,-4.71617 -5.63477,-7.09619 -3.80259,-4.77534 -7.90643,-9.23246 -12.06641,-13.69531 -2.01592,-2.16602 -3.94994,-4.38645 -5.87109,-6.63672 -4.65673,-5.34335 -9.68862,-10.31867 -14.70728,-15.31812 -1.66448,-1.65912 -3.32355,-3.32353 -4.98217,-4.98852 C 837.67168,175.53116 832.03327,170.08958 826,165 c -1.02166,-0.88838 -2.04253,-1.77765 -3.0625,-2.66797 -16.43779,-14.0989 -34.17817,-26.67033 -52.27344,-38.54687 -2.46725,-1.65328 -4.84041,-3.3931 -7.22656,-5.16016 -10.64066,-7.49799 -22.86721,-12.90764 -34.51807,-18.65161 -3.41392,-1.68994 -6.78861,-3.42956 -10.13037,-5.25855 -8.71088,-4.763949 -17.33472,-8.704155 -26.70703,-11.974606 -2.14448,-0.762436 -4.26964,-1.565496 -6.39453,-2.380859 C 653.1092,67.910669 619.503,59.810026 585.1001,54.499512 c -3.29426,-0.530797 -6.56162,-1.141079 -9.82788,-1.821533 -13.31684,-2.654283 -26.79727,-2.836157 -40.33863,-2.91626 -0.68109,-0.0049 -1.36217,-0.0097 -2.0639,-0.01474 -5.14406,-0.0362 -10.28802,-0.05269 -15.43219,-0.05948 -0.75704,-0.0012 -1.51408,-0.0023 -2.29406,-0.0035 C 490.88569,49.658427 467.01962,50.338716 443,54 c -1.43502,0.211342 -2.87008,0.42244 -4.30518,0.633301 C 409.60259,58.976054 381.04033,65.728198 353.375,75.75 c -1.13644,0.411266 -1.13644,0.411266 -2.29584,0.830841 -7.58589,2.767535 -15.01403,5.630861 -22.11944,9.508514 C 327,87 327,87 323.4375,87.375 318.22169,85.288676 314.05423,81.73552 311,77 c -0.40625,-3.007813 -0.40625,-3.007813 1,-6 3.27624,-2.12093 6.84437,-3.359572 10.5,-4.6875 1.11077,-0.420798 2.22154,-0.841597 3.36597,-1.275146 3.06034,-1.142816 6.12872,-2.257681 9.20672,-3.351929 1.92371,-0.684143 3.84474,-1.37542 5.76569,-2.067261 C 381.63531,45.005917 423.8426,35.872582 467,32 c 1.45441,-0.130993 1.45441,-0.130993 2.9382,-0.264633 8.00583,-0.670214 15.95572,-0.909299 23.98758,-0.938492 z"
     style="fill:#bbd12f"
     id="path87" />
  <path
     d="m 503,324 c 0.625,1.875 0.625,1.875 1,4 -0.66,0.66 -1.32,1.32 -2,2 -1.13885,11.28059 -0.12342,20.75315 5,31 0.44602,0.95391 0.89203,1.90781 1.35156,2.89062 5.80398,11.60797 14.50748,20.05127 25.8086,26.30469 4.33617,1.22868 8.5528,0.83642 13.02734,0.67969 6.99574,-0.14321 12.39319,0.0478 18.75781,3.21875 4.30924,1.90065 8.71764,1.73552 13.11328,0.17578 4.18089,-1.99672 8.04507,-4.55469 11.94141,-7.05078 2.57909,-1.57163 5.25831,-2.8611 7.97656,-4.17188 2.91197,-1.50657 5.62661,-3.28641 8.35938,-5.09375 C 609,377 609,377 611,377 c 0,-0.66 0,-1.32 0,-2 4.95,-0.99 9.9,-1.98 15,-3 0,1.98 0,3.96 0,6 -0.99,0.495 -0.99,0.495 -2,1 -0.38929,1.65449 -0.70878,3.32546 -1,5 -2.10436,8.9836 -7.14243,16.28194 -12,24 -1.17285,1.88877 -2.34208,3.7797 -3.50903,5.67212 -0.99051,1.60111 -1.99232,3.19522 -2.99488,4.78882 -1.60833,2.52717 -1.60833,2.52717 -2.49609,5.53906 -1.40809,1.17341 -2.81995,2.34271 -4.25391,3.48437 -3.84932,3.34125 -7.04494,7.39814 -10.23047,11.36329 -1.13619,1.41355 -2.32137,2.78748 -3.51562,4.15234 -0.66,0 -1.32,0 -2,0 -0.37705,0.86432 -0.37705,0.86432 -0.76172,1.74609 -1.39331,2.5361 -3.03017,4.24944 -5.05078,6.31641 -8.36516,9.21534 -10.88265,20.46466 -12.61719,32.46875 -0.72381,4.40237 -1.76974,8.69038 -2.88672,13.00781 -1.86696,9.4522 -1.89768,19.07333 -1.92382,28.67578 -0.01,2.15014 -0.0409,4.29931 -0.0723,6.44922 -0.0916,11.92584 0.80216,24.50655 8.3125,34.33594 2.94164,2.60544 4.78785,3.37189 8.70312,3.40625 1.34772,0.0329 1.34772,0.0329 2.72266,0.0664 0.93199,0.009 1.86399,0.018 2.82422,0.0273 10.47211,0.1031 17.748,1.69018 25.63281,9.04297 C 615.41734,588.44743 616.92462,599.433 616,612 c -1.54528,6.18997 -5.11102,11.88127 -10,16 -2.91202,1.61561 -5.88331,2.84059 -9,4 -0.66,0.33 -1.32,0.66 -2,1 -10.66437,0.87745 -19.85856,-0.50131 -28.25391,-7.41016 -8.74278,-7.96043 -11.08312,-16.5868 -11.66797,-28.09765 -0.0387,-1.23364 -0.0387,-1.23364 -0.0781,-2.49219 -1.32,0.66 -2.64,1.32 -4,2 -0.66955,11.60548 3.11057,21.20065 9,31 -1.89647,-0.11494 -3.79218,-0.2424 -5.6875,-0.375 -1.05574,-0.0696 -2.11148,-0.13922 -3.19922,-0.21094 C 548.09323,627.0124 545.75922,626.25931 543,625 c 0,-0.66 0,-1.32 0,-2 1.32,-0.66 2.64,-1.32 4,-2 -6.93,-0.33 -13.86,-0.66 -21,-1 0,1.32 0,2.64 0,4 -4.29,0 -8.58,0 -13,0 0,-1.32 0,-2.64 0,-4 -0.70673,0.14292 -1.41346,0.28585 -2.1416,0.43311 -7.9433,1.4808 -15.54307,1.8105 -23.6084,1.69189 -1.18594,-0.009 -2.37188,-0.0181 -3.59375,-0.0273 -2.88564,-0.0233 -5.77083,-0.056 -8.65625,-0.0977 0.53028,-2.81861 1.13639,-5.40116 2.0625,-8.125 1.888,-7.80374 2.18847,-16.79004 -2.0625,-23.875 -2.76225,-2.95218 -5.57495,-5.64317 -8.60156,-8.32422 C 463.58966,578.54221 462.86947,577.19783 463,573 c 1.10288,-2.71181 2.61989,-5.09735 4.1875,-7.5625 7.9849,-13.48252 11.34874,-27.22652 8.11719,-42.78516 C 471.66996,511.54963 464.02018,505.5473 454,500 c -6.38691,-2.72818 -12.9402,-4.71435 -19.625,-6.5625 -3.72387,-1.06571 -5.967,-2.26332 -8.375,-5.4375 1.7325,-0.40219 1.7325,-0.40219 3.5,-0.8125 5.35253,-1.94897 7.68858,-5.99136 10.73828,-10.59375 C 442,474 442,474 443.66797,472.34375 445.27132,470.92486 445.27132,470.92486 446,468 c 0.95906,-0.34031 0.95906,-0.34031 1.9375,-0.6875 2.57884,-1.64108 2.60382,-2.53651 3.3125,-5.4375 0.2475,-1.27875 0.495,-2.5575 0.75,-3.875 -1.98,0 -3.96,0 -6,0 -0.10312,-0.92813 -0.20625,-1.85625 -0.3125,-2.8125 -0.7343,-3.40448 -1.02422,-4.13395 -3.6875,-6.1875 -2.84231,-0.9002 -5.69104,-1.51456 -8.60156,-2.15625 C 432.60695,446.56531 431.81547,446.28687 431,446 c -0.33,-0.99 -0.66,-1.98 -1,-3 0.94359,-0.0864 1.88719,-0.17273 2.85937,-0.26172 15.21963,-1.6656 27.97758,-6.65949 37.92579,-18.83984 2.16167,-3.37806 3.17949,-7.05498 4.21484,-10.89844 0.495,-1.485 0.495,-1.485 1,-3 1.32,0 2.64,0 4,0 -0.11604,-2.60483 -0.2427,-5.20848 -0.375,-7.8125 -0.0309,-0.71865 -0.0619,-1.4373 -0.0937,-2.17773 -0.22112,-4.18279 -0.7165,-8.16008 -1.54688,-12.26758 -1.19934,-6.27875 -1.35191,-12.42586 -1.35937,-18.80469 -0.0245,-1.10666 -0.049,-2.21332 -0.0742,-3.35352 -0.029,-8.18434 0.9677,-15.57757 6.49609,-21.93945 0.64454,-0.54269 1.28907,-1.08539 1.95313,-1.64453 1.10382,-1.42183 2.187,-2.8599 3.25,-4.3125 4.19784,-5.48252 9.01159,-9.86189 14.75,-13.6875 z"
     style="fill:#cbc3be"
     id="path89" />
  <path
     d="m 493.92578,30.796875 c 1.29387,-0.007 2.58773,-0.01403 3.92081,-0.02125 4.15531,-0.01941 8.31056,-0.02444 12.46591,-0.02562 0.70752,-4.42e-4 1.41504,-8.84e-4 2.144,-0.0013 C 533.45654,30.74178 554.16796,31.025238 575,34 c 1.28036,0.171606 2.56072,0.343213 3.87988,0.52002 82.79727,11.134517 166.11259,42.507259 232.34571,94.10254 1.71894,1.33438 3.45064,2.64981 5.18847,3.95947 7.76669,5.87089 15.2159,12.06009 22.58594,18.41797 0.73992,0.63809 1.47984,1.27617 2.24219,1.93359 1.92946,1.67763 3.84408,3.37085 5.75781,5.06641 1.05502,0.92776 1.05502,0.92776 2.13135,1.87427 6.38101,5.66691 12.47276,11.57491 18.49243,17.61914 1.56894,1.57433 3.14321,3.14321 4.71802,4.71167 5.42935,5.42545 10.70105,10.92969 15.6582,16.79492 0.87687,1.00975 1.75443,2.01891 2.63281,3.02734 7.47604,8.72986 14.48834,17.7669 21.36719,26.97266 0.52852,0.70222 1.05703,1.40443 1.60156,2.12793 C 928.2257,250.62378 940.71814,271.41831 952,293 c 0.728,1.3743 0.728,1.3743 1.4707,2.77637 25.02138,47.42193 40.6078,99.27076 48.2422,152.24188 0.2677,1.84807 0.5465,3.69453 0.8262,5.54083 5.5566,38.18531 5.2344,81.32215 -0.5391,119.44092 -0.1958,1.35165 -0.3911,2.70338 -0.5859,4.05518 C 993.7593,629.44751 977.58174,678.63249 954,726 c -0.66636,1.34675 -0.66636,1.34675 -1.34619,2.7207 C 941.96033,750.19614 929.32809,770.75628 915,790 c -0.41911,0.56396 -0.83821,1.12793 -1.27002,1.70898 C 910.8804,795.52045 907.96053,799.27409 905,803 c -0.50676,0.63825 -1.01353,1.27649 -1.53564,1.93408 -6.12956,7.69189 -12.34651,15.23967 -19.0503,22.44092 -1.85822,2.0206 -3.64457,4.0659 -5.42578,6.15234 -4.67527,5.3606 -9.72155,10.35558 -14.75806,15.37281 -1.66448,1.65912 -3.32355,3.32353 -4.98217,4.98852 C 853.67178,859.46875 848.03442,864.91189 842,870 c -1.00986,0.87675 -2.01901,1.75431 -3.02734,2.63281 C 830.2435,880.10825 821.21168,887.1301 812,894 c -0.7288,0.54447 -1.45761,1.08894 -2.2085,1.6499 -8.57166,6.37429 -17.2957,12.46257 -26.2915,18.2251 -0.81968,0.53053 -1.63937,1.06106 -2.48389,1.60767 -0.75813,0.47751 -1.51626,0.95503 -2.29736,1.44702 -0.67096,0.42523 -1.34191,0.85046 -2.0332,1.28857 -0.55623,0.25798 -1.11246,0.51595 -1.68555,0.78174 -0.66,-0.33 -1.32,-0.66 -2,-1 0.72196,-0.48859 0.72196,-0.48859 1.4585,-0.98706 C 795.72049,902.60114 816.53816,887.78908 836,871 c 0.73992,-0.63809 1.47984,-1.27617 2.24219,-1.93359 1.92947,-1.67764 3.84577,-3.36895 5.75781,-5.06641 0.7773,-0.68449 1.55461,-1.36898 2.35547,-2.07422 5.42637,-4.82064 10.58084,-9.82318 15.61328,-15.05469 C 864,845 864,845 866,845 c 0.25652,-0.58652 0.51305,-1.17305 0.77734,-1.77734 1.3344,-2.42579 2.76751,-3.89795 4.78516,-5.78516 4.07566,-3.96531 7.6044,-8.22913 11.16016,-12.66016 2.14224,-2.61258 4.36375,-5.10543 6.65234,-7.58984 5.56786,-6.11392 10.58915,-12.63561 15.625,-19.1875 0.97066,-1.25297 0.97066,-1.25297 1.96094,-2.53125 2.74411,-3.49717 2.74411,-3.49717 4.8789,-7.36719 C 913,786 913,786 915.32422,783.71875 c 3.10226,-3.15208 5.21831,-6.4492 7.48828,-10.21875 0.43304,-0.70705 0.86609,-1.4141 1.31226,-2.14258 0.88099,-1.43913 1.75936,-2.87987 2.63501,-4.32226 1.7431,-2.86034 3.52745,-5.69471 5.30273,-8.53516 3.34162,-5.43265 6.47467,-10.96352 9.56909,-16.53882 3.0385,-5.44927 6.28412,-10.73867 9.64185,-15.99634 1.89348,-3.25147 3.30945,-6.48292 4.72656,-9.96484 -0.73605,0.14437 -1.47211,0.28875 -2.23047,0.4375 -0.97582,0.18562 -1.95164,0.37125 -2.95703,0.5625 -0.96293,0.18562 -1.92586,0.37125 -2.91797,0.5625 -2.68795,0.40628 -5.18224,0.51684 -7.89453,0.4375 -1.22255,-3.48096 -0.79306,-5.30546 0.59546,-8.67896 0.37467,-0.92649 0.74934,-1.85299 1.13536,-2.80757 0.41754,-1.00089 0.83508,-2.00178 1.26527,-3.033 0.42637,-1.0496 0.85273,-2.09919 1.29201,-3.18059 1.3726,-3.37521 2.75991,-6.7441 4.1494,-10.11238 8.93602,-21.76138 17.61009,-43.47781 23.1875,-66.375 0.27616,-1.11383 0.27616,-1.11383 0.55789,-2.25015 C 977.82978,598.67342 981.39918,575.41466 984,552 c 0.66,0 1.32,0 2,0 -0.0686,-1.03004 -0.13712,-2.06008 -0.20776,-3.12134 -0.61542,-9.95987 -0.88807,-19.89638 -0.96802,-29.87475 -0.0179,-1.87252 -0.0179,-1.87252 -0.0361,-3.78287 -0.0486,-5.17256 -0.0961,-10.3449 -0.11405,-15.51767 -0.0725,-17.55908 -1.38176,-34.41652 -4.21905,-51.74661 -0.67209,-4.3673 -1.14227,-8.74827 -1.58002,-13.14426 -1.0056,-9.82919 -1.0056,-9.82919 -3.88281,-19.24219 -0.9686,-2.50919 -1.45802,-4.73155 -1.86719,-7.38281 -2.29586,-13.3978 -6.24297,-26.32774 -10.5625,-39.1875 -0.2565,-0.76714 -0.51301,-1.53429 -0.77728,-2.32468 C 953.97608,343.41459 945.30559,320.29602 933,299 c -0.40815,-0.71076 -0.8163,-1.42151 -1.23682,-2.15381 -2.46216,-4.27012 -4.975,-8.50792 -7.50879,-12.73584 -1.28071,-2.15463 -2.53804,-4.32144 -3.78955,-6.49316 -4.52436,-7.83305 -9.22605,-15.40901 -14.46484,-22.78516 -1.65725,-2.34669 -3.21468,-4.71818 -4.75,-7.14453 -4.3966,-6.6563 -9.67364,-12.69263 -14.74023,-18.84131 -1.91261,-2.3388 -3.77382,-4.71617 -5.63477,-7.09619 -3.80259,-4.77534 -7.90643,-9.23246 -12.06641,-13.69531 -2.01592,-2.16602 -3.94994,-4.38645 -5.87109,-6.63672 -4.65673,-5.34335 -9.68862,-10.31867 -14.70728,-15.31812 -1.66448,-1.65912 -3.32355,-3.32353 -4.98217,-4.98852 C 837.67168,175.53116 832.03327,170.08958 826,165 c -1.02166,-0.88838 -2.04253,-1.77765 -3.0625,-2.66797 -16.43779,-14.0989 -34.17817,-26.67033 -52.27344,-38.54687 -2.46725,-1.65328 -4.84041,-3.3931 -7.22656,-5.16016 -10.64066,-7.49799 -22.86721,-12.90764 -34.51807,-18.65161 -3.41392,-1.68994 -6.78861,-3.42956 -10.13037,-5.25855 -8.71088,-4.763949 -17.33472,-8.704155 -26.70703,-11.974606 -2.14448,-0.762436 -4.26964,-1.565496 -6.39453,-2.380859 C 653.1092,67.910669 619.503,59.810026 585.1001,54.499512 c -3.29426,-0.530797 -6.56162,-1.141079 -9.82788,-1.821533 -13.31684,-2.654283 -26.79727,-2.836157 -40.33863,-2.91626 -0.68109,-0.0049 -1.36217,-0.0097 -2.0639,-0.01474 -5.14406,-0.0362 -10.28802,-0.05269 -15.43219,-0.05948 -0.75704,-0.0012 -1.51408,-0.0023 -2.29406,-0.0035 C 490.88569,49.658427 467.01962,50.338716 443,54 c -1.43502,0.211342 -2.87008,0.42244 -4.30518,0.633301 C 409.60259,58.976054 381.04033,65.728198 353.375,75.75 c -0.75763,0.274178 -1.51525,0.548355 -2.29584,0.830841 -7.58589,2.767535 -15.01403,5.630861 -22.11944,9.508514 C 327,87 327,87 323.4375,87.375 318.22169,85.288676 314.05423,81.73552 311,77 c -0.40625,-3.007813 -0.40625,-3.007813 1,-6 3.27624,-2.12093 6.84437,-3.359572 10.5,-4.6875 1.66615,-0.631198 1.66615,-0.631198 3.36597,-1.275146 3.06034,-1.142816 6.12872,-2.257681 9.20672,-3.351929 1.92371,-0.684143 3.84474,-1.37542 5.76569,-2.067261 C 381.63531,45.005917 423.8426,35.872582 467,32 c 0.96961,-0.08733 1.93921,-0.174658 2.9382,-0.264633 8.00583,-0.670214 15.95572,-0.909299 23.98758,-0.938492 z"
     style="fill:#e2e338"
     id="path91" />
  <path
     d="m 303.1272,76.774658 c 14.53392,9.509292 24.42798,34.026532 28.26635,49.975582 1.01898,5.46041 1.09393,10.83329 1.04395,16.37476 -0.007,1.17708 -0.0137,2.35415 -0.0208,3.56689 -0.53331,29.23821 -13.49201,54.61941 -33.22925,75.62061 -16.66936,16.06272 -40.222,25.46519 -63.24805,25.22461 -1.17357,-0.0248 -1.17357,-0.0248 -2.37085,-0.05 -2.39774,-0.0499 -4.79343,-0.0615 -7.19165,-0.0671 -11.98422,-0.0853 -23.22911,-1.05733 -34.43945,-5.60742 -1.15532,-0.46128 -1.15532,-0.46128 -2.33398,-0.93188 C 183.24229,238.25881 177.54735,235.08893 172,231 c -1.16789,-0.83725 -1.16789,-0.83725 -2.35938,-1.69141 C 157.53883,220.15315 146.65649,209.13589 139,196 c 5.16097,-7.55241 11.5011,-13.77145 17.97607,-20.18188 1.89267,-1.87442 3.77721,-3.7567 5.66065,-5.64039 C 168.5881,164.2437 174.5583,158.4065 181,153 c 1.01004,-0.87654 2.0192,-1.7541 3.02734,-2.63281 C 192.7565,142.89175 201.78832,135.8699 211,129 c 0.7288,-0.54447 1.45761,-1.08894 2.2085,-1.6499 21.4686,-15.96505 44.35838,-29.4472 68.0415,-41.8501 0.94005,-0.492422 1.8801,-0.984844 2.84863,-1.492187 C 286.72157,82.64895 289.35664,81.318636 292,80 c 0.83467,-0.429258 1.66934,-0.858516 2.5293,-1.300781 0.78955,-0.38543 1.5791,-0.77086 2.39257,-1.167969 0.69191,-0.344824 1.38381,-0.689648 2.09668,-1.044922 C 301,76 301,76 303.1272,76.774658 Z"
     style="fill:#fde14f"
     id="path93" />
  <path
     d="m 507,319 c 0.99,0.495 0.99,0.495 2,1 -0.0209,0.58789 -0.0419,1.17579 -0.0635,1.78149 -0.59229,19.22137 1.1574,35.55302 13.75098,51.03101 6.27685,6.49939 13.01516,10.42739 22.15234,10.88672 2.36576,0.0249 4.73199,0.0206 7.09766,-0.0117 2.3841,-0.009 4.76829,-0.006 7.15234,0.0117 1.56029,-0.018 1.56029,-0.018 3.1521,-0.0364 3.16432,0.38682 4.33739,1.35263 6.75806,3.33716 5.5707,0.67743 9.32135,-0.7117 14.0625,-3.4375 0.64848,-0.35618 1.29696,-0.71237 1.96509,-1.07935 3.86809,-2.16104 7.55192,-4.51349 11.20776,-7.01294 C 606.21398,368.68326 617.68383,363.72591 630,365 c 0.66,0.33 1.32,0.66 2,1 1.20468,22.31999 -9.37075,40.39834 -22,58 -0.42604,0.59506 -0.85207,1.19013 -1.29102,1.80322 C 603.74561,432.6627 598.64146,438.68683 592,444 c -5.14295,4.3327 -9.51292,8.2329 -13,14 -0.48727,0.45375 -0.97453,0.9075 -1.47656,1.375 -6.08823,6.49411 -6.71493,18.01841 -8.15576,26.50488 -0.61901,3.56937 -1.311,7.12479 -1.99268,10.68262 -1.8203,9.56149 -2.61766,18.74166 -2.67017,28.46045 -0.0115,1.47764 -0.0319,2.95523 -0.0615,4.43262 -0.21012,10.52489 0.13261,20.55735 6.98169,29.16943 3.52611,3.52611 5.49668,3.50839 10.375,3.75 12.68954,0.93531 22.89884,5.01513 31.8125,14.3125 8.71902,10.45046 10.41184,19.89958 9.41797,33.19531 C 622.22772,619.09451 616.9006,626.02711 610,632 c -0.99,0 -1.98,0 -3,0 0,0.66 0,1.32 0,2 -10.98041,4.58028 -22.03986,6.33118 -33.375,1.875 -9.2813,-4.44703 -16.0567,-8.9262 -20.8125,-18.1875 C 550.74676,610.85466 549.48969,604.14427 550,597 c 2,-2 2,-2 5,-2 0.15855,1.12277 0.31711,2.24555 0.48047,3.40234 1.6617,10.97384 3.45683,20.12569 12.625,27.31641 8.47884,5.73414 16.71139,7.21406 26.89453,6.28125 6.36255,-1.77919 12.69845,-5.23786 16.21875,-10.99219 4.41961,-8.61823 5.15355,-17.67954 3.09766,-27.16015 C 610.9382,583.85322 605.38511,576.93145 596,572 c -2.97769,-0.91113 -5.66716,-1.12233 -8.77344,-1.14063 -0.9075,-0.0193 -1.815,-0.0387 -2.75,-0.0586 -1.89301,-0.0337 -3.78637,-0.0521 -5.67969,-0.0547 -7.76325,-0.20892 -7.76325,-0.20892 -11.28906,-2.96875 -2.37641,-2.63182 -3.86151,-4.72754 -5.25781,-7.96484 -0.58008,-1.28971 -0.58008,-1.28971 -1.17188,-2.60547 -3.0293,-9.01109 -3.39443,-17.81444 -3.33886,-27.23657 0.0106,-2.13693 9e-5,-4.27301 -0.0127,-6.40991 -0.0132,-12.61277 1.33002,-24.58129 4.625,-36.79883 0.61689,-2.62733 0.90646,-5.07378 1.08594,-7.76172 1.05006,-12.60077 6.88349,-24.12038 16.14453,-32.625 1.5383,-1.34 1.5383,-1.34 2.41797,-3.375 0.66,0 1.32,0 2,0 0.25266,-0.58137 0.50531,-1.16273 0.76562,-1.76172 1.37816,-2.499 2.92022,-4.08663 4.98438,-6.05078 2.70753,-2.62384 5.22824,-5.27715 7.625,-8.1875 0.86625,-0.99 1.7325,-1.98 2.625,-3 0.66,0 1.32,0 2,0 0.0941,-0.70641 0.1882,-1.41281 0.28516,-2.14063 0.8476,-3.39042 2.26058,-5.67086 4.15234,-8.60937 0.72118,-1.14642 1.44117,-2.2936 2.16016,-3.44141 0.38559,-0.61117 0.77118,-1.22235 1.16845,-1.85205 C 618.77512,394.43041 618.77512,394.43041 623,379 c 0.99,-0.33 1.98,-0.66 3,-1 -0.33,-1.65 -0.66,-3.3 -1,-5 -1.51594,0.495 -1.51594,0.495 -3.0625,1 -3.6923,1.07001 -7.08998,1.15704 -10.9375,1 0,0.66 0,1.32 0,2 -0.58008,0.31453 -1.16016,0.62906 -1.75781,0.95312 -3.48661,1.91016 -6.891,3.80777 -10.17969,6.04688 -3.4314,2.24092 -6.98075,3.97295 -10.66016,5.76562 -2.05905,1.05799 -3.93633,2.17424 -5.83984,3.48438 -4.6493,3.17513 -9.09608,3.41286 -14.5625,2.75 -1.43769,-0.62002 -2.85414,-1.29079 -4.25,-2 -5.4301,-2.46745 -10.42042,-2.11876 -16.25,-1.9375 -8.01231,0.18207 -13.98209,0.10767 -20.5,-5.0625 -0.9191,-0.72832 -1.8382,-1.45664 -2.78516,-2.20703 C 513.40505,375.55445 503.93175,362.23172 501,348 c -0.21281,-3.03939 -0.18509,-6.07884 -0.1875,-9.125 -0.0122,-0.82371 -0.0245,-1.64742 -0.0371,-2.49609 -0.005,-2.12762 0.10199,-4.25483 0.22461,-6.37891 0.66,-0.66 1.32,-1.32 2,-2 0,-0.99 0,-1.98 0,-3 -6.01664,4.44287 -11.06654,8.84526 -15.47266,14.91016 -1.34058,1.8343 -2.74784,3.4776 -4.27734,5.15234 -5.69524,7.43545 -5.69201,14.72039 -5.5625,23.75 -0.005,1.66772 -0.005,1.66772 -0.01,3.36914 0.0404,6.2814 0.63051,12.10388 1.87915,18.25317 0.679,3.93067 0.66085,7.77608 0.56812,11.75269 -0.009,0.76119 -0.0181,1.52238 -0.0273,2.30664 -0.0231,1.83543 -0.0589,3.67069 -0.0977,5.50586 -1.32,0 -2.64,0 -4,0 -0.0748,0.62906 -0.14953,1.25812 -0.22656,1.90625 -1.45883,9.49665 -6.15499,15.39364 -13.47266,21.42969 -9.72005,7.03028 -19.6825,9.0948 -31.30056,10.66406 0,0.66 0,1.32 0,2 0.74766,0.098 1.49531,0.19594 2.26562,0.29687 8.03454,1.21991 8.03454,1.21991 11.35938,3.51563 1.52462,2.42553 2.05999,4.35243 2.375,7.1875 1.65,0.33 3.3,0.66 5,1 0.22692,3.3282 0.32162,5.41801 -1.3125,8.375 C 449,468 449,468 446,468 c -0.10828,0.59168 -0.21656,1.18336 -0.32813,1.79297 -0.75343,2.47495 -1.67565,3.63379 -3.42187,5.51953 -2.15335,2.3784 -3.96625,4.73269 -5.6875,7.4375 -2.58272,3.75591 -5.2951,4.82753 -9.5625,6.25 4.8771,2.73118 9.46641,4.49088 14.875,5.9375 13.16061,3.6339 24.38501,10.0292 31.96875,21.69141 4.98838,10.22954 4.62732,23.53684 1.53125,34.30859 -2.46408,6.93626 -5.83172,13.51215 -10.12109,19.5 -1.67497,3.42299 -1.47183,4.96916 -0.25391,8.5625 2.39249,2.77217 2.39249,2.77217 5.375,5.3125 6.57012,6.17871 8.60364,11.09042 9.0625,20 -0.13837,4.34978 -1.03122,7.94082 -2.46484,12.04297 -0.36731,1.06243 -0.73461,2.12486 -1.11304,3.21948 -0.28368,0.80027 -0.56735,1.60053 -0.85962,2.42505 4.25026,-0.13891 8.50013,-0.28732 12.75,-0.4375 1.20656,-0.0393 2.41312,-0.0786 3.65625,-0.11914 1.16016,-0.0419 2.32031,-0.0838 3.51562,-0.12695 1.06832,-0.0367 2.13663,-0.0733 3.23731,-0.11109 2.43319,-0.17586 4.50359,-0.55725 6.84082,-1.20532 1.41535,-0.0646 2.83338,-0.0861 4.25,-0.0625 1.85625,0.0309 1.85625,0.0309 3.75,0.0625 0,1.32 0,2.64 0,4 4.29,0 8.58,0 13,0 0,-1.32 0,-2.64 0,-4 7.26,0 14.52,0 22,0 -0.66,0.99 -1.32,1.98 -2,3 -0.99,0 -1.98,0 -3,0 0,0.66 0,1.32 0,2 1.65,0.33 3.3,0.66 5,1 0,0.33 0,0.66 0,1 -8.07643,0.77261 -16.08424,1.16501 -24.19531,1.24609 -2.28516,0.0329 -4.57032,0.0661 -6.85547,0.0996 -3.54571,0.0474 -7.0914,0.092 -10.63721,0.13111 -3.46094,0.0399 -6.92156,0.0914 -10.38232,0.14428 -1.04818,0.008 -2.09636,0.0168 -3.1763,0.0255 -9.05957,0.15053 -17.24087,1.57637 -25.75339,4.72841 -1.20141,0.43441 -2.40281,0.86883 -3.64063,1.31641 -3.24906,1.21193 -3.24906,1.21193 -5.84375,2.52343 -9.47762,4.59175 -21.80632,4.44672 -31.70312,1.09766 -1.6279,-0.71936 -3.2362,-1.48617 -4.8125,-2.3125 -0.66258,-0.33902 -1.32516,-0.67805 -2.00781,-1.02734 -7.22391,-4.39377 -10.71235,-12.14081 -12.86719,-20.03516 -2.27564,-10.69686 -1.36757,-19.91309 4.41797,-29.49219 5.12868,-6.97125 10.46324,-12.16401 19.14453,-13.82031 10.29243,-1.25897 19.53226,-1.33399 29.3125,2.375 0,-1.32 0,-2.64 0,-4 1.38818,-1.50806 1.38818,-1.50806 3,-3 1.00786,-1.84021 1.00786,-1.84021 1.78906,-3.87109 0.30164,-0.73928 0.60328,-1.47856 0.91406,-2.24024 0.30422,-0.76763 0.60844,-1.53527 0.92188,-2.32617 0.31195,-0.76377 0.62391,-1.52754 0.94531,-2.31445 4.23008,-10.47493 5.40573,-22.46395 2.59375,-33.54102 C 463.57573,510.61148 451.63608,505.79974 440,501 c -2.01323,-0.72967 -4.033,-1.44189 -6.0625,-2.125 -9.89368,-3.47173 -19.62232,-12.06272 -24.21875,-21.50781 C 408.84772,474.49845 408.86136,471.98071 409,469 c -1.65,0 -3.3,0 -5,0 -2.40373,-5.389 -2.93242,-10.16641 -2,-16 1.59727,-3.36587 3.58152,-6.1755 6,-9 0.43699,-0.53625 0.87398,-1.0725 1.32422,-1.625 4.44188,-3.64462 10.29466,-3.7929 15.80078,-4.3125 14.91616,-1.62331 29.32461,-4.60233 39.19141,-16.82813 0.55558,-0.73734 1.11117,-1.47468 1.68359,-2.23437 0.50402,-0.63422 1.00805,-1.26844 1.52734,-1.92188 6.0207,-7.88798 6.00832,-15.50969 5.47266,-25.07812 -0.61865,-4.48088 -1.57044,-8.71131 -3,-13 -1.68268,-20.90608 3.2206,-34.4387 16.65234,-50.54297 C 492.60265,322.2295 498.38994,318.6925 507,319 Z"
     style="fill:#5b595d"
     id="path95" />
  <path
     d="m 135,204 c 4.0799,2.86696 6.25068,5.30445 8,10 0.46801,4.25193 0.46996,6.30212 -1.94922,9.89453 -0.89866,0.9857 -1.81255,1.95765 -2.73828,2.91797 -16.17604,17.94862 -28.60353,39.07322 -40.87891,59.7793 -2.01168,3.37929 -4.04978,6.74255 -6.08911,10.10522 C 89.385609,300.0524 87.685142,303.50009 86,307 c -0.66,0 -1.32,0 -2,0 -0.564609,1.81371 -0.564609,1.81371 -1.140625,3.66406 -2.136379,6.40664 -4.901305,12.53006 -7.609375,18.71094 -5.76956,13.31474 -11.170102,26.61909 -15.34375,40.53125 -0.358682,1.19416 -0.717363,2.38831 -1.086914,3.61865 -0.702827,2.36619 -1.392692,4.73627 -2.068359,7.11035 -0.472281,1.60755 -0.472281,1.60755 -0.954102,3.24756 -0.412339,1.44464 -0.412339,1.44464 -0.833008,2.91846 C 54.486753,387.88964 54.486753,387.88964 54,389 c -0.99,0.33 -1.98,0.66 -3,1 0.03771,1.30058 0.07541,2.60117 0.114258,3.94116 -0.0045,4.87753 -0.813519,9.27289 -1.942383,14.00025 -0.392207,1.73887 -0.784123,3.4778 -1.175781,5.21679 -0.610863,2.66059 -1.226332,5.31996 -1.849121,7.97779 -6.527069,28.04073 -8.794847,55.50138 -8.47992,84.18731 0.0276,2.93781 0.03588,5.87553 0.04357,8.81344 0.01007,3.58988 0.02973,7.17968 0.0511,10.76951 0.0074,1.28258 0.01477,2.56515 0.02238,3.8866 0.08241,7.94147 0.446353,15.82347 0.995987,23.7434 0.26477,4.17033 0.319713,8.28581 0.28241,12.46375 -0.0045,0.69094 -0.009,1.38188 -0.01367,2.09375 C 39.03747,568.72921 39.01957,570.36462 39,572 c 0.99,0.33 1.98,0.66 3,1 0.120044,0.77263 0.240088,1.54526 0.36377,2.34131 6.799227,43.32189 17.815794,85.67365 35.913574,125.75244 0.337331,0.74838 0.674663,1.49676 1.022217,2.26782 0.864217,1.8876 1.757339,3.76191 2.653564,5.63452 1.125333,3.22904 1.080107,4.79008 0.04687,8.00391 -4.677336,1.20705 -9.212512,1.07656 -14,1 4.090617,8.49831 8.60744,16.62713 13.5,24.6875 0.638086,1.06283 1.276172,2.12566 1.933594,3.2207 C 87.137967,752.04807 90.96587,758.07232 95,764 c 0.48146,0.71599 0.96293,1.43199 1.45898,2.16968 10.64056,15.815 21.50212,31.49536 34.01368,45.90063 2.49064,2.88714 4.88916,5.83256 7.27734,8.80469 3.01579,3.70803 6.13825,7.13564 9.57422,10.45312 1.80178,1.79759 3.45555,3.67848 5.11328,5.60938 5.37575,6.21571 11.20129,11.79935 17.42969,17.14844 2.47213,2.21858 4.79843,4.55113 7.13281,6.91406 4.17892,4.21691 8.48379,8.152 13,12 1.01648,0.89096 2.03202,1.78297 3.04687,2.67578 C 201.7016,883.25008 210.6901,890.25087 220,897 c 0.68997,0.50032 1.37994,1.00063 2.09082,1.51611 C 237.86609,909.90285 254.15157,920.27894 271,930 c -0.66,0.33 -1.32,0.66 -2,1 -2.608,-1.22416 -5.06262,-2.51587 -7.5625,-3.9375 -0.78359,-0.44167 -1.56718,-0.88333 -2.37451,-1.33838 -16.44365,-9.41134 -32.41235,-19.69863 -47.33692,-31.37891 -1.69755,-1.32298 -3.4096,-2.62422 -5.12841,-3.91943 C 198.82615,884.55339 191.37361,878.36097 184,872 c -1.10988,-0.95713 -1.10988,-0.95713 -2.24219,-1.93359 C 179.82835,868.38878 177.91373,866.69556 176,865 c -0.70334,-0.61851 -1.40669,-1.23702 -2.13135,-1.87427 -6.38101,-5.66691 -12.47276,-11.57491 -18.49243,-17.61914 -1.56894,-1.57433 -3.14321,-3.14321 -4.71802,-4.71167 C 145.22885,835.36947 139.95715,829.86523 135,824 c -0.87687,-1.00975 -1.75443,-2.01891 -2.63281,-3.02734 C 124.89115,812.2428 117.87885,803.20576 111,794 c -0.52852,-0.70222 -1.05703,-1.40443 -1.60156,-2.12793 C 94.7743,772.37622 82.281859,751.58169 71,730 70.514668,729.0838 70.029336,728.1676 69.529297,727.22363 44.507922,679.8017 28.921462,627.95287 21.287109,574.98175 21.019367,573.13368 20.740581,571.28722 20.460937,569.44092 14.904306,531.25561 15.226489,488.11877 21,450 c 0.195823,-1.35165 0.391113,-2.70338 0.585937,-4.05518 C 29.240732,393.55249 45.418261,344.36751 69,297 c 0.444243,-0.89783 0.888486,-1.79566 1.346191,-2.7207 14.015295,-28.14655 32.298839,-63.14156 56.716309,-83.9668 0.65098,-0.56074 1.30195,-1.12148 1.97266,-1.69922 1.94721,-1.5988 3.93707,-3.11842 5.96484,-4.61328 z"
     style="fill:#e1e238"
     id="path97" />
  <path
     d="m 184,245 c 0.64066,0.20496 1.28133,0.40992 1.94141,0.62109 5.03147,1.56718 9.81847,2.80933 15.05859,3.37891 0.53243,5.84724 -1.35947,10.24982 -3.5,15.5625 -0.73584,1.87884 -1.47151,3.75775 -2.20703,5.63672 -0.37979,0.95954 -0.75958,1.91909 -1.15088,2.90771 -1.80712,4.57767 -3.57254,9.17099 -5.32959,13.76807 -0.33709,0.88051 -0.67418,1.76102 -1.02148,2.66821 -1.88268,4.95316 -3.65002,9.91853 -5.29102,14.95679 -3.71756,11.40133 -8.06709,22.59818 -12.61719,33.69141 -3.09518,7.55358 -6.06446,14.98405 -8.19531,22.87109 -2.34176,8.5776 -5.74946,16.64644 -9.17139,24.84155 -4.50128,10.85918 -8.51686,21.86833 -12.45581,32.94165 -2.21051,6.19514 -4.42656,12.33397 -7.25879,18.28052 -1.36678,3.19528 -2.06212,6.48493 -2.80151,9.87378 -0.66,0 -1.32,0 -2,0 -0.24879,1.24523 -0.49758,2.49047 -0.75391,3.77344 -1.28519,5.77601 -3.20712,11.28119 -5.18359,16.85156 -0.5211,1.4966 -0.5211,1.4966 -1.05273,3.02344 -1.41888,4.04018 -2.86143,8.01196 -4.57618,11.9375 -1.4956,3.56174 -2.56577,7.11752 -3.64306,10.82129 -1.29072,4.23328 -2.88042,8.34247 -4.47803,12.46777 -0.35248,0.91797 -0.70496,1.83595 -1.06812,2.78174 -2.22003,5.75952 -4.49792,11.49394 -6.80688,17.21826 -10.12544,25.16512 -19.716884,50.52937 -28.781738,76.09497 -0.543968,1.5335 -1.088072,3.06695 -1.632325,4.60034 -0.257178,0.72461 -0.514356,1.44922 -0.779327,2.19579 C 66.942094,615.2218 64.504503,621.61992 62,628 c -0.66,0 -1.32,0 -2,0 0.69549,-34.20545 12.6027,-68.01454 23.887222,-99.9704 3.139098,-8.90571 6.204268,-17.84247 8.862778,-26.9046 2.32781,-7.68653 5.14267,-15.19589 7.89038,-22.74023 2.19245,-6.04977 4.29724,-12.10402 6.17212,-18.25977 2.79006,-9.16053 6.01701,-17.97825 9.94141,-26.71484 1.05894,-2.89799 1.79505,-5.61809 2.49218,-8.61329 2.12112,-8.74497 5.24182,-17.14102 8.25391,-25.60937 0.63263,-1.7915 1.26479,-3.58317 1.89648,-5.375 1.8609,-5.27331 3.73149,-10.54314 5.60352,-15.8125 0.50141,-1.41321 1.00271,-2.82646 1.50391,-4.23975 1.76701,-4.98215 3.53437,-9.96417 5.30835,-14.94384 2.57194,-7.22714 5.11387,-14.46388 7.62915,-21.71094 5.50106,-15.83794 11.01856,-31.63703 17.1416,-47.2478 3.11642,-7.96976 5.94525,-16.01867 8.71557,-24.11426 C 181.61197,247.38803 181.61197,247.38803 184,245 Z"
     style="fill:#fde34c"
     id="path99" />
  <path
     d="m 336,120 c 13.2,0 26.4,0 40,0 0,0.66 0,1.32 0,2 0.83024,-0.005 1.66047,-0.0105 2.51587,-0.0159 3.15918,-0.0173 6.31833,-0.0297 9.47754,-0.0391 2.00807,-0.007 4.01612,-0.0201 6.02417,-0.033 7.80437,-0.0193 15.52646,0.26519 23.31274,0.84058 6.03052,0.40642 12.06585,0.5317 18.10718,0.68481 13.33108,0.36533 26.63976,0.99285 39.95667,1.69949 10.59094,0.55869 21.16253,0.98167 31.7666,1.19568 23.9502,0.5002 47.83481,2.31705 71.72728,3.97063 8.11122,0.56136 16.22342,1.1066 24.33618,1.64523 4.58541,0.30513 9.17056,0.61422 13.75572,0.92314 2.47854,0.16655 4.95716,0.33197 7.43585,0.49616 12.05957,0.80142 24.06311,1.68826 36.05539,3.20346 4.77218,0.57977 9.54691,0.91149 14.34131,1.24121 15.11196,1.14717 30.08611,3.41053 45.07617,5.5918 3.89202,0.56618 7.78679,1.11188 11.68164,1.6582 4.92087,0.70349 9.80141,1.4826 14.67969,2.4375 1.24266,0.23719 2.48531,0.47437 3.76562,0.71875 C 753,149 753,149 755,151 c -7.20011,0.0257 -14.4002,0.043 -21.60034,0.0549 -2.44076,0.005 -4.88152,0.0118 -7.32227,0.0205 -12.93898,0.0452 -25.81515,-0.0287 -38.73144,-0.82373 -4.39227,-0.26846 -8.78323,-0.41694 -13.18189,-0.53296 -0.71002,-0.019 -1.42005,-0.038 -2.15159,-0.0576 -2.84962,-0.0743 -5.69933,-0.14449 -8.54909,-0.21337 -6.94961,-0.17103 -13.87771,-0.35565 -20.80713,-0.95166 -9.37427,-0.78227 -18.78067,-0.81898 -28.18213,-0.9729 -9.88098,-0.16786 -19.74867,-0.46795 -29.61841,-0.96899 -19.9893,-1.01153 -39.95588,-1.7739 -59.96899,-2.1167 -1.10996,-0.0191 -2.21992,-0.0383 -3.36352,-0.058 -9.09839,-0.1546 -18.19699,-0.29453 -27.29566,-0.4316 -48.29611,-0.7298 -48.29611,-0.7298 -67.36961,-2.20591 -16.17542,-1.21892 -32.39958,-1.43703 -48.61214,-1.80642 -4.44663,-0.10273 -8.89307,-0.21287 -13.33954,-0.32227 C 356.27099,139.40186 347.63557,139.19823 339,139 c -2.02759,-6.08276 -2.20471,-12.63772 -3,-19 z"
     style="fill:#fce348"
     id="path101" />
  <path
     d="m 336,173 c 6.98103,3.42287 13.82108,7.05167 20.625,10.8125 6.83792,3.75563 13.69465,7.39963 20.70044,10.83179 10.57237,5.22781 20.91378,10.92215 31.30972,16.48993 5.10717,2.73316 10.23205,5.43113 15.36484,8.11578 18.05145,9.46338 35.87711,19.34852 53.54297,29.51172 11.20144,6.43978 22.39653,12.84636 33.86743,18.79932 10.13016,5.25791 20.06377,10.86658 29.98804,16.50146 1.90876,1.08349 3.81762,2.16682 5.72656,3.25 1.4456,0.82033 1.4456,0.82033 2.92041,1.65723 7.98186,4.51395 16.03817,8.88056 24.11328,13.22485 7.37347,3.97904 14.65426,8.1 21.9104,12.28833 6.56027,3.77186 13.19914,7.37969 19.86841,10.95459 18.03049,9.69415 35.48945,20.31688 52.83936,31.17334 1.97822,1.23612 3.96096,2.46448 5.9458,3.68994 0.99902,0.62262 1.99804,1.24524 3.02734,1.88672 0.81984,0.50918 1.63969,1.01836 2.48437,1.54297 C 682,365 682,365 683,367 c -5.94678,-1.87574 -11.64037,-4.03976 -17.3125,-6.625 -0.76852,-0.34627 -1.53705,-0.69255 -2.32886,-1.04932 -1.62811,-0.73385 -3.25546,-1.4694 -4.88208,-2.20654 -2.44674,-1.10567 -4.89825,-2.2 -7.35156,-3.29102 -9.75599,-4.3476 -19.43696,-8.83092 -29.05981,-13.4663 C 617.41832,338.12742 612.75691,335.99007 608,334 c 0,-0.66 0,-1.32 0,-2 -1.68029,-0.35578 -1.68029,-0.35578 -3.39453,-0.71875 -5.09777,-1.2842 -9.5949,-3.45953 -14.29297,-5.78125 -0.96551,-0.46922 -1.93102,-0.93844 -2.92578,-1.42188 -2.81636,-1.37012 -5.62922,-2.74718 -8.44135,-4.12597 -3.62045,-1.772 -7.24606,-3.53341 -10.87115,-5.2959 -4.80817,-2.33781 -9.61607,-4.67612 -14.42163,-7.01929 C 544.87297,303.35758 536.07642,299.11964 527.25,294.9375 518.01976,290.55836 508.97508,285.87907 500,281 c 0,-0.66 0,-1.32 0,-2 -0.87036,-0.11102 -1.74072,-0.22204 -2.63745,-0.33643 -5.67673,-1.12026 -10.54046,-3.94547 -15.67505,-6.53857 -1.10924,-0.5427 -2.21848,-1.08539 -3.36133,-1.64453 -1.05252,-0.52723 -2.10504,-1.05445 -3.18945,-1.59766 -0.96204,-0.48066 -1.92409,-0.96132 -2.91528,-1.45654 C 470,266 470,266 469,263 c -0.73178,-0.12439 -1.46357,-0.24879 -2.21753,-0.37695 -4.50753,-1.00932 -8.45064,-3.12462 -12.59497,-5.12305 -1.26747,-0.59555 -1.26747,-0.59555 -2.56055,-1.20313 -5.46418,-2.61313 -10.74886,-5.46438 -16.00586,-8.46484 -8.83554,-5.03514 -17.87759,-9.63589 -26.94918,-14.22815 -13.29818,-6.73433 -26.56667,-13.48955 -39.59452,-20.7362 -6.71526,-3.72224 -13.55341,-7.16452 -20.47558,-10.48584 -11.32866,-5.5157 -11.32866,-5.5157 -15.03931,-10.19434 C 331.76063,185.18023 333.52382,179.54053 336,173 Z"
     style="fill:#fde350"
     id="path103" />
  <path
     d="m 507,319 c 0.99,0.495 0.99,0.495 2,1 -0.0209,0.58789 -0.0419,1.17579 -0.0635,1.78149 -0.59229,19.22137 1.1574,35.55302 13.75098,51.03101 6.27685,6.49939 13.01516,10.42739 22.15234,10.88672 2.36576,0.0249 4.73199,0.0206 7.09766,-0.0117 2.3841,-0.009 4.76829,-0.006 7.15234,0.0117 1.56029,-0.018 1.56029,-0.018 3.1521,-0.0364 3.16432,0.38682 4.33739,1.35263 6.75806,3.33716 5.5707,0.67743 9.32135,-0.7117 14.0625,-3.4375 0.64848,-0.35618 1.29696,-0.71237 1.96509,-1.07935 3.86809,-2.16104 7.55192,-4.51349 11.20776,-7.01294 C 606.21398,368.68326 617.68383,363.72591 630,365 c 0.66,0.33 1.32,0.66 2,1 1.20468,22.31999 -9.37075,40.39834 -22,58 -0.42604,0.59506 -0.85207,1.19013 -1.29102,1.80322 C 603.74561,432.6627 598.64146,438.68683 592,444 c -5.14295,4.3327 -9.51292,8.2329 -13,14 -0.48727,0.45375 -0.97453,0.9075 -1.47656,1.375 -6.08823,6.49411 -6.71493,18.01841 -8.15576,26.50488 -0.61901,3.56937 -1.311,7.12479 -1.99268,10.68262 -1.8203,9.56149 -2.61766,18.74166 -2.67017,28.46045 -0.0115,1.47764 -0.0319,2.95523 -0.0615,4.43262 -0.21012,10.52489 0.13261,20.55735 6.98169,29.16943 3.52611,3.52611 5.49668,3.50839 10.375,3.75 12.68954,0.93531 22.89884,5.01513 31.8125,14.3125 8.71902,10.45046 10.41184,19.89958 9.41797,33.19531 C 622.22772,619.09451 616.9006,626.02711 610,632 c -0.99,0 -1.98,0 -3,0 0,0.66 0,1.32 0,2 -10.98041,4.58028 -22.03986,6.33118 -33.375,1.875 -9.2813,-4.44703 -16.0567,-8.9262 -20.8125,-18.1875 C 550.74676,610.85466 549.48969,604.14427 550,597 c 2,-2 2,-2 5,-2 0.15855,1.12277 0.31711,2.24555 0.48047,3.40234 1.6617,10.97384 3.45683,20.12569 12.625,27.31641 8.47884,5.73414 16.71139,7.21406 26.89453,6.28125 6.36255,-1.77919 12.69845,-5.23786 16.21875,-10.99219 4.41961,-8.61823 5.15355,-17.67954 3.09766,-27.16015 C 610.9382,583.85322 605.38511,576.93145 596,572 c -2.97769,-0.91113 -5.66716,-1.12233 -8.77344,-1.14063 -0.9075,-0.0193 -1.815,-0.0387 -2.75,-0.0586 -1.89301,-0.0337 -3.78637,-0.0521 -5.67969,-0.0547 -7.76325,-0.20892 -7.76325,-0.20892 -11.28906,-2.96875 -2.37641,-2.63182 -3.86151,-4.72754 -5.25781,-7.96484 -0.58008,-1.28971 -0.58008,-1.28971 -1.17188,-2.60547 -3.0293,-9.01109 -3.39443,-17.81444 -3.33886,-27.23657 0.0106,-2.13693 9e-5,-4.27301 -0.0127,-6.40991 -0.0132,-12.61277 1.33002,-24.58129 4.625,-36.79883 0.61689,-2.62733 0.90646,-5.07378 1.08594,-7.76172 1.05006,-12.60077 6.88349,-24.12038 16.14453,-32.625 1.5383,-1.34 1.5383,-1.34 2.41797,-3.375 0.66,0 1.32,0 2,0 0.25266,-0.58137 0.50531,-1.16273 0.76562,-1.76172 1.37816,-2.499 2.92022,-4.08663 4.98438,-6.05078 2.70753,-2.62384 5.22824,-5.27715 7.625,-8.1875 0.86625,-0.99 1.7325,-1.98 2.625,-3 0.66,0 1.32,0 2,0 0.0941,-0.70641 0.1882,-1.41281 0.28516,-2.14063 0.8476,-3.39042 2.26058,-5.67086 4.15234,-8.60937 0.72118,-1.14642 1.44117,-2.2936 2.16016,-3.44141 0.38559,-0.61117 0.77118,-1.22235 1.16845,-1.85205 C 618.77512,394.43041 618.77512,394.43041 623,379 c 0.99,-0.33 1.98,-0.66 3,-1 -0.33,-1.65 -0.66,-3.3 -1,-5 -1.51594,0.495 -1.51594,0.495 -3.0625,1 -3.6923,1.07001 -7.08998,1.15704 -10.9375,1 0,0.66 0,1.32 0,2 -0.58008,0.31453 -1.16016,0.62906 -1.75781,0.95312 -3.48661,1.91016 -6.891,3.80777 -10.17969,6.04688 -3.4314,2.24092 -6.98075,3.97295 -10.66016,5.76562 -2.05905,1.05799 -3.93633,2.17424 -5.83984,3.48438 -4.6493,3.17513 -9.09608,3.41286 -14.5625,2.75 -1.43769,-0.62002 -2.85414,-1.29079 -4.25,-2 -5.4301,-2.46745 -10.42042,-2.11876 -16.25,-1.9375 -8.01231,0.18207 -13.98209,0.10767 -20.5,-5.0625 -0.9191,-0.72832 -1.8382,-1.45664 -2.78516,-2.20703 C 513.40505,375.55445 503.93175,362.23172 501,348 c -0.21281,-3.03939 -0.18509,-6.07884 -0.1875,-9.125 -0.0122,-0.82371 -0.0245,-1.64742 -0.0371,-2.49609 -0.005,-2.12762 0.10199,-4.25483 0.22461,-6.37891 0.66,-0.66 1.32,-1.32 2,-2 0,-0.99 0,-1.98 0,-3 -6.01664,4.44287 -11.06654,8.84526 -15.47266,14.91016 -1.34058,1.8343 -2.74784,3.4776 -4.27734,5.15234 -5.69524,7.43545 -5.69201,14.72039 -5.5625,23.75 -0.003,1.11182 -0.006,2.22363 -0.01,3.36914 0.0404,6.2814 0.63051,12.10388 1.87915,18.25317 0.679,3.93067 0.66085,7.77608 0.56812,11.75269 -0.009,0.76119 -0.0181,1.52238 -0.0273,2.30664 -0.0231,1.83543 -0.0589,3.67069 -0.0977,5.50586 -1.32,0 -2.64,0 -4,0 -0.0748,0.62906 -0.14953,1.25812 -0.22656,1.90625 -1.45883,9.49665 -6.15499,15.39364 -13.47266,21.42969 -9.72005,7.03028 -19.6825,9.0948 -31.30056,10.66406 0,0.66 0,1.32 0,2 0.74766,0.098 1.49531,0.19594 2.26562,0.29687 8.03454,1.21991 8.03454,1.21991 11.35938,3.51563 1.52462,2.42553 2.05999,4.35243 2.375,7.1875 1.65,0.33 3.3,0.66 5,1 0.22692,3.3282 0.32162,5.41801 -1.3125,8.375 C 449,468 449,468 446,468 c -0.10828,0.59168 -0.21656,1.18336 -0.32813,1.79297 -0.75343,2.47495 -1.67565,3.63379 -3.42187,5.51953 -2.1653,2.40359 -4.07293,4.81369 -5.875,7.5 -3.17951,4.26724 -4.54256,4.91091 -9.6875,5.6875 -4.95565,-0.67195 -7.27293,-3.01278 -10.6875,-6.5 0.495,-1.98 0.495,-1.98 1,-4 0.59168,-0.049 1.18336,-0.098 1.79297,-0.14844 1.18529,-0.11215 1.18529,-0.11215 2.39453,-0.22656 1.16596,-0.10441 1.16596,-0.10441 2.35547,-0.21094 5.34015,-0.89993 8.15179,-2.73728 11.64453,-6.85156 0.67418,-0.78246 1.34836,-1.56492 2.04297,-2.37109 3.09209,-3.82928 4.29764,-6.22946 4.14062,-11.25391 -0.26139,-2.19944 -0.26139,-2.19944 -2.37109,-4.375 -3.81418,-1.98655 -6.72298,-2.27253 -11,-2.5625 -1.32,1.98 -2.64,3.96 -4,6 -1.98,-0.33 -3.96,-0.66 -6,-1 -0.34616,-5.65395 0.56575,-9.03007 3,-14 -1.32,-0.66 -2.64,-1.32 -4,-2 1.63195,-0.16436 1.63195,-0.16436 3.29687,-0.33203 23.21056,-2.43343 23.21056,-2.43343 42.14063,-15.10547 1.21181,-1.50154 2.40134,-3.02147 3.5625,-4.5625 0.50402,-0.63422 1.00805,-1.26844 1.52734,-1.92188 6.0207,-7.88798 6.00832,-15.50969 5.47266,-25.07812 -0.61865,-4.48088 -1.57044,-8.71131 -3,-13 -1.68268,-20.90608 3.2206,-34.4387 16.65234,-50.54297 C 492.60265,322.2295 498.38994,318.6925 507,319 Z"
     style="fill:#686567"
     id="path105" />
  <path
     d="m 235,254 c 5.28,0.33 10.56,0.66 16,1 0,11.88 0,23.76 0,36 -0.66,0 -1.32,0 -2,0 0.008,1.41757 0.008,1.41757 0.0159,2.86377 0.16011,31.72092 0.16011,31.72092 -0.45337,44.76123 -0.0392,0.83676 -0.0785,1.67353 -0.1189,2.53564 -0.19784,3.69943 -0.48827,7.36443 -0.93432,11.04235 -0.52656,4.66746 -0.78572,9.31834 -0.97412,14.01014 -0.0376,0.87295 -0.0751,1.74589 -0.1138,2.64528 -0.12243,2.86089 -0.24061,5.72194 -0.35886,8.583 -0.0855,2.01148 -0.17141,4.02295 -0.25757,6.0344 -0.22577,5.28565 -0.44817,10.57143 -0.66955,15.85726 -0.35351,8.43301 -0.71105,16.86585 -1.07071,25.2986 -0.12388,2.9198 -0.24564,5.83968 -0.36716,8.75958 C 243.25335,443.93723 242.71186,454.46842 242,465 c -0.66,0 -1.32,0 -2,0 0,10.89 0,21.78 0,33 -0.66,0 -1.32,0 -2,0 0.0232,1.09312 0.0464,2.18625 0.0703,3.3125 0.18688,13.31912 -0.79089,26.43566 -2.07031,39.6875 -0.66,0 -1.32,0 -2,0 0.0326,1.34034 0.0326,1.34034 0.0659,2.70776 0.13171,9.69206 -0.66535,19.0068 -1.94092,28.60474 -0.18632,1.4547 -0.37162,2.90954 -0.55591,4.3645 -0.27238,2.14922 -0.54538,4.29834 -0.82203,6.44701 -0.87866,6.82826 -1.62798,13.66676 -2.35253,20.51271 -0.3688,3.14391 -0.84396,6.24658 -1.39453,9.36328 -0.66,0 -1.32,0 -2,0 -0.0477,-15.72196 -0.0824,-31.44389 -0.10362,-47.1659 -0.0101,-7.30736 -0.0238,-14.61467 -0.0473,-21.92199 -0.11112,-35.40438 0.35518,-70.69147 1.81039,-106.07381 0.35126,-8.69286 0.56862,-17.38154 0.68424,-26.08049 0.0159,-1.18551 0.0318,-2.37103 0.0481,-3.59247 0.0547,-4.49987 0.0986,-8.9998 0.13986,-13.49981 0.17713,-17.87031 0.62022,-35.79159 2.98303,-53.53011 0.49964,-3.94114 0.67342,-7.84371 0.76648,-11.8173 0.018,-0.72145 0.0361,-1.44289 0.0547,-2.18619 0.0383,-1.55113 0.0748,-3.1023 0.10962,-4.65351 0.0553,-2.46003 0.11578,-4.91989 0.17749,-7.37977 0.15214,-6.10559 0.29577,-12.21137 0.43945,-18.31716 0.122,-5.17183 0.24737,-10.34356 0.3772,-15.51521 0.0592,-2.41442 0.11358,-4.82892 0.16772,-7.24347 0.0369,-1.49011 0.074,-2.98022 0.11133,-4.47032 0.0454,-1.93904 0.0454,-1.93904 0.0918,-3.91725 C 233.32989,255.67011 233.32989,255.67011 235,254 Z"
     style="fill:#fde249"
     id="path107" />
  <path
     d="M 299.10535,233.18204 C 301,234 301,234 302.73242,237.35693 c 0.59446,1.50775 1.17201,3.02222 1.73633,4.54151 0.4752,1.21951 0.4752,1.21951 0.96001,2.46367 0.68129,1.75185 1.35578,3.50636 2.02421,5.26316 1.76044,4.62331 3.57192,9.22656 5.37906,13.83176 0.53722,1.3742 0.53722,1.3742 1.08528,2.77617 2.89354,7.37112 5.9955,14.61831 9.27019,21.8293 4.37851,9.6704 8.59032,19.39545 12.6875,29.1875 0.2655,0.63318 0.53099,1.26636 0.80453,1.91873 2.87001,6.84966 5.68436,13.7185 8.42594,20.62033 2.32052,5.83691 4.77905,11.59743 7.33203,17.33594 10.90297,24.8676 20.74313,50.19018 30.5625,75.5 0.39887,1.02736 0.79775,2.05473 1.20871,3.11322 3.99524,10.30006 7.95508,20.61222 11.79129,30.97272 0.29093,0.78283 0.58185,1.56566 0.88159,2.37222 2.34682,6.3824 3.25895,11.3715 3.18091,18.16684 -0.005,0.74508 -0.009,1.49016 -0.0137,2.25781 -0.0117,1.83077 -0.0297,3.66149 -0.0488,5.49219 0.99,0.33 1.98,0.66 3,1 1.47666,3.49029 1.07165,7.27436 1,11 -4.25983,-3.84205 -6.74248,-7.71429 -9.3125,-12.8125 -0.57911,-1.12052 -0.57911,-1.12052 -1.16992,-2.26367 -2.88453,-5.60382 -5.70071,-11.24359 -8.49072,-16.89502 -2.09427,-4.22699 -4.28618,-8.38906 -6.53467,-12.53589 -3.52396,-6.51334 -6.58507,-12.92235 -9.11328,-19.89917 -1.80934,-4.71554 -3.86327,-9.304 -5.94141,-13.90625 -0.37641,-0.83636 -0.75281,-1.67272 -1.14063,-2.53442 -1.73489,-3.824 -3.5109,-7.61289 -5.41406,-11.3562 -1.68961,-3.34387 -3.10448,-6.7331 -4.44531,-10.23438 -5.77082,-14.76446 -12.37116,-29.2264 -19.07031,-43.58984 -1.53973,-3.34782 -3.0218,-6.71903 -4.49219,-10.09766 -9.41981,-21.70075 -9.41981,-21.70075 -19.3125,-43.1875 -3.75072,-7.93949 -7.19048,-16.01452 -10.65262,-24.08286 -2.98618,-6.95841 -6.01068,-13.8872 -9.23019,-20.74136 -0.77296,-1.64754 -0.77296,-1.64754 -1.56153,-3.32837 -0.97469,-2.06269 -1.95929,-4.12074 -2.95507,-6.17334 -0.43281,-0.91596 -0.86561,-1.83192 -1.31153,-2.77563 -0.38333,-0.79358 -0.76667,-1.58716 -1.16162,-2.40479 C 281.87717,245.61168 281.93649,244.46301 283,242 c 2.25148,-1.78546 4.39113,-3.30127 6.8125,-4.8125 0.62971,-0.41959 1.25941,-0.83918 1.9082,-1.27148 4.662,-2.96939 4.662,-2.96939 7.38465,-2.73398 z"
     style="fill:#fde351"
     id="path109" />
  <path
     d="m 600,437 c 0.79651,2.4777 1.58726,4.95701 2.375,7.4375 0.22172,0.68771 0.44344,1.37543 0.67187,2.08398 0.68061,2.1519 1.32672,4.31024 1.95313,6.47852 0.29777,1.02625 0.29777,1.02625 0.60156,2.07324 1.73233,6.73444 1.69447,13.38161 1.64844,20.30176 0.0116,1.7325 0.0116,1.7325 0.0234,3.5 -0.0246,10.90259 -1.50267,20.47693 -5.83594,30.5 -0.34644,0.81219 -0.69287,1.62438 -1.0498,2.46118 C 596.45397,520.72039 591.33452,529.48214 584,536 c -0.66,0 -1.32,0 -2,0 -0.23074,0.57105 -0.46148,1.14211 -0.69922,1.73047 -1.63539,2.85334 -3.57392,4.49952 -6.11328,6.58203 -0.85207,0.71801 -1.70414,1.43602 -2.58203,2.17578 C 570,548 570,548 567.17578,547.73047 566.45777,547.48941 565.73977,547.24836 565,547 c -1.94162,-5.82487 -1.24363,-12.38623 -1.25,-18.5 -10e-4,-0.7472 -0.003,-1.49441 -0.004,-2.26425 0.006,-15.01576 1.62399,-28.93441 5.57828,-43.47403 0.72277,-2.95374 1.14227,-5.87445 1.55078,-8.88672 1.20513,-7.65256 4.09423,-14.78653 10.125,-19.875 2.70975,-2.67665 5.38175,-5.38858 8.04297,-8.11328 1.04813,-1.06645 2.09631,-2.13286 3.14453,-3.19922 0.79954,-0.82468 0.79954,-0.82468 1.61523,-1.66602 C 597.77426,437 597.77426,437 600,437 Z"
     style="fill:#b5e3fb"
     id="path111" />
  <path
     d="m 463.25,581.1875 c 5.8617,3.93944 10.35501,9.83757 11.75,16.8125 0.849,8.86045 -0.36796,17.224 -6.125,24.25 -3.84715,4.00039 -8.04087,7.04481 -12.875,9.75 -0.73734,0.41508 -1.47469,0.83016 -2.23438,1.25781 -5.23722,2.51317 -10.24982,3.14338 -16.01562,3.24219 -1.01042,0.0278 -1.01042,0.0278 -2.04126,0.0562 C 430.67822,636.4927 427.9101,635.05668 424,632 c -0.64066,-0.46922 -1.28133,-0.93844 -1.94141,-1.42188 C 416.62328,626.12509 412.49126,620.97626 411,614 c -0.26053,-2.91364 -0.27667,-5.82588 -0.3125,-8.75 -0.029,-0.77344 -0.058,-1.54688 -0.0879,-2.34375 -0.0792,-7.26478 2.29864,-13.31928 7.40039,-18.59375 12.43907,-11.49032 31.05085,-11.04016 45.25,-3.125 z"
     style="fill:#c9c2bd"
     id="path113" />
  <path
     d="m 412,481 c 0.68063,0.68063 1.36125,1.36125 2.0625,2.0625 0.69609,0.68449 0.69609,0.68449 1.40625,1.38281 1.03187,1.04767 2.03204,2.1274 3,3.23438 6.12008,6.75009 14.03986,10.00498 22.40625,13.25781 22.97867,8.98358 22.97867,8.98358 28.27344,20.17578 2.12345,4.95978 2.47074,9.35175 2.35156,14.69922 -0.0121,0.87656 -0.0242,1.75312 -0.0366,2.65625 C 471.10269,550.30799 466.49285,559.67343 461,570 c -0.66,0 -1.32,0 -2,0 0,1.32 0,2.64 0,4 -0.57105,-0.14437 -1.14211,-0.28875 -1.73047,-0.4375 C 446.32536,571.057 435.90882,571.55153 425,574 c 1.39774,-3.41428 2.82993,-4.84023 6,-6.6875 1.05187,-0.62455 1.05187,-0.62455 2.125,-1.26172 3.29428,-1.84617 4.84902,-2.1216 8.625,-1.73828 0.84047,0.0786 1.68094,0.15727 2.54687,0.23828 3.04189,0.50552 5.80406,1.41081 8.70313,2.44922 0.46631,-4.42342 0.7266,-8.59764 0,-13 -1.95936,-2.09686 -3.63376,-3.02791 -6.25,-4.16797 -0.86625,-0.41185 -0.86625,-0.41185 -1.75,-0.83203 0,-0.66 0,-1.32 0,-2 -0.70125,-0.22688 -1.4025,-0.45375 -2.125,-0.6875 -13.51095,-6.16804 -21.62821,-22.76035 -26.89844,-35.85547 C 412.86182,501.25158 411.80488,490.66603 412,481 Z"
     style="fill:#b6e4fb"
     id="path115" />
  <path
     d="m 418.1875,439.9375 c 1.88719,0.0309 1.88719,0.0309 3.8125,0.0625 -0.47438,1.17563 -0.94875,2.35125 -1.4375,3.5625 -1.45057,3.83853 -2.13827,7.3649 -2.5625,11.4375 2.97,0.495 2.97,0.495 6,1 0.28875,-0.78375 0.5775,-1.5675 0.875,-2.375 C 426,451 426,451 428,449 c 4.47614,0.0746 7.79931,0.45439 11.5,3.0625 2.56888,3.01843 3.45842,4.75776 3.15625,8.75391 -1.35327,4.50284 -4.54588,7.76675 -7.65625,11.18359 -0.825,0.96938 -1.65,1.93875 -2.5,2.9375 -4.72053,3.89443 -9.58466,4.19395 -15.5,4.0625 -0.72188,0.20625 -1.44375,0.4125 -2.1875,0.625 -0.59812,0.12375 -1.19625,0.2475 -1.8125,0.375 -3,-2 -3,-2 -3.51172,-4.16406 -0.087,-1.21817 -0.087,-1.21817 -0.17578,-2.46094 -0.0657,-0.81727 -0.13148,-1.63453 -0.19922,-2.47656 C 409.0759,470.27195 409.03852,469.64547 409,469 c -1.65,0 -3.3,0 -5,0 -2.40373,-5.389 -2.93242,-10.16641 -2,-16 2.17141,-4.57572 5.194,-8.64353 9,-12 2.75079,-0.91693 4.35949,-1.10886 7.1875,-1.0625 z"
     style="fill:#1d1e23"
     id="path117" />
  <path
     d="m 908,771 c 0.2824,3.95913 -0.20145,5.89751 -2.5625,9.07422 -0.54543,0.74484 -1.09087,1.48967 -1.65283,2.25708 -0.58894,0.77755 -1.17788,1.55509 -1.78467,2.3562 -0.59796,0.80655 -1.19593,1.6131 -1.81201,2.44409 C 895.92066,792.85965 891.57673,798.51504 887,804 c -1.24137,1.50047 -1.24137,1.50047 -2.50781,3.03125 -5.68411,6.8238 -11.58608,13.40994 -17.64453,19.90234 -2.55238,2.7367 -5.04917,5.51914 -7.53516,8.31641 -5.98291,6.66327 -12.24254,12.94328 -19.05078,18.76172 -2.24994,1.97793 -4.4193,4.02884 -6.59033,6.09253 -6.77417,6.40308 -13.94707,12.07447 -21.40186,17.66137 -3.4312,2.57631 -6.77319,5.2421 -10.09302,7.95972 -5.44264,4.45178 -10.95736,8.6408 -16.86401,12.46216 -0.57645,0.37479 -1.15291,0.74959 -1.74683,1.13574 -2.79639,1.76018 -5.28244,3.14154 -8.56567,3.67676 0.42206,-4.92407 2.41026,-6.74228 6,-10 2.41793,-1.80302 4.92036,-3.46436 7.4375,-5.125 6.27621,-4.21227 12.27603,-8.65546 18.13257,-13.43408 2.48318,-2.00803 4.36945,-3.42076 7.42993,-4.44092 0.78375,-0.78375 1.5675,-1.5675 2.375,-2.375 2.85192,-2.85192 5.52704,-5.23478 9.57812,-5.98828 2.62551,-0.81671 3.50617,-1.95343 5.23438,-4.07422 0.59812,-0.71543 1.19625,-1.43086 1.8125,-2.16797 0.66,-0.79019 1.32,-1.58039 2,-2.39453 1.55471,-1.75693 3.11737,-3.50684 4.6875,-5.25 0.72574,-0.80953 1.45148,-1.61906 2.19922,-2.45313 0.69738,-0.75796 1.39476,-1.51593 2.11328,-2.29687 0.68707,-0.75797 1.37414,-1.51594 2.08203,-2.29688 C 848,839 848,839 851,839 c 0.12182,-1.11762 0.12182,-1.11762 0.24609,-2.25781 0.92798,-3.37533 2.14124,-4.40547 4.81641,-6.61719 0.81469,-0.69094 1.62937,-1.38188 2.46875,-2.09375 1.52019,-1.25079 3.0409,-2.50093 4.5625,-3.75 6.37569,-5.36368 11.21174,-11.61122 16.12891,-18.30859 3.38814,-4.60858 6.61311,-8.9766 10.83984,-12.84766 4.07223,-3.8451 6.53164,-8.2631 9.06079,-13.20264 C 903.81095,771 903.81095,771 908,771 Z"
     style="fill:#13a86b"
     id="path119" />
  <path
     d="m 66,718 c 3.000213,2.63769 4.741379,5.73968 6.730469,9.17969 0.531172,0.91291 0.531172,0.91291 1.073074,1.84427 1.132402,1.94782 2.258505,3.89919 3.383957,5.85104 10.62245,18.50195 10.62245,18.50195 22.62109,36.12109 2.60575,3.57187 5.08305,7.22149 7.56641,10.87891 7.6254,11.1739 15.94809,21.74673 24.625,32.125 0.65259,0.78214 0.65259,0.78214 1.31836,1.58008 11.86386,14.17305 24.41296,27.51014 38.02539,40.01758 3.09931,2.85344 6.08791,5.79937 9.04077,8.80371 3.06133,3.0294 6.34928,5.79448 9.61548,8.59863 1.02006,0.89523 2.03955,1.79111 3.05859,2.6875 8.65214,7.56874 17.63601,14.56663 26.94141,21.3125 0.68997,0.50032 1.37994,1.00063 2.09082,1.51611 C 237.86609,909.90285 254.15157,920.27894 271,930 c -0.66,0.33 -1.32,0.66 -2,1 -2.608,-1.22416 -5.06262,-2.51587 -7.5625,-3.9375 -0.78359,-0.44167 -1.56718,-0.88333 -2.37451,-1.33838 -16.44365,-9.41134 -32.41235,-19.69863 -47.33692,-31.37891 -1.69755,-1.32298 -3.4096,-2.62422 -5.12841,-3.91943 C 198.82615,884.55339 191.37361,878.36097 184,872 c -1.10988,-0.95713 -1.10988,-0.95713 -2.24219,-1.93359 C 179.82835,868.38878 177.91373,866.69556 176,865 c -0.70334,-0.61851 -1.40669,-1.23702 -2.13135,-1.87427 -6.38101,-5.66691 -12.47276,-11.57491 -18.49243,-17.61914 -1.56894,-1.57433 -3.14321,-3.14321 -4.71802,-4.71167 C 145.22885,835.36947 139.95715,829.86523 135,824 c -0.87687,-1.00975 -1.75443,-2.01891 -2.63281,-3.02734 C 124.89115,812.2428 117.87885,803.20576 111,794 c -0.52852,-0.70222 -1.05703,-1.40443 -1.60156,-2.12793 C 93.53196,770.72002 80.176923,748.02053 68.164062,724.49219 67.748501,723.67863 67.332939,722.86507 66.904785,722.02686 66,720 66,720 66,718 Z"
     style="fill:#f8f9f0"
     id="path121" />
  <path
     d="m 454,405 c 8.03947,4.32895 8.03947,4.32895 11,8 0,0.99 0,1.98 0,3 0.99,-0.33 1.98,-0.66 3,-1 -2.08923,7.42836 -8.24448,13.17665 -14.78125,16.91016 C 442.73174,437.06135 431.67014,439.44885 420,439 c 4.0256,-4.95459 8.28597,-9.15839 13.14453,-13.30078 1.94278,-1.57586 1.94278,-1.57586 2.85547,-3.69922 0.66,0 1.32,0 2,0 0.35771,-0.84498 0.35771,-0.84498 0.72266,-1.70703 1.55526,-2.79186 3.44938,-4.72989 5.71484,-6.98047 0.78246,-0.78762 1.56492,-1.57523 2.37109,-2.38672 C 449,409 449,409 452,408 c 0.66,-0.99 1.32,-1.98 2,-3 z"
     style="fill:#b6e3f9"
     id="path123" />
  <path
     d="m 958,714 c 0.33,0.66 0.66,1.32 1,2 -0.82935,2.1604 -0.82935,2.1604 -2.17578,4.84766 -0.49291,0.98887 -0.98581,1.97774 -1.49365,2.99658 -0.81332,1.59304 -0.81332,1.59304 -1.64307,3.21826 -0.82879,1.63558 -0.82879,1.63558 -1.67432,3.3042 C 947.35476,739.47309 942.39209,748.31129 937,757 c -0.52852,0.85835 -1.05703,1.71671 -1.60156,2.60107 -7.17082,11.60961 -14.62586,22.8485 -23.01221,33.61573 -1.35814,1.74706 -2.70066,3.50499 -4.03857,5.26757 -7.54362,9.92151 -15.33185,19.55576 -23.79297,28.71485 -1.34458,1.4741 -2.6847,2.95315 -3.97974,4.47095 -5.15312,6.03566 -10.72631,11.63306 -16.34473,17.22998 -1.66448,1.65912 -3.32355,3.32353 -4.98217,4.98852 C 853.67178,859.46875 848.03442,864.91189 842,870 c -1.00986,0.87675 -2.01901,1.75431 -3.02734,2.63281 C 830.2435,880.10825 821.21168,887.1301 812,894 c -0.7288,0.54447 -1.45761,1.08894 -2.2085,1.6499 -8.57166,6.37429 -17.2957,12.46257 -26.2915,18.2251 -0.81968,0.53053 -1.63937,1.06106 -2.48389,1.60767 -0.75813,0.47751 -1.51626,0.95503 -2.29736,1.44702 -1.00644,0.63784 -1.00644,0.63784 -2.0332,1.28857 -0.55623,0.25798 -1.11246,0.51595 -1.68555,0.78174 -0.66,-0.33 -1.32,-0.66 -2,-1 0.4813,-0.32573 0.96261,-0.65146 1.4585,-0.98706 C 795.72049,902.60114 816.53816,887.78908 836,871 c 1.10988,-0.95713 1.10988,-0.95713 2.24219,-1.93359 1.92947,-1.67764 3.84577,-3.36895 5.75781,-5.06641 0.7773,-0.68449 1.55461,-1.36898 2.35547,-2.07422 5.42637,-4.82064 10.58084,-9.82318 15.61328,-15.05469 C 864,845 864,845 866,845 c 0.25652,-0.58652 0.51305,-1.17305 0.77734,-1.77734 1.3344,-2.42579 2.76751,-3.89795 4.78516,-5.78516 4.07566,-3.96531 7.6044,-8.22913 11.16016,-12.66016 2.14224,-2.61258 4.36375,-5.10543 6.65234,-7.58984 5.56786,-6.11392 10.58915,-12.63561 15.625,-19.1875 0.64711,-0.83531 1.29422,-1.67062 1.96094,-2.53125 2.74411,-3.49717 2.74411,-3.49717 4.8789,-7.36719 C 913,786 913,786 915.32422,783.71875 c 3.10226,-3.15208 5.21831,-6.4492 7.48828,-10.21875 0.43304,-0.70705 0.86609,-1.4141 1.31226,-2.14258 0.88099,-1.43913 1.75936,-2.87987 2.63501,-4.32226 1.7431,-2.86034 3.52745,-5.69471 5.30273,-8.53516 3.34217,-5.43354 6.47434,-10.96597 9.57129,-16.54102 3.0539,-5.47323 6.32003,-10.78292 9.63965,-16.09961 C 953.40589,722.3278 955.21352,718.71588 957,715 c 0.33,-0.33 0.66,-0.66 1,-1 z"
     style="fill:#f7f9ec"
     id="path125" />
  <path
     d="m 509.25,619.9375 c 1.85625,0.0309 1.85625,0.0309 3.75,0.0625 0,1.32 0,2.64 0,4 4.29,0 8.58,0 13,0 0,-1.32 0,-2.64 0,-4 7.26,0 14.52,0 22,0 -0.66,0.99 -1.32,1.98 -2,3 -0.99,0 -1.98,0 -3,0 0,0.66 0,1.32 0,2 1.65,0.33 3.3,0.66 5,1 0,0.33 0,0.66 0,1 -7.98008,0.7555 -15.90042,1.17449 -23.91406,1.28125 -1.09453,0.0184 -2.18905,0.0368 -3.31674,0.0558 -3.46469,0.0581 -6.92942,0.11112 -10.3942,0.16296 -14.8146,0.22373 -29.58913,0.51188 -44.375,1.5 5.625,-7.875 5.625,-7.875 9,-9 1.94542,-0.0713 3.89324,-0.0841 5.83984,-0.0625 1.14534,0.008 2.29067,0.0155 3.47071,0.0234 2.41406,0.026 4.82812,0.052 7.24218,0.0781 1.71994,0.0116 1.71994,0.0116 3.47461,0.0234 1.04922,0.0116 2.09844,0.0232 3.17945,0.0352 3.80181,-0.13292 7.21519,-1.22396 11.04321,-1.16016 z"
     style="fill:#6e6069"
     id="path127" />
  <path
     d="m 89,714 c 2.96716,2.48154 3.78421,4.83006 4.875,8.49609 1.93746,6.10503 4.34666,11.80117 7.125,17.56641 0.47204,0.98517 0.94408,1.97033 1.43042,2.98535 4.0808,8.32368 8.82829,16.07902 13.90552,23.82324 2.74141,4.18663 5.09863,8.52483 7.41797,12.95703 1.75201,3.05367 3.93804,5.52441 6.24609,8.17188 0,0.66 0,1.32 0,2 0.66,0 1.32,0 2,0 0.33,0.99 0.66,1.98 1,3 -1.98,0.495 -1.98,0.495 -4,1 -5.39754,-6.3471 -10.33954,-12.74023 -14.87109,-19.73438 -1.58644,-2.4335 -3.19891,-4.831 -4.85157,-7.21875 -0.46092,-0.67192 -0.92184,-1.34384 -1.39672,-2.03613 -0.90393,-1.31649 -1.81435,-2.62854 -2.73194,-3.93554 C 102.83289,757.67319 102,756.23476 102,752 c -1.485,-0.495 -1.485,-0.495 -3,-1 -1.16333,-1.66724 -1.16333,-1.66724 -2.26953,-3.83203 -0.41145,-0.79334 -0.82291,-1.58668 -1.24683,-2.40405 -0.64159,-1.27533 -0.64159,-1.27533 -1.29614,-2.57642 -0.65996,-1.28983 -0.65996,-1.28983 -1.33325,-2.60571 -0.88142,-1.72548 -1.75899,-3.45292 -2.63257,-5.18238 -1.057593,-2.07714 -2.140648,-4.13603 -3.245118,-6.18847 -0.82371,-1.55848 -0.82371,-1.55848 -1.664062,-3.14844 -0.478242,-0.8959 -0.956484,-1.7918 -1.449219,-2.71484 C 82.887274,719.69345 82.830677,718.56002 84,716 c 2.5625,-1.25 2.5625,-1.25 5,-2 z"
     style="fill:#14a668"
     id="path129" />
  <path
     d="m 610,968 c -0.99678,3.21185 -1.93382,3.96476 -4.94922,5.57031 -4.64895,1.88426 -9.33849,2.1478 -14.30078,2.49219 -6.47107,0.52574 -12.76715,1.18736 -19.13867,2.46729 -11.95613,2.1529 -24.26496,1.58668 -36.36133,1.53271 -1.96875,-0.005 -3.9375,-0.01 -5.90625,-0.0137 C 524.56247,980.0379 519.78125,980.0207 515,980 c 0,-0.33 0,-0.66 0,-1 6.07458,-1.21095 12.13167,-1.29754 18.30469,-1.42969 5.44769,-0.19991 9.99657,-1.18174 15.16699,-2.86621 4.36491,-1.21557 8.77212,-1.38067 13.27832,-1.6416 11.19458,-0.77808 22.25601,-2.17249 33.36035,-3.74194 1.21527,-0.17024 2.43053,-0.34048 3.68262,-0.51587 1.0779,-0.15485 2.15579,-0.3097 3.26636,-0.46924 C 604.74025,968.02963 607.30532,967.93583 610,968 Z"
     style="fill:#11a55e"
     id="path131" />
  <path
     d="m 555,595 c 0.23783,1.68416 0.23783,1.68416 0.48047,3.40234 1.6617,10.97384 3.45683,20.12569 12.625,27.31641 7.34198,4.9653 13.91866,6.33074 22.70703,6.84375 1.03931,0.0648 1.03931,0.0648 2.09961,0.13086 1.69578,0.10525 3.39181,0.20637 5.08789,0.30664 0.495,1.98 0.495,1.98 1,4 -9.39922,2.86676 -19.55746,1.66241 -28.27734,-2.51563 C 562.00552,629.73185 554.99648,624.91144 552,615 c -1.50238,-6.05153 -2.44561,-11.76146 -2,-18 2,-2 2,-2 5,-2 z"
     style="fill:#60555e"
     id="path133" />
  <path
     d="m 445,452 c 2,3 2,3 2,5 2.475,0.495 2.475,0.495 5,1 0.22692,3.3282 0.32162,5.41801 -1.3125,8.375 C 449,468 449,468 446,468 c -0.10828,0.59168 -0.21656,1.18336 -0.32813,1.79297 -0.75343,2.47495 -1.67565,3.63379 -3.42187,5.51953 -2.1653,2.40359 -4.07293,4.81369 -5.875,7.5 -3.17951,4.26724 -4.54256,4.91091 -9.6875,5.6875 -4.95565,-0.67195 -7.27293,-3.01278 -10.6875,-6.5 0.33,-1.32 0.66,-2.64 1,-4 0.59168,-0.049 1.18336,-0.098 1.79297,-0.14844 0.79019,-0.0748 1.58039,-0.14953 2.39453,-0.22656 0.7773,-0.0696 1.55461,-0.13922 2.35547,-0.21094 5.22694,-0.88085 8.05048,-2.62565 11.45703,-6.66406 0.68191,-0.80824 1.36383,-1.61648 2.06641,-2.44922 0.63808,-0.75926 1.27617,-1.51851 1.93359,-2.30078 0.52465,-0.5427 1.0493,-1.08539 1.58984,-1.64453 C 444.36616,460.38213 444.72709,457.27626 445,452 Z"
     style="fill:#928d8c"
     id="path135" />
  <path
     d="m 542,489 c -0.62409,6.55291 -3.40473,10.69418 -8.125,15.125 -9.26244,7.56037 -21.6158,9.23084 -33.1875,9.1875 -1.31968,0.0242 -1.31968,0.0242 -2.66602,0.0488 -6.3374,0.005 -6.3374,0.005 -9.62695,-1.75586 C 487,510 487,510 487,508 c 1.56234,-0.0387 1.56234,-0.0387 3.15625,-0.0781 13.42933,-0.4738 26.13322,-2.27798 38.02344,-8.96875 C 530,498 530,498 532,498 c 0.33,-0.99 0.66,-1.98 1,-3 0.66,0 1.32,0 2,0 0.30938,-0.80438 0.61875,-1.60875 0.9375,-2.4375 C 537.41463,489 537.41463,489 542,489 Z"
     style="fill:#5a5458"
     id="path137" />
  <path
     d="m 453,554 c 9.625,1.875 9.625,1.875 13,3 -0.60745,4.85963 -2.72759,8.74055 -5,13 -0.66,0 -1.32,0 -2,0 0,1.32 0,2.64 0,4 -0.57105,-0.14437 -1.14211,-0.28875 -1.73047,-0.4375 C 446.32536,571.057 435.90882,571.55153 425,574 c 1.39774,-3.41428 2.82993,-4.84023 6,-6.6875 0.70125,-0.41637 1.4025,-0.83273 2.125,-1.26172 3.29428,-1.84617 4.84902,-2.1216 8.625,-1.73828 1.2607,0.11795 1.2607,0.11795 2.54687,0.23828 C 447,565 447,565 453,567 c 0,-4.29 0,-8.58 0,-13 z"
     style="fill:#d8d6d2"
     id="path139" />
  <path
     d="m 509.25,619.9375 c 1.85625,0.0309 1.85625,0.0309 3.75,0.0625 0,1.32 0,2.64 0,4 -0.84305,0.0374 -1.68609,0.0748 -2.55469,0.11328 -1.64355,0.0986 -1.64355,0.0986 -3.32031,0.19922 -1.63582,0.087 -1.63582,0.087 -3.30469,0.17578 -1.39605,0.2533 -1.39605,0.2533 -2.82031,0.51172 -0.66,0.99 -1.32,1.98 -2,3 -2.50269,0.52417 -2.50269,0.52417 -5.63672,0.73047 -1.70253,0.12085 -1.70253,0.12085 -3.43945,0.24414 -1.19174,0.0702 -2.38348,0.14051 -3.61133,0.21289 -1.1724,0.0819 -2.3448,0.16371 -3.55273,0.24805 C 477.16476,629.8115 471.60747,630.10673 466,630 c 0.92838,-1.31896 1.86806,-2.62999 2.8125,-3.9375 0.52207,-0.7309 1.04414,-1.4618 1.58203,-2.21484 C 472,622 472,622 475,621 c 1.94542,-0.0713 3.89324,-0.0841 5.83984,-0.0625 1.14534,0.008 2.29067,0.0155 3.47071,0.0234 2.41406,0.026 4.82812,0.052 7.24218,0.0781 1.71994,0.0116 1.71994,0.0116 3.47461,0.0234 1.04922,0.0116 2.09844,0.0232 3.17945,0.0352 3.80181,-0.13292 7.21519,-1.22396 11.04321,-1.16016 z"
     style="fill:#8b717e"
     id="path141" />
  <path
     d="m 472,382 c 2.69944,10.46033 4.02435,21.49936 -0.92969,31.42578 C 470,415 470,415 468,416 c 0,-2.64 0,-5.28 0,-8 -0.66,0 -1.32,0 -2,0 -2.36743,-7.10229 -1.85694,-16.08321 1,-23 2.32258,-3 2.32258,-3 5,-3 z"
     style="fill:#ddecf5"
     id="path143" />
  <path
     d="m 434,465 c 1.98,0 3.96,0 6,0 -3.57026,5.76735 -7.02369,10.83073 -13.5,13.375 -8.0623,1.4397 -8.0623,1.4397 -11.375,-0.4375 C 414,476 414,476 414,469 c 5.94,0 11.88,0 18,0 0.66,-1.32 1.32,-2.64 2,-4 z"
     style="fill:#544d50"
     id="path145" />
  <path
     d="m 440,618 c 5,1 5,1 7,3 -0.25,2.0625 -0.25,2.0625 -1,4 -0.99,0.495 -0.99,0.495 -2,1 0,1.98 0,3.96 0,6 -10.09579,-0.34813 -10.09579,-0.34813 -13.6875,-2.9375 C 429,627 429,627 429,625 c 1.45894,0.47731 2.91713,0.95691 4.375,1.4375 0.81211,0.26684 1.62422,0.53367 2.46094,0.80859 C 438,628 438,628 440,629 c 0,-3.63 0,-7.26 0,-11 z"
     style="fill:#625a5f"
     id="path147" />
  <path
     d="m 552,611 c 2.79955,2.48104 4.3683,5.21612 6.125,8.5 0.5182,0.95906 1.03641,1.91813 1.57031,2.90625 C 561,625 561,625 562,628 c -5.05383,-1.80494 -7.04144,-5.98702 -9.25,-10.625 C 552,615 552,615 552,611 Z"
     style="fill:#6e696c"
     id="path149" />
  <path
     d="m 999,583 c 1.0157,3.0472 1.0097,3.98833 0.4414,7.01172 -0.1386,0.75732 -0.2771,1.51465 -0.4199,2.29492 -0.1515,0.78568 -0.3029,1.57137 -0.459,2.38086 -0.1476,0.79729 -0.2952,1.59457 -0.4473,2.41602 -0.365,1.96674 -0.7393,3.93178 -1.1152,5.89648 -0.33,0 -0.66,0 -1,0 -0.2134,-13.23064 -0.2134,-13.23064 1,-19 0.66,-0.33 1.32,-0.66 2,-1 z"
     style="fill:#f5f6d8"
     id="path151" />
  <path
     d="m 102,242 c 0,3.60195 -0.96328,5.00745 -2.8125,8.0625 -0.52207,0.87785 -1.04414,1.7557 -1.58203,2.66016 C 96,255 96,255 93,257 c 1.38781,-3.89007 3.21522,-6.96559 5.625,-10.3125 0.63164,-0.88301 1.26328,-1.76602 1.91406,-2.67578 C 101.02117,243.34785 101.50328,242.68398 102,242 Z"
     style="fill:#f9faf0"
     id="path153" />
</svg>
